<svg xmlns="http://www.w3.org/2000/svg" xmlns:xlink="http://www.w3.org/1999/xlink" version="1.1" width="206pt" height="188pt" viewBox="0 0 206 188">
<defs>
<clipPath id="clip_0">
<path transform="matrix(1,0,0,-1,-93,767)" d="M0 0H595.276V841.89H0Z"/>
</clipPath>
<path id="font_1_1" d="M.46199037 .17704773H.43399049C.43199159 .16404724 .42399598 .10501099 .41099549 .08900452 .40499879 .07998657 .33599855 .07998657 .31599427 .07998657H.13798523L.23699951 .17404175C.40098573 .3161316 .46199037 .36915589 .46199037 .4711914 .46199037 .5860901 .36698915 .6660156 .24398804 .6660156 .1289978 .6660156 .050994874 .575119 .050994874 .4841919 .050994874 .43418885 .09399414 .42919923 .102996829 .42919923 .125 .42919923 .15499878 .44519044 .15499878 .48120118 .15499878 .51119998 .13398743 .5332031 .102996829 .5332031 .09799194 .5332031 .09498596 .5332031 .09098816 .53219607 .114990238 .6030731 .1789856 .63500979 .23298645 .63500979 .33499146 .63500979 .36999513 .5401764 .36999513 .4711914 .36999513 .36915589 .29299928 .28611756 .24499512 .23408509L.06199646 .035995485C.050994874 .024993897 .050994874 .022994996 .050994874 0H.43399049L.46199037 .17704773Z"/>
<path id="font_1_2" d="M.18099976 .3363495C.21499634 .3943634 .269989 .41436769 .31199647 .41436769 .3899994 .41436769 .44999696 .32434083 .44999696 .2163086 .44999696 .10227966 .38198854 .014251709 .30099488 .014251709 .2559967 .014251709 .21798706 .040252687 .19400025 .07527161 .18099976 .09527588 .18099976 .09727478 .18099976 .11628723V.3363495M.18099976 .04826355C.20698548 .022247315 .24099732-.0107421879 .30699159-.0107421879 .42599488-.0107421879 .5359955 .08526611 .5359955 .2163086 .5359955 .3423462 .43798829 .4423828 .31999208 .4423828 .2659912 .4423828 .21598816 .42037965 .17799378 .379364V.4416504L.02999878 .43066407V.3996582C.100997928 .3996582 .10699463 .3936615 .10699463 .35066224V-.11734009C.10699463-.16334534 .09599304-.16334534 .02999878-.16334534V-.19433594C.07699585-.19233704 .09599304-.19134522 .14399719-.19134522 .19198609-.19134522 .20498657-.19233704 .2579956-.19433594V-.16334534C.19198609-.16334534 .18099976-.16334534 .18099976-.11734009V.04826355Z"/>
<path id="font_2_3" d="M.18899536 .09024048C.21998596 .12025452 .25498963 .14927674 .30799867 .18930054 .37599183 .24133301 .41600038 .27235414 .45899964 .31237794 .5159912 .36439515 .55400088 .41740418 .55400088 .42739869 .55400088 .44140626 .5399933 .44140626 .5359955 .44140626 .526001 .44140626 .522995 .4393921 .5159912 .42840577 .49798585 .4024048 .47099305 .372406 .43899537 .372406 .4149933 .372406 .3939972 .3894043 .3809967 .40040589 .35499574 .4223938 .33198548 .44140626 .29499818 .44140626 .21099854 .44140626 .15499878 .35339356 .15499878 .32337953 .15499878 .31237794 .16299439 .30836488 .17298889 .30836488 .18598938 .30836488 .18899536 .31437684 .19198609 .32237245 .20599365 .35739137 .2619934 .36039735 .2829895 .36039735 .30899049 .36039735 .33499146 .35539247 .35499574 .35038758 .4059906 .34039308 .4169922 .34039308 .43899537 .339386 .41600038 .31736756 .3919983 .29536439 .32699586 .24633789 .24598694 .18429566 .21598816 .1612854 .17399597 .12225342 .12298584 .07623291 .07499695 .017227173 .07499695 .0042266848 .07499695-.009765625 .08999634-.009765625 .09399414-.009765625 .10398865-.009765625 .10598755-.0077667238 .11199951 .00022888184 .1519928 .053222658 .19099427 .05921936 .20698548 .05921936 .23098755 .05921936 .24798584 .04623413 .2659912 .031219483 .29599 .008224487 .31698609-.009765625 .35299684-.009765625 .46398927-.009765625 .5349884 .11225891 .5349884 .14826966 .5349884 .15727234 .526001 .16227722 .5159912 .16227722 .5019989 .16227722 .5 .15628052 .49699403 .14627075 .47698976 .0912323 .41099549 .07122803 .3639984 .07122803 .33999635 .07122803 .31599427 .07623291 .2899933 .08123779 .2599945 .0872345 .23599243 .09223938 .21199036 .09223938 .20698548 .09223938 .19799805 .09223938 .18899536 .09024048Z"/>
<path id="font_2_2" d="M.59599307 .38438417C.59799197 .39138795 .598999 .395401 .598999 .39839173 .598999 .4104004 .58999636 .43139649 .5629883 .43139649 .54599 .43139649 .5289917 .4203949 .5219879 .4064026 .5179901 .3993988 .5109863 .3683777 .5059967 .3493805L.4850006 .26634217 .45399476 .14128113C.44699098 .11326599 .44299317 .09725952 .40299989 .059249879 .3919983 .049240114 .3600006 .023223877 .31698609 .023223877 .24299622 .023223877 .24299622 .088256839 .24299622 .10626221 .24299622 .15028382 .25498963 .19529724 .29899598 .3053589 .30899049 .32936097 .31199647 .33636476 .31199647 .35437013 .31199647 .4104004 .2619934 .44140626 .21199036 .44140626 .10998535 .44140626 .06098938 .3093567 .06098938 .28733827 .06098938 .28234864 .06498718 .27334596 .07899475 .27334596 .09298706 .27334596 .09599304 .27934266 .09899902 .28834535 .1269989 .38539125 .17999268 .4084015 .20799256 .4084015 .22799683 .4084015 .23498535 .395401 .23498535 .37239076 .23498535 .3513794 .22200012 .3173523 .21099854 .29034425 .17599488 .20230103 .1639862 .15628052 .1639862 .120269779 .1639862 .025222779 .23498535-.009765625 .31298829-.009765625 .32699586-.009765625 .37399293-.009765625 .4269867 .036239625 .4139862-.01878357 .40499879-.05781555 .35699464-.109817508 .33898927-.12980652 .2939911-.1710968 .23399353-.1710968 .22499085-.1710968 .18199158-.17008972 .15899658-.14382935 .20298767-.13581848 .20899964-.09681702 .20899964-.08781433 .20899964-.060806276 .18699646-.049804689 .16799927-.049804689 .14299011-.049804689 .10998535-.06980896 .10998535-.11581421 .10998535-.16403198 .15699768-.20410156 .23498535-.20410156 .34098817-.20410156 .46899415-.12580872 .5-.00077819827L.59599307 .38438417Z"/>
<path id="font_2_1" d="M.5629883 .39352418C.5279999 .38352967 .519989 .3545227 .519989 .33952333 .519989 .30752564 .54599 .30052186 .55999758 .30052186 .58898928 .30052186 .6179962 .32452394 .6179962 .3635254 .6179962 .41740418 .5589905 .44140626 .5079956 .44140626 .44198609 .44140626 .4019928 .3905182 .3909912 .371521 .37799073 .39649964 .33999635 .44140626 .2649994 .44140626 .1499939 .44140626 .08198547 .32252503 .08198547 .28749085 .08198547 .2824707 .085998538 .27345277 .099990848 .27345277 .11399841 .27345277 .116989139 .27946473 .11999512 .28848268 .14498902 .3695221 .21299744 .4084015 .2619934 .4084015 .31098939 .4084015 .32598878 .37652589 .32598878 .34352113 .32598878 .3315277 .32598878 .32252503 .31799317 .29148866 .29499818 .19825745 .272995 .10707092 .2679901 .095077518 .25299073 .05708313 .21699524 .023223877 .1749878 .023223877 .16899109 .023223877 .14099121 .023223877 .117996219 .038085939 .15699768 .051071168 .16099549 .08407593 .16099549 .09207153 .16099549 .11807251 .14099121 .13108826 .12098694 .13108826 .09298706 .13108826 .06298828 .10908508 .06298828 .06808472 .06298828 .011230469 .12599182-.009765625 .17298889-.009765625 .22999573-.009765625 .2709961 .029159546 .2899933 .060073854 .30999757 .018234253 .35798646-.009765625 .4149933-.009765625 .5329895-.009765625 .598999 .111083988 .598999 .14411927 .598999 .14611817 .59799197 .15815735 .5799866 .15815735 .56599429 .15815735 .56399539 .1511383 .5609894 .1421051 .5319977 .05508423 .46099855 .023223877 .4189911 .023223877 .3809967 .023223877 .35398866 .045074464 .35398866 .08708191 .35398866 .1060791 .35899354 .12808228 .36799623 .16316223L.3999939 .2935028C.4099884 .33251954 .4149933 .3505249 .43598939 .37452699 .44999696 .38952638 .47399903 .4084015 .5059967 .4084015 .5109863 .4084015 .54100039 .4084015 .5629883 .39352418Z"/>
<path id="font_3_2" d="M.5319977 .36865235C.54499819 .36865235 .58200076 .36865235 .58200076 .4046631 .58200076 .43066407 .55999758 .43066407 .54100039 .43066407H.30599977C.15499878 .43066407 .038986207 .27381898 .038986207 .1490326 .038986207 .048187257 .10998535-.0107421879 .19499207-.0107421879 .31698609-.0107421879 .45199586 .11009216 .45199586 .26184083 .45199586 .32473756 .4249878 .36366273 .42199708 .36865235H.5319977M.19599915 .014251709C.15899658 .014251709 .10499573 .035217287 .10499573 .12207031 .10499573 .19094849 .14399719 .36865235 .2889862 .36865235 .33799745 .36865235 .38398744 .34669496 .38398744 .2728119 .38398744 .24786377 .37199403 .15701294 .32598878 .09312439 .29299928 .046203615 .24198914 .014251709 .19599915 .014251709Z"/>
<path id="font_4_1" d="M.46499635 .14109802C.4909973 .12310791 .49299623 .12310791 .5 .12310791 .5169983 .12310791 .5329895 .1381073 .5329895 .15808106 .5329895 .17807007 .5179901 .18406677 .5099945 .18806458 .45899964 .20904541 .4079895 .23002625 .35598756 .24900818 .45799256 .29096986 .48599244 .30096437 .5039978 .30895997 .5189972 .3159485 .5329895 .3209381 .5329895 .34092713 .5329895 .36090089 .5169983 .37590028 .5 .37590028 .49198915 .37590028 .48599244 .37190248 .47799684 .36689759L.33599855 .27697755C.33699037 .29096986 .34098817 .325943 .34199525 .33792115 .34399415 .35791017 .35198976 .41786195 .35198976 .43484498 .35198976 .45184327 .33699037 .46484376 .31900025 .46484376 .3019867 .46484376 .28599549 .45184327 .28599549 .43484498 .28599549 .43284608 .29499818 .34292604 .29599 .33892823 .29699708 .3279419 .30099488 .28996278 .3019867 .27697755L.1599884 .36689759C.1519928 .37190248 .1459961 .37590028 .13798523 .37590028 .12098694 .37590028 .10499573 .36090089 .10499573 .34092713 .10499573 .3209381 .11999512 .3149414 .12799073 .31095887 .1789856 .28996278 .22999573 .26898194 .28199769 .25 .17999268 .20803833 .1519928 .19804383 .13398743 .19004822 .11898804 .18305969 .10499573 .17807007 .10499573 .15808106 .10499573 .1381073 .12098694 .12310791 .13798523 .12310791 .1459961 .12310791 .16299439 .1341095 .1749878 .14208985 .18899536 .15008545 .22299195 .17207337 .23599243 .18106079 .2689972 .20204163 .2809906 .21003723 .3019867 .22203064 .30099488 .20803833 .29699708 .17306519 .29599 .16108704L.28599549 .06416321C.28599549 .047164918 .3019867 .034179689 .31900025 .034179689 .33699037 .034179689 .35198976 .047164918 .35198976 .06416321 .35198976 .06517029 .34298707 .15509033 .34199525 .16007996 .34098817 .17106629 .33699037 .20904541 .33599855 .22203064L.46499635 .14109802Z"/>
<path id="font_3_1" d="M.272995 .36865235H.3869934C.37199403 .30575563 .34599305 .20193482 .34599305 .11906433 .34599305 .112075809 .34599305 .075149539 .35499574 .03919983 .36499024 .0012512207 .37399293-.0107421879 .3939972-.0107421879 .4149933-.0107421879 .43699647 .007247925 .43699647 .030212403 .43699647 .037200929 .43598939 .04020691 .42999269 .05317688 .39898683 .123062137 .39898683 .19694519 .39898683 .21990967 .39898683 .24485779 .39898683 .28878785 .41600038 .36865235H.5329895C.54599 .36865235 .58299258 .36865235 .58299258 .4046631 .58299258 .43066407 .5609894 .43066407 .5419922 .43066407H.19599915C.17199707 .43066407 .13699341 .43066407 .08999634 .38365174 .06298828 .3566742 .026992798 .30177308 .026992798 .29377748 .026992798 .2828064 .037994386 .2828064 .040985109 .2828064 .04899597 .2828064 .050994874 .28479005 .056991579 .29478456 .10598755 .36865235 .16699219 .36865235 .18699646 .36865235H.24398804C.20098877 .21791077 .13198853 .07614136 .125 .061172487 .117996219 .047195436 .10798645 .026229859 .10798645 .018234253 .10798645 .0052490236 .116989139-.0107421879 .13899231-.0107421879 .1749878-.0107421879 .18399048 .025222779 .20498657 .10609436L.272995 .36865235Z"/>
<path id="font_5_1" d="M.23199463 .6696167C.22299195 .6816101 .22200012 .6826172 .20298767 .6826172H.032989503V.6516113H.06199646C.07699585 .6516113 .09700012 .65060427 .11199951 .6496124 .1349945 .64660647 .13598633 .6456146 .13598633 .62661746V.10494995C.13598633 .07795715 .13598633 .0309906 .032989503 .0309906V0C.067993167 .0009918213 .116989139 .0029907227 .1499939 .0029907227 .18299866 .0029907227 .23199463 .0009918213 .2669983 0V.0309906C.1639862 .0309906 .1639862 .07795715 .1639862 .10494995V.62461856C.16899109 .6196289 .16999817 .6186218 .17399597 .6126251L.58200076 .0129852299C.59098818 .0009918213 .59199526 0 .598999 0 .61299136 0 .61299136 .0069885256 .61299136 .025985718V.577652C.61299136 .6046295 .61299136 .6516113 .71598818 .6516113V.6826172C.68099978 .6816101 .6319885 .6796112 .598999 .6796112 .56599429 .6796112 .5169983 .6816101 .48199464 .6826172V.6516113C.58499148 .6516113 .58499148 .6046295 .58499148 .577652V.15092469L.23199463 .6696167Z"/>
<path id="font_5_2" d="M.72099307 .3387909C.72099307 .5429535 .56999209 .7050781 .3880005 .7050781 .20899964 .7050781 .055999757 .5449524 .055999757 .3387909 .055999757 .13363648 .20999146-.022460938 .3880005-.022460938 .56999209-.022460938 .72099307 .13664246 .72099307 .3387909M.3889923 .0035247803C.29299928 .0035247803 .15899658 .09159851 .15899658 .35281373 .15899658 .6120148 .30499269 .68006899 .3880005 .68006899 .47499085 .68006899 .6179962 .6090088 .6179962 .35281373 .6179962 .08760071 .48098756 .0035247803 .3889923 .0035247803Z"/>
</defs>
<g clip-path="url(#clip_0)">
<path transform="matrix(1,0,0,-1,41.742,107.966)" stroke-width=".3985" stroke-linecap="butt" stroke-miterlimit="10" stroke-linejoin="miter" fill="none" stroke="#afb0b1" d="M0 0H9.96277"/>
<path transform="matrix(1,0,0,-1,41.742,107.966)" stroke-width=".59776" stroke-linecap="butt" stroke-miterlimit="10" stroke-linejoin="miter" fill="none" stroke="#afb0b1" d="M3.98505-3.98505V3.40236"/>
<path transform="matrix(0,-1,-1,-0,45.72705,104.563648)" stroke-width=".4782" stroke-linecap="round" stroke-linejoin="round" fill="none" stroke="#afb0b1" d="M-1.37483 1.83311C-1.26025 1.14569 0 .11455 .34369 0 .25204-.05977 .22913-.05977 .22913-.05977H0"/>
<use data-text="2" xlink:href="#font_1_1" transform="matrix(8.9664,0,0,-8.9664,39.711,122.244998)" fill="#afb0b1"/>
<use data-text="p" xlink:href="#font_1_2" transform="matrix(8.9664,0,0,-8.9664,44.319734,122.244998)" fill="#afb0b1"/>
<use data-text="z" xlink:href="#font_2_3" transform="matrix(5.9776,0,0,-5.9776,49.438997,123.24097)" fill="#afb0b1"/>
<path transform="matrix(1,0,0,-1,21.817,107.966)" stroke-width=".3985" stroke-linecap="butt" stroke-miterlimit="10" stroke-linejoin="miter" fill="none" stroke="#afb0b1" d="M0 0H9.96277"/>
<path transform="matrix(1,0,0,-1,21.817,107.966)" stroke-width=".59776" stroke-linecap="butt" stroke-miterlimit="10" stroke-linejoin="miter" fill="none" stroke="#afb0b1" d="M3.98505-3.98505V3.40236"/>
<path transform="matrix(0,-1,-1,-0,25.80205,104.563648)" stroke-width=".4782" stroke-linecap="round" stroke-linejoin="round" fill="none" stroke="#afb0b1" d="M-1.37483 1.83311C-1.26025 1.14569 0 .11455 .34369 0 .25204-.05977 .22913-.05977 .22913-.05977H0"/>
<use data-text="2" xlink:href="#font_1_1" transform="matrix(8.9664,0,0,-8.9664,19.685997,122.244998)" fill="#afb0b1"/>
<use data-text="p" xlink:href="#font_1_2" transform="matrix(8.9664,0,0,-8.9664,24.294724,122.244998)" fill="#afb0b1"/>
<use data-text="y" xlink:href="#font_2_2" transform="matrix(5.9776,0,0,-5.9776,29.412995,123.24097)" fill="#afb0b1"/>
<path transform="matrix(1,0,0,-1,1.8909994,107.966)" stroke-width=".3985" stroke-linecap="butt" stroke-miterlimit="10" stroke-linejoin="miter" fill="none" stroke="#afb0b1" d="M0 0H9.96277"/>
<path transform="matrix(1,0,0,-1,1.8909994,107.966)" stroke-width=".59776" stroke-linecap="butt" stroke-miterlimit="10" stroke-linejoin="miter" fill="none" stroke="#afb0b1" d="M3.98505-3.98505V3.40236"/>
<path transform="matrix(0,-1,-1,-0,5.8760497,104.563648)" stroke-width=".4782" stroke-linecap="round" stroke-linejoin="round" fill="none" stroke="#afb0b1" d="M-1.37483 1.83311C-1.26025 1.14569 0 .11455 .34369 0 .25204-.05977 .22913-.05977 .22913-.05977H0"/>
<use data-text="2" xlink:href="#font_1_1" transform="matrix(8.9664,0,0,-8.9664,-.3259964,122.244998)" fill="#afb0b1"/>
<use data-text="p" xlink:href="#font_1_2" transform="matrix(8.9664,0,0,-8.9664,4.28273,122.244998)" fill="#afb0b1"/>
<use data-text="x" xlink:href="#font_2_1" transform="matrix(5.9776,0,0,-5.9776,9.401001,123.24097)" fill="#afb0b1"/>
<path transform="matrix(1,0,0,-1,194.978,51.273004)" stroke-width=".3985" stroke-linecap="butt" stroke-miterlimit="10" stroke-linejoin="miter" fill="none" stroke="#afb0b1" d="M0 0H9.96277"/>
<path transform="matrix(1,0,0,-1,194.978,51.273004)" stroke-width=".59776" stroke-linecap="butt" stroke-miterlimit="10" stroke-linejoin="miter" fill="none" stroke="#afb0b1" d="M3.98505-3.98505V3.40236"/>
<path transform="matrix(0,-1,-1,-0,198.96305,47.870645)" stroke-width=".4782" stroke-linecap="round" stroke-linejoin="round" fill="none" stroke="#afb0b1" d="M-1.37483 1.83311C-1.26025 1.14569 0 .11455 .34369 0 .25204-.05977 .22913-.05977 .22913-.05977H0"/>
<use data-text="2" xlink:href="#font_1_1" transform="matrix(8.9664,0,0,-8.9664,192.948,65.552)" fill="#afb0b1"/>
<use data-text="p" xlink:href="#font_1_2" transform="matrix(8.9664,0,0,-8.9664,197.55673,65.552)" fill="#afb0b1"/>
<use data-text="z" xlink:href="#font_2_3" transform="matrix(5.9776,0,0,-5.9776,202.67499,66.54797)" fill="#afb0b1"/>
<path transform="matrix(1,0,0,-1,175.05301,51.273004)" stroke-width=".3985" stroke-linecap="butt" stroke-miterlimit="10" stroke-linejoin="miter" fill="none" stroke="#afb0b1" d="M0 0H9.96277"/>
<path transform="matrix(1,0,0,-1,175.05301,51.273004)" stroke-width=".59776" stroke-linecap="butt" stroke-miterlimit="10" stroke-linejoin="miter" fill="none" stroke="#afb0b1" d="M3.98505-3.98505V3.40236"/>
<path transform="matrix(0,-1,-1,-0,179.03806,47.870645)" stroke-width=".4782" stroke-linecap="round" stroke-linejoin="round" fill="none" stroke="#afb0b1" d="M-1.37483 1.83311C-1.26025 1.14569 0 .11455 .34369 0 .25204-.05977 .22913-.05977 .22913-.05977H0"/>
<use data-text="2" xlink:href="#font_1_1" transform="matrix(8.9664,0,0,-8.9664,172.922,65.552)" fill="#afb0b1"/>
<use data-text="p" xlink:href="#font_1_2" transform="matrix(8.9664,0,0,-8.9664,177.53073,65.552)" fill="#afb0b1"/>
<use data-text="y" xlink:href="#font_2_2" transform="matrix(5.9776,0,0,-5.9776,182.65,66.54797)" fill="#afb0b1"/>
<path transform="matrix(1,0,0,-1,155.12799,51.273004)" stroke-width=".3985" stroke-linecap="butt" stroke-miterlimit="10" stroke-linejoin="miter" fill="none" stroke="#afb0b1" d="M0 0H9.96277"/>
<path transform="matrix(1,0,0,-1,155.12799,51.273004)" stroke-width=".59776" stroke-linecap="butt" stroke-miterlimit="10" stroke-linejoin="miter" fill="none" stroke="#afb0b1" d="M3.98505-3.98505V3.40236"/>
<path transform="matrix(0,-1,-1,-0,159.11304,47.870645)" stroke-width=".4782" stroke-linecap="round" stroke-linejoin="round" fill="none" stroke="#afb0b1" d="M-1.37483 1.83311C-1.26025 1.14569 0 .11455 .34369 0 .25204-.05977 .22913-.05977 .22913-.05977H0"/>
<path transform="matrix(1,0,0,-1,155.12799,51.273004)" stroke-width=".59776" stroke-linecap="butt" stroke-miterlimit="10" stroke-linejoin="miter" fill="none" stroke="#afb0b1" d="M5.9777 3.98505V-3.40236"/>
<path transform="matrix(0,1,1,0,161.1057,54.67536)" stroke-width=".4782" stroke-linecap="round" stroke-linejoin="round" fill="none" stroke="#afb0b1" d="M-1.37483 1.83311C-1.26025 1.14569 0 .11455 .34369 0 .25204-.05977 .22913-.05977 .22913-.05977H0"/>
<use data-text="2" xlink:href="#font_1_1" transform="matrix(8.9664,0,0,-8.9664,152.91,65.552)" fill="#afb0b1"/>
<use data-text="p" xlink:href="#font_1_2" transform="matrix(8.9664,0,0,-8.9664,157.51874,65.552)" fill="#afb0b1"/>
<use data-text="x" xlink:href="#font_2_1" transform="matrix(5.9776,0,0,-5.9776,162.638,66.54797)" fill="#afb0b1"/>
<path transform="matrix(1,0,0,-1,98.435,158.98902)" stroke-width=".3985" stroke-linecap="butt" stroke-miterlimit="10" stroke-linejoin="miter" fill="none" stroke="#afb0b1" d="M0 0H9.96277"/>
<path transform="matrix(1,0,0,-1,98.435,158.98902)" stroke-width=".59776" stroke-linecap="butt" stroke-miterlimit="10" stroke-linejoin="miter" fill="none" stroke="#afb0b1" d="M3.98505-3.98505V3.40236"/>
<path transform="matrix(0,-1,-1,-0,102.420047,155.58666)" stroke-width=".4782" stroke-linecap="round" stroke-linejoin="round" fill="none" stroke="#afb0b1" d="M-1.37483 1.83311C-1.26025 1.14569 0 .11455 .34369 0 .25204-.05977 .22913-.05977 .22913-.05977H0"/>
<path transform="matrix(1,0,0,-1,98.435,158.98902)" stroke-width=".59776" stroke-linecap="butt" stroke-miterlimit="10" stroke-linejoin="miter" fill="none" stroke="#afb0b1" d="M5.9777 3.98505V-3.40236"/>
<path transform="matrix(0,1,1,0,104.4127,162.39138)" stroke-width=".4782" stroke-linecap="round" stroke-linejoin="round" fill="none" stroke="#afb0b1" d="M-1.37483 1.83311C-1.26025 1.14569 0 .11455 .34369 0 .25204-.05977 .22913-.05977 .22913-.05977H0"/>
<use data-text="2" xlink:href="#font_1_1" transform="matrix(8.9664,0,0,-8.9664,95.982,173.26898)" fill="#afb0b1"/>
<use data-text="&#x03c3;" xlink:href="#font_3_2" transform="matrix(8.9664,0,0,-8.9664,100.589,173.26898)" fill="#afb0b1"/>
<use data-text="x" xlink:href="#font_2_1" transform="matrix(5.9776,0,0,-5.9776,106.18099,174.26496)" fill="#afb0b1"/>
<path transform="matrix(1,0,0,-1,98.435,.24900341)" stroke-width=".3985" stroke-linecap="butt" stroke-miterlimit="10" stroke-linejoin="miter" fill="none" stroke="#afb0b1" d="M0 0H9.96277"/>
<use data-text="2" xlink:href="#font_1_1" transform="matrix(8.9664,0,0,-8.9664,95.982,15.340027)" fill="#afb0b1"/>
<use data-text="&#x03c3;" xlink:href="#font_3_2" transform="matrix(8.9664,0,0,-8.9664,100.590007,15.340027)" fill="#afb0b1"/>
<use data-text="&#x2217;" xlink:href="#font_4_1" transform="matrix(5.9776,0,0,-5.9776,106.18101,11.531006)" fill="#afb0b1"/>
<use data-text="x" xlink:href="#font_2_1" transform="matrix(5.9776,0,0,-5.9776,106.18101,16.91803)" fill="#afb0b1"/>
<path transform="matrix(1,0,0,-1,88.472,119.304)" stroke-width=".3985" stroke-linecap="butt" stroke-miterlimit="10" stroke-linejoin="miter" fill="none" stroke="#afb0b1" d="M0 0H9.96277"/>
<path transform="matrix(1,0,0,-1,88.472,119.304)" stroke-width=".59776" stroke-linecap="butt" stroke-miterlimit="10" stroke-linejoin="miter" fill="none" stroke="#afb0b1" d="M3.98505-3.98505V3.40236"/>
<path transform="matrix(0,-1,-1,-0,92.45705,115.90164)" stroke-width=".4782" stroke-linecap="round" stroke-linejoin="round" fill="none" stroke="#afb0b1" d="M-1.37483 1.83311C-1.26025 1.14569 0 .11455 .34369 0 .25204-.05977 .22913-.05977 .22913-.05977H0"/>
<path transform="matrix(1,0,0,-1,88.472,119.304)" stroke-width=".59776" stroke-linecap="butt" stroke-miterlimit="10" stroke-linejoin="miter" fill="none" stroke="#afb0b1" d="M5.9777 3.98505V-3.40236"/>
<path transform="matrix(0,1,1,0,94.4497,122.70636)" stroke-width=".4782" stroke-linecap="round" stroke-linejoin="round" fill="none" stroke="#afb0b1" d="M-1.37483 1.83311C-1.26025 1.14569 0 .11455 .34369 0 .25204-.05977 .22913-.05977 .22913-.05977H0"/>
<use data-text="2" xlink:href="#font_1_1" transform="matrix(8.9664,0,0,-8.9664,86.103,133.58301)" fill="#afb0b1"/>
<use data-text="&#x03c0;" xlink:href="#font_3_1" transform="matrix(8.9664,0,0,-8.9664,90.711,133.58301)" fill="#afb0b1"/>
<use data-text="y" xlink:href="#font_2_2" transform="matrix(5.9776,0,0,-5.9776,96.30699,134.58002)" fill="#afb0b1"/>
<path transform="matrix(1,0,0,-1,88.472,39.934007)" stroke-width=".3985" stroke-linecap="butt" stroke-miterlimit="10" stroke-linejoin="miter" fill="none" stroke="#afb0b1" d="M0 0H9.96277"/>
<path transform="matrix(1,0,0,-1,88.472,39.934007)" stroke-width=".59776" stroke-linecap="butt" stroke-miterlimit="10" stroke-linejoin="miter" fill="none" stroke="#afb0b1" d="M3.98505-3.98505V3.40236"/>
<path transform="matrix(0,-1,-1,-0,92.45705,36.531648)" stroke-width=".4782" stroke-linecap="round" stroke-linejoin="round" fill="none" stroke="#afb0b1" d="M-1.37483 1.83311C-1.26025 1.14569 0 .11455 .34369 0 .25204-.05977 .22913-.05977 .22913-.05977H0"/>
<use data-text="2" xlink:href="#font_1_1" transform="matrix(8.9664,0,0,-8.9664,86.103,55.026)" fill="#afb0b1"/>
<use data-text="&#x03c0;" xlink:href="#font_3_1" transform="matrix(8.9664,0,0,-8.9664,90.711,55.026)" fill="#afb0b1"/>
<use data-text="&#x2217;" xlink:href="#font_4_1" transform="matrix(5.9776,0,0,-5.9776,96.30699,51.21698)" fill="#afb0b1"/>
<use data-text="y" xlink:href="#font_2_2" transform="matrix(5.9776,0,0,-5.9776,96.30699,56.602968)" fill="#afb0b1"/>
<path transform="matrix(1,0,0,-1,108.396999,119.304)" stroke-width=".3985" stroke-linecap="butt" stroke-miterlimit="10" stroke-linejoin="miter" fill="none" stroke="#afb0b1" d="M0 0H9.96277"/>
<path transform="matrix(1,0,0,-1,108.396999,119.304)" stroke-width=".59776" stroke-linecap="butt" stroke-miterlimit="10" stroke-linejoin="miter" fill="none" stroke="#afb0b1" d="M3.98505-3.98505V3.40236"/>
<path transform="matrix(0,-1,-1,-0,112.38204,115.90164)" stroke-width=".4782" stroke-linecap="round" stroke-linejoin="round" fill="none" stroke="#afb0b1" d="M-1.37483 1.83311C-1.26025 1.14569 0 .11455 .34369 0 .25204-.05977 .22913-.05977 .22913-.05977H0"/>
<path transform="matrix(1,0,0,-1,108.396999,119.304)" stroke-width=".59776" stroke-linecap="butt" stroke-miterlimit="10" stroke-linejoin="miter" fill="none" stroke="#afb0b1" d="M5.9777 3.98505V-3.40236"/>
<path transform="matrix(0,1,1,0,114.374698,122.70636)" stroke-width=".4782" stroke-linecap="round" stroke-linejoin="round" fill="none" stroke="#afb0b1" d="M-1.37483 1.83311C-1.26025 1.14569 0 .11455 .34369 0 .25204-.05977 .22913-.05977 .22913-.05977H0"/>
<use data-text="2" xlink:href="#font_1_1" transform="matrix(8.9664,0,0,-8.9664,106.129,133.58301)" fill="#afb0b1"/>
<use data-text="&#x03c0;" xlink:href="#font_3_1" transform="matrix(8.9664,0,0,-8.9664,110.73599,133.58301)" fill="#afb0b1"/>
<use data-text="z" xlink:href="#font_2_3" transform="matrix(5.9776,0,0,-5.9776,116.331989,134.58002)" fill="#afb0b1"/>
<path transform="matrix(1,0,0,-1,108.396999,39.934007)" stroke-width=".3985" stroke-linecap="butt" stroke-miterlimit="10" stroke-linejoin="miter" fill="none" stroke="#afb0b1" d="M0 0H9.96277"/>
<use data-text="2" xlink:href="#font_1_1" transform="matrix(8.9664,0,0,-8.9664,106.118,55.026)" fill="#afb0b1"/>
<use data-text="&#x03c0;" xlink:href="#font_3_1" transform="matrix(8.9664,0,0,-8.9664,110.726,55.026)" fill="#afb0b1"/>
<use data-text="&#x2217;" xlink:href="#font_4_1" transform="matrix(5.9776,0,0,-5.9776,116.32199,51.21698)" fill="#afb0b1"/>
<use data-text="z" xlink:href="#font_2_3" transform="matrix(5.9776,0,0,-5.9776,116.32199,56.602968)" fill="#afb0b1"/>
<path transform="matrix(1,0,0,-1,18.376999,107.966)" stroke-width=".3985" stroke-linecap="butt" stroke-dasharray=".3985,1.99255" stroke-miterlimit="10" stroke-linejoin="miter" fill="none" stroke="#afb0b1" d="M33.52744 0 79.8598-51.02435M90.22107-51.02435 136.55345 56.69363M33.52744 0 79.8598 107.71799M90.22107 107.71799 136.55345 56.69363M33.52744 0 69.89703-11.33855M100.18384-11.33855 136.55345 56.69363M33.52744 0 69.89703 68.03218M100.18384 68.03218 136.55345 56.69363"/>
<use data-text="N" xlink:href="#font_5_1" transform="matrix(9.9626,0,0,-9.9626,42.987,187.336)" fill="#afb0b1"/>
<use data-text="N" xlink:href="#font_5_1" transform="matrix(9.9626,0,0,-9.9626,95.806,187.336)" fill="#afb0b1"/>
<use data-text="O" xlink:href="#font_5_2" transform="matrix(9.9626,0,0,-9.9626,103.277957,187.336)" fill="#afb0b1"/>
<use data-text="O" xlink:href="#font_5_2" transform="matrix(9.9626,0,0,-9.9626,156.235,187.336)" fill="#afb0b1"/>
</g>
</svg>
