<svg xmlns="http://www.w3.org/2000/svg" xmlns:xlink="http://www.w3.org/1999/xlink" version="1.1" width="286pt" height="200pt" viewBox="0 0 286 200">
<defs>
<clipPath id="clip_8">
<path transform="matrix(1,0,0,-1,-91,772)" d="M0 0H595.276V841.89H0Z"/>
</clipPath>
<path id="font_9_2" d="M.7599945 .69506838C.7599945 .69807437 .7579956 .7050781 .7489929 .7050781 .74598696 .7050781 .7449951 .70407107 .73399356 .69306948L.6639862 .61602786C.6549988 .6300354 .60899356 .7050781 .49798585 .7050781 .2749939 .7050781 .049987794 .48391725 .049987794 .25172425 .049987794 .08659363 .16799927-.022460938 .32099916-.022460938 .4079895-.022460938 .48399354 .017532349 .5369873 .063583377 .6299896 .14564514 .6469879 .2367096 .6469879 .23971558 .6469879 .24972534 .6369934 .24972534 .6349945 .24972534 .6289978 .24972534 .6239929 .24772644 .621994 .23971558 .61299136 .21069336 .58999636 .13963318 .5209961 .081588748 .45199586 .025543213 .3889923 .008529663 .33699037 .008529663 .24699402 .008529663 .14099121 .060577394 .14099121 .21670532 .14099121 .27374269 .1619873 .43588258 .2619934 .55296328 .32299806 .62402346 .4169922 .67407229 .5059967 .67407229 .60798647 .67407229 .6669922 .5970001 .6669922 .48091126 .6669922 .44088746 .6639862 .43988038 .6639862 .4298706 .6639862 .41986085 .6749878 .41986085 .67900088 .41986085 .69200137 .41986085 .69200137 .42185975 .69699099 .43988038L.7599945 .69506838Z"/>
<path id="font_10_2" d="M.33499146 .63612368C.33499146 .6630554 .33299256 .6640625 .30499269 .6640625 .24099732 .6014404 .1499939 .6004486 .10899353 .6004486V.5644531C.1329956 .5644531 .19898987 .5644531 .2539978 .592453V.08203125C.2539978 .04899597 .2539978 .035995485 .1539917 .035995485H.115997318V0C.13398743 .0009918213 .25698854 .0039978029 .2939911 .0039978029 .32499696 .0039978029 .45098878 .0009918213 .47299195 0V.035995485H.43499757C.33499146 .035995485 .33499146 .04899597 .33499146 .08203125V.63612368Z"/>
<path id="font_9_3" d="M.375 .6136017C.3809967 .63760378 .38398744 .6476135 .40299989 .65060427 .4119873 .6516113 .44400025 .6516113 .46398927 .6516113 .5349884 .6516113 .6459961 .6516113 .6459961 .5525818 .6459961 .51856997 .6299896 .44955445 .59098818 .41055299 .5649872 .38453675 .5119934 .35253907 .42199708 .35253907H.30999757L.375 .6136017M.5189972 .33953858C.6199951 .3615265 .7389984 .43154908 .7389984 .5325775 .7389984 .61860659 .6489868 .6826172 .5179901 .6826172H.23298645C.21299744 .6826172 .20399475 .6826172 .20399475 .6626129 .20399475 .6516113 .21299744 .6516113 .23199463 .6516113 .23399353 .6516113 .25299073 .6516113 .269989 .6496124 .28799439 .6476135 .29699708 .64660647 .29699708 .63360598 .29699708 .62960818 .29599 .6266022 .29299928 .6145935L.15899658 .07752991C.14898682 .038528444 .14698792 .030532837 .067993167 .030532837 .049987794 .030532837 .040985109 .030532837 .040985109 .010528564 .040985109-.00047302247 .052993776-.00047302247 .054992677-.00047302247 .08299255-.00047302247 .15299988 .002532959 .18099976 .002532959 .20899964 .002532959 .27999879-.00047302247 .30799867-.00047302247 .31599427-.00047302247 .32798768-.00047302247 .32798768 .01953125 .32798768 .030532837 .31900025 .030532837 .2999878 .030532837 .2630005 .030532837 .23498535 .030532837 .23498535 .048538209 .23498535 .054534913 .23699951 .059524537 .23799134 .0655365L.3039856 .3305359H.4229889C.5139923 .3305359 .5319977 .27453614 .5319977 .23953247 .5319977 .22453308 .5239868 .19352722 .5179901 .17053223 .5109863 .14253235 .5019989 .105529788 .5019989 .08552551 .5019989-.022460938 .621994-.022460938 .6349945-.022460938 .7200012-.022460938 .7549896 .07853699 .7549896 .0925293 .7549896 .104537967 .74398806 .104537967 .7429962 .104537967 .73399356 .104537967 .7319946 .09753418 .7299957 .090530399 .7049866 .016525269 .6619873-.00047302247 .6389923-.00047302247 .60598757-.00047302247 .598999 .021530152 .598999 .060531618 .598999 .091537479 .6049957 .14253235 .60899356 .17453003 .61099246 .1885376 .61299136 .20753479 .61299136 .2215271 .61299136 .2985382 .54599 .3295288 .5189972 .33953858Z"/>
<path id="font_11_3" d="M.40899659 .23046875H.6879883C.70199587 .23046875 .72099307 .23046875 .72099307 .25045777 .72099307 .27046205 .70199587 .27046205 .6879883 .27046205H.40899659V.5500183C.40899659 .56399539 .40899659 .5830078 .3889923 .5830078 .36898805 .5830078 .36898805 .56399539 .36898805 .5500183V.27046205H.08898926C.07499695 .27046205 .055999757 .27046205 .055999757 .25045777 .055999757 .23046875 .07499695 .23046875 .08898926 .23046875H.36898805V-.05000305C.36898805-.06401062 .36898805-.08300781 .3889923-.08300781 .40899659-.08300781 .40899659-.06401062 .40899659-.05000305V.23046875Z"/>
<path id="font_12_1" d="M.6589966 .23046875C.6759949 .23046875 .69400027 .23046875 .69400027 .25045777 .69400027 .27046205 .6759949 .27046205 .6589966 .27046205H.117996219C.100997928 .27046205 .08299255 .27046205 .08299255 .25045777 .08299255 .23046875 .100997928 .23046875 .117996219 .23046875H.6589966Z"/>
<path id="font_9_4" d="M.6279907 .5686035C.6769867 .64660647 .71899417 .6496124 .7559967 .6516113 .7679901 .65260317 .7689972 .6696167 .7689972 .6706085 .7689972 .6786041 .7639923 .6826172 .7559967 .6826172 .7299957 .6826172 .70098879 .6796112 .673996 .6796112 .6409912 .6796112 .6069946 .6826172 .57499697 .6826172 .56900027 .6826172 .55599978 .6826172 .55599978 .66360476 .55599978 .65260317 .5649872 .6516113 .57199099 .6516113 .598999 .6496124 .6179962 .63960269 .6179962 .61860659 .6179962 .6036072 .6029968 .581604 .6029968 .5805969L.29599 .092544559 .22799683 .62161257C.22799683 .63861086 .25099183 .6516113 .29699708 .6516113 .31098939 .6516113 .32199098 .6516113 .32199098 .6716156 .32199098 .680603 .31399537 .6826172 .30799867 .6826172 .2679901 .6826172 .22499085 .6796112 .18399048 .6796112 .1659851 .6796112 .14698792 .680603 .1289978 .680603 .11099243 .680603 .09199524 .6826172 .07499695 .6826172 .067993167 .6826172 .055999757 .6826172 .055999757 .66360476 .055999757 .6516113 .06498718 .6516113 .08099365 .6516113 .13699341 .6516113 .13798523 .64260867 .14099121 .6175995L.21998596 .0005340576C.22299195-.019470215 .22698975-.022460938 .23999024-.022460938 .2559967-.022460938 .2599945-.017471314 .2679901-.004470825L.6279907 .5686035Z"/>
<path id="font_13_2" d="M.84298709 .6901245C.84298709 .69511416 .83999636 .703125 .8299866 .703125 .82299807 .703125 .82099917 .70111086 .81199648 .69111636L.7389984 .61413577C.7299957 .62612918 .673996 .703125 .5509949 .703125 .30799867 .703125 .069992069 .48820497 .069992069 .2623291 .069992069 .09941101 .19799805-.01953125 .3769989-.01953125 .43099977-.01953125 .5269928-.008544922 .6299896 .078430179 .70899966 .14538574 .73098757 .23234558 .73098757 .24034119 .73098757 .25334168 .71899417 .25334168 .71398928 .25334168 .70098879 .25334168 .69898989 .24833679 .69599917 .23735047 .6549988 .10041809 .5149994 .016464234 .3939972 .016464234 .28799439 .016464234 .16999817 .07342529 .16999817 .23135376 .16999817 .2603302 .1769867 .4182434 .2919922 .5441742 .36099244 .6211395 .46598817 .66711428 .5609894 .66711428 .6769867 .66711428 .7449951 .5831604 .7449951 .47122193 .7449951 .4432373 .74198916 .43623353 .74198916 .43023683 .74198916 .4172516 .7549896 .4172516 .7599945 .4172516 .776001 .4172516 .776001 .4202423 .7809906 .4392395L.84298709 .6901245Z"/>
<path id="font_10_3" d="M.5049896 .18203736H.47099305C.46798707 .16001892 .45799256 .100997928 .44499208 .09098816 .43699647 .084991458 .3600006 .084991458 .34599305 .084991458H.1619873C.2669983 .17803955 .3019867 .20603943 .3619995 .25306703 .43598939 .312088 .5049896 .374115 .5049896 .46914674 .5049896 .5900879 .39898683 .6640625 .2709961 .6640625 .14698792 .6640625 .06298828 .57710269 .06298828 .4851532 .06298828 .43414308 .10598755 .42915345 .115997318 .42915345 .13999939 .42915345 .16899109 .44615174 .16899109 .48214723 .16899109 .5001526 .1619873 .53515627 .10998535 .53515627 .14099121 .6060791 .20899964 .62805178 .2559967 .62805178 .35598756 .62805178 .4079895 .5501404 .4079895 .46914674 .4079895 .38212586 .34599305 .3130951 .31399537 .27708436L.07299805 .038986207C.06298828 .02999878 .06298828 .027999878 .06298828 0H.47499085L.5049896 .18203736Z"/>
<path id="font_13_1" d="M.18998719 .07797241C.18099976 .04399109 .1789856 .035995485 .101989749 .035995485 .084991458 .035995485 .07199097 .035995485 .07199097 .01499939 .07199097 0 .083999637 0 .101989749 0H.4889984C.6569977 0 .7859955 .11494446 .7859955 .21388245 .7859955 .28485108 .72099307 .34580995 .61499026 .35681153 .73599246 .37879945 .83699038 .4547577 .83699038 .54067996 .83699038 .6166382 .7599945 .6826172 .6299896 .6826172H.2659912C.24699402 .6826172 .23399353 .6826172 .23399353 .660614 .23399353 .64660647 .24598694 .64660647 .2659912 .64660647 .2669983 .64660647 .28599549 .64660647 .3039856 .64460757 .32499696 .64260867 .32699586 .64060977 .32699586 .63061526 .32699586 .62861636 .32699586 .6236267 .32299806 .6086426L.18998719 .07797241M.34999085 .3688202 .41099549 .6126404C.4189911 .6436157 .41999818 .64660647 .46199037 .64660647H.6139984C.71598818 .64660647 .7389984 .57966616 .7389984 .541687 .7389984 .46073915 .647995 .3688202 .5139923 .3688202H.34999085M.3019867 .035995485C.2709961 .035995485 .269989 .036987306 .269989 .04598999 .269989 .04698181 .269989 .051986696 .27398683 .066970828L.34298707 .3408203H.5549927C.6489868 .3408203 .68499758 .27885438 .68499758 .22088623 .68499758 .12194824 .58399966 .035995485 .46299745 .035995485H.3019867Z"/>
<path id="font_10_1" d="M.5159912 .31925965C.5159912 .42918397 .5029907 .50813296 .45700074 .5780945 .42599488 .62405398 .3639984 .6640625 .28399659 .6640625 .051986696 .6640625 .051986696 .39120484 .051986696 .31925965 .051986696 .2472992 .051986696-.01953125 .28399659-.01953125 .5159912-.01953125 .5159912 .2472992 .5159912 .31925965M.28399659 .008468628C.23799134 .008468628 .1769867 .035446168 .15699768 .117385867 .14299011 .17634583 .14299011 .25830079 .14299011 .33224488 .14299011 .40519715 .14299011 .4811554 .1579895 .53611758 .1789856 .6150665 .24299622 .63604739 .28399659 .63604739 .33799745 .63604739 .3899994 .6030731 .4079895 .545105 .42399598 .4911499 .4249878 .41918946 .4249878 .33224488 .4249878 .25830079 .4249878 .18434143 .4119873 .12138367 .3919983 .030441285 .32398988 .008468628 .28399659 .008468628Z"/>
<path id="font_11_29" d="M.20799256 .19424439C.22999573 .19024658 .31199647 .17424011 .31199647 .102249149 .31199647 .051254274 .2769928 .011245728 .19898987 .011245728 .114990238 .011245728 .07899475 .06825256 .05999756 .15324402 .056991579 .1662445 .055999757 .17024231 .04598999 .17024231 .032989503 .17024231 .032989503 .16323853 .032989503 .14524842V.013244629C.032989503-.003753662 .032989503-.0107421879 .04399109-.0107421879 .04899597-.0107421879 .049987794-.009750366 .068984989 .009246826 .070999149 .011245728 .070999149 .013244629 .08898926 .03224182 .1329956-.009750366 .17799378-.0107421879 .19898987-.0107421879 .31399537-.0107421879 .3600006 .056243898 .3600006 .12825012 .3600006 .1812439 .32998658 .21124268 .31799317 .22323609 .2849884 .25523377 .24598694 .26324464 .20399475 .27124024 .147995 .28224183 .08099365 .2952423 .08099365 .35324098 .08099365 .38822938 .10699463 .42922975 .19299317 .42922975 .30299378 .42922975 .30799867 .3392334 .30999757 .3082428 .31098939 .2992401 .31999208 .2992401 .32199098 .2992401 .33499146 .2992401 .33499146 .304245 .33499146 .3232422V.4242401C.33499146 .4412384 .33499146 .4482422 .32398988 .4482422 .31900025 .4482422 .31698609 .4482422 .3039856 .43623353 .30099488 .43223573 .29100038 .42323304 .2869873 .42022706 .24899292 .4482422 .20799256 .4482422 .19299317 .4482422 .070999149 .4482422 .032989503 .38124085 .032989503 .3252411 .032989503 .29023744 .04899597 .26223756 .07598877 .24023438 .10798645 .21424866 .13598633 .2082367 .20799256 .19424439Z"/>
<path id="font_11_24" d="M.1769867 .4423828 .036987306 .43138124V.40037538C.101989749 .40037538 .11099243 .3943634 .11099243 .34532167V.076034549C.11099243 .0309906 .099990848 .0309906 .032989503 .0309906V0C.06498718 .0009918213 .11898804 .0029907227 .14299011 .0029907227 .17799378 .0029907227 .21299744 .0009918213 .24699402 0V.0309906C.18099976 .0309906 .1769867 .035995485 .1769867 .075042728V.4423828M.18099976 .6159363C.18099976 .64793398 .1559906 .6689453 .12799073 .6689453 .09700012 .6689453 .07499695 .64193728 .07499695 .6159363 .07499695 .5889435 .09700012 .5629425 .12799073 .5629425 .1559906 .5629425 .18099976 .5839386 .18099976 .6159363Z"/>
<path id="font_11_26" d="M.10998535 .34429933V.076034549C.10998535 .0309906 .09899902 .0309906 .03199768 .0309906V0C.066986087 .0009918213 .117996219 .0029907227 .14498902 .0029907227 .17098999 .0029907227 .22299195 .0009918213 .25698854 0V.0309906C.18998719 .0309906 .1789856 .0309906 .1789856 .076034549V.2602234C.1789856 .36431886 .25 .42037965 .31399537 .42037965 .3769989 .42037965 .3880005 .36631776 .3880005 .30926515V.076034549C.3880005 .0309906 .3769989 .0309906 .30999757 .0309906V0C.34498597 .0009918213 .3959961 .0029907227 .4229889 .0029907227 .44898988 .0029907227 .5009918 .0009918213 .5349884 0V.0309906C.48298646 .0309906 .45799256 .0309906 .45700074 .061019899V.25221253C.45700074 .3383026 .45700074 .36932374 .42599488 .405365 .4119873 .42237855 .3789978 .4423828 .32099916 .4423828 .24798584 .4423828 .20098877 .39935304 .17298889 .33729554V.4423828L.03199768 .43138124V.40037538C.101989749 .4003601 .10998535 .39335633 .10998535 .34429933Z"/>
<path id="font_11_1" d="M.33099366-.2400055C.33099366-.23701477 .33099366-.23500061 .31399537-.21800232 .18899536-.0920105 .15699768 .09700012 .15699768 .25 .15699768 .42399598 .19499207 .59799197 .31799317 .72299197 .33099366 .73498538 .33099366 .7369995 .33099366 .73999026 .33099366 .746994 .32699586 .75 .32099916 .75 .31098939 .75 .22099304 .6819916 .1619873 .5549927 .11099243 .44499208 .09899902 .33399964 .09899902 .25 .09899902 .17199707 .10998535 .050994874 .16499329-.06201172 .22499085-.18501282 .31098939-.25 .32099916-.25 .32699586-.25 .33099366-.24700928 .33099366-.2400055Z"/>
<path id="font_9_1" d="M.6049957 .37234498C.6049957 .4173584 .58699038 .4423523 .5649872 .4423523 .5389862 .4423523 .5119934 .41835023 .5119934 .39533998 .5119934 .38534547 .5169983 .37434388 .5269928 .3653412 .5439911 .35032655 .56199648 .32331849 .56199648 .28131105 .56199648 .24130249 .54299929 .1842804 .5119934 .13827515 .48199464 .09526062 .44499208 .06124878 .397995 .06124878 .34098817 .06124878 .30999757 .09725952 .30099488 .15127564 .31199647 .17727661 .33499146 .24130249 .33499146 .26930238 .33499146 .28131105 .32998658 .2913208 .31698609 .2913208 .30899049 .2913208 .2979889 .2893219 .2899933 .27430726 .2789917 .25430299 .2669983 .18928528 .2669983 .15327454 .23399353 .10626221 .19400025 .06124878 .1309967 .06124878 .06498718 .06124878 .04399109 .120269779 .04399109 .17628479 .04399109 .3013153 .1459961 .40634156 .1459961 .4193573 .1459961 .4303589 .13798523 .4383545 .1269989 .4383545 .11399841 .4383545 .10699463 .425354 .100997928 .41635133 .049987794 .34233094 .011993408 .22329712 .011993408 .13226319 .011993408 .06324768 .034988405-.0107421879 .116989139-.0107421879 .18798828-.0107421879 .23498535 .039245607 .2709961 .09425354 .27999879 .036254884 .31900025-.0107421879 .3809967-.0107421879 .45899964-.0107421879 .5069885 .050247194 .54299929 .12527466 .5669861 .17428589 .6049957 .310318 .6049957 .37234498Z"/>
<path id="font_9_10" d="M.20599365 .3996582H.2999878C.31999208 .3996582 .32998658 .3996582 .32998658 .41966249 .32998658 .43066407 .31999208 .43066407 .3019867 .43066407H.21398926C.25 .5724945 .25498963 .59246829 .25498963 .59846499 .25498963 .61546328 .24299622 .62545779 .22599793 .62545779 .22299195 .62545779 .19499207 .62446597 .18598938 .58947756L.14698792 .43066407H.052993776C.032989503 .43066407 .022994996 .43066407 .022994996 .4116516 .022994996 .3996582 .0309906 .3996582 .050994874 .3996582H.13899231C.066986087 .11608887 .06298828 .099121097 .06298828 .08114624 .06298828 .02722168 .100997928-.0107421879 .15499878-.0107421879 .25698854-.0107421879 .31399537 .13505554 .31399537 .14305115 .31399537 .1530304 .30599977 .1530304 .3019867 .1530304 .29299928 .1530304 .2919922 .15003968 .2869873 .13905335 .24398804 .035217287 .19099427 .011245728 .15699768 .011245728 .13598633 .011245728 .12599182 .024230957 .12599182 .057174684 .12599182 .08114624 .12799073 .088134769 .13198853 .10510254L.20599365 .3996582Z"/>
<path id="font_11_2" d="M.2889862 .25C.2889862 .32798768 .27799989 .44898988 .22299195 .56199648 .16299439 .68499758 .07699585 .75 .066986087 .75 .06098938 .75 .056991579 .74598696 .056991579 .73999026 .056991579 .7369995 .056991579 .73498538 .07598877 .71699526 .17399597 .6179962 .23098755 .45899964 .23098755 .25 .23098755 .07899475 .19400025-.09700012 .069992069-.2230072 .056991579-.23500061 .056991579-.23701477 .056991579-.2400055 .056991579-.2460022 .06098938-.25 .066986087-.25 .07699585-.25 .16699219-.18200684 .22599793-.055007936 .2769928 .054992677 .2889862 .16600037 .2889862 .25Z"/>
<path id="font_11_16" d="M.22200012 .36573792V.6116333C.22200012 .64460757 .22399903 .6516113 .2709961 .6516113H.394989C.49198915 .6516113 .5269928 .5666504 .5269928 .5136719 .5269928 .44970704 .47799684 .36573792 .36698915 .36573792H.22200012M.45799256 .35673524C.5549927 .37573243 .6239929 .43971253 .6239929 .5136719 .6239929 .6006317 .5319977 .6826172 .4019928 .6826172H.035995485V.6516113H.05999756C.13699341 .6516113 .13899231 .64060977 .13899231 .6046295V.07795715C.13899231 .04197693 .13699341 .0309906 .05999756 .0309906H.035995485V0H.42799378C.5609894 0 .651001 .08894348 .651001 .18287659 .651001 .2698059 .56900027 .34474183 .45799256 .35673524M.3959961 .0309906H.2709961C.22399903 .0309906 .22200012 .037994386 .22200012 .07095337V.34375H.4099884C.5089874 .34375 .5509949 .25080873 .5509949 .18386841 .5509949 .1129303 .49899293 .0309906 .3959961 .0309906Z"/>
<path id="font_11_17" d="M.055999757 .34179688C.055999757 .1346283 .21798706-.022460938 .4039917-.022460938 .5669861-.022460938 .6649933 .116622928 .6649933 .23271179 .6649933 .24272156 .6649933 .24972534 .6519928 .24972534 .6409912 .24972534 .6409912 .24372864 .6399994 .23371887 .6319885 .09059143 .5249939 .008529663 .41600038 .008529663 .35499574 .008529663 .15899658 .042556764 .15899658 .34080506 .15899658 .64004519 .35398866 .67407229 .4149933 .67407229 .5239868 .67407229 .61299136 .58299258 .6329956 .4368744 .6349945 .42286683 .6349945 .41986085 .6489868 .41986085 .6649933 .41986085 .6649933 .42286683 .6649933 .44387818V.68107607C.6649933 .69807437 .6649933 .7050781 .6539917 .7050781 .6499939 .7050781 .6459961 .7050781 .6380005 .69306948L.58799746 .61901858C.5509949 .6550598 .5 .7050781 .4039917 .7050781 .21699524 .7050781 .055999757 .5459595 .055999757 .34179688Z"/>
<path id="font_11_18" d="M.13598633 .07797241C.13598633 .041992189 .13398743 .0309906 .056991579 .0309906H.032989503V0H.6100006L.6519928 .2579193H.6269989C.60198977 .10397339 .57899478 .0309906 .40699769 .0309906H.27398683C.22698975 .0309906 .22499085 .037994386 .22499085 .07098389V.33789063H.31498719C.4119873 .33789063 .4229889 .30589295 .4229889 .220932H.44799806V.48576356H.4229889C.4229889 .39985658 .4119873 .36888124 .31498719 .36888124H.22499085V.6086426C.22499085 .6416168 .22698975 .64860537 .27398683 .64860537H.40299989C.55599978 .64860537 .58299258 .59365847 .598999 .45480348H.6239929L.59599307 .6796112H.032989503V.64860537H.056991579C.13398743 .64860537 .13598633 .637619 .13598633 .60165408V.07797241Z"/>
<path id="font_9_5" d="M.28399659 .6252594C.28399659 .6452637 .269989 .6612549 .24699402 .6612549 .21998596 .6612549 .19299317 .6352539 .19299317 .6082611 .19299317 .5892639 .20698548 .5722656 .23098755 .5722656 .2539978 .5722656 .28399659 .5952606 .28399659 .6252594M.20799256 .24932862C.21998596 .27833558 .21998596 .28033448 .22999573 .30734254 .23799134 .3273468 .24299622 .34135438 .24299622 .36035157 .24299622 .405365 .21099854 .4423828 .16099549 .4423828 .066986087 .4423828 .0289917 .29733277 .0289917 .28833009 .0289917 .27833558 .038986207 .27833558 .040985109 .27833558 .050994874 .27833558 .051986696 .28033448 .056991579 .29634095 .083999637 .3903656 .12399292 .42037965 .1579895 .42037965 .1659851 .42037965 .18299866 .42037965 .18299866 .3883667 .18299866 .36735536 .17599488 .346344 .17199707 .3363495 .1639862 .31033326 .11898804 .19430542 .102996829 .1512909 .09298706 .12528992 .07998657 .0922699 .07998657 .0712738 .07998657 .024261475 .11399841-.0107421879 .1619873-.0107421879 .2559967-.0107421879 .29299928 .1342926 .29299928 .14329529 .29299928 .1532898 .28399659 .1532898 .2809906 .1532898 .2709961 .1532898 .2709961 .15029907 .2659912 .13528443 .24798584 .072265628 .21499634 .011245728 .1639862 .011245728 .14698792 .011245728 .13999939 .021255494 .13999939 .044265748 .13999939 .0692749 .1459961 .08326721 .16899109 .14428711L.20799256 .24932862Z"/>
<path id="font_13_4" d="M.4119873 .600708C.42099 .63668826 .42399598 .64668276 .5159912 .64668276 .5469971 .64668276 .5569916 .64668276 .5569916 .6686859 .5569916 .66967776 .55599978 .6826782 .5399933 .6826782 .5169983 .6826782 .48999024 .6806793 .46598817 .6796875 .44099427 .6786804 .41099549 .6786804 .38598634 .6786804 .36499024 .6786804 .33799745 .6796875 .31698609 .6796875 .29599 .6796875 .27198792 .6826782 .2519989 .6826782 .24598694 .6826782 .23098755 .6826782 .23098755 .66067507 .23098755 .64668276 .24299622 .64668276 .2630005 .64668276 .2639923 .64668276 .2829895 .64668276 .30099488 .64468386 .32199098 .64268496 .32398988 .64068606 .32398988 .6306915 .32398988 .6286926 .32398988 .623703 .31999208 .6087036L.18699646 .07797241C.17799378 .04399109 .17599488 .035995485 .09899902 .035995485 .08198547 .035995485 .068984989 .035995485 .068984989 .01499939 .068984989 0 .08099365 0 .09899902 0H.60198977C.6269989 0 .6279907 .0009918213 .6359863 .019989014 .6459961 .04698181 .72099307 .2408905 .72099307 .24888611 .72099307 .25187684 .71899417 .26287843 .70399478 .26287843 .69200137 .26287843 .6899872 .25787355 .6839905 .24188233 .6459961 .14694214 .60198977 .035995485 .4189911 .035995485H.30599977C.2749939 .035995485 .27398683 .036987306 .27398683 .04598999 .27398683 .04698181 .27398683 .051986696 .27799989 .066970828L.4119873 .600708Z"/>
<path id="font_13_5" d="M.5309906 .2663269C.5309906 .37738038 .44799806 .44140626 .34999085 .44140626 .20199585 .44140626 .06199646 .3023529 .06199646 .1652832 .06199646 .06524658 .1349945-.009765625 .24398804-.009765625 .3869934-.009765625 .5309906 .12226868 .5309906 .2663269M.24499512 .018234253C.19499207 .018234253 .14498902 .050247194 .14498902 .12927246 .14498902 .17028809 .1639862 .26834107 .20298767 .32536317 .24598694 .38739015 .3039856 .4133911 .34899903 .4133911 .40299989 .4133911 .44898988 .37638856 .44898988 .3023529 .44898988 .27833558 .43699647 .17929077 .3929901 .10926819 .35499574 .050247194 .29499818 .018234253 .24499512 .018234253Z"/>
<path id="font_13_7" d="M.4229889 .16229248C.41799928 .14228821 .40899659 .104263309 .40699769 .103256229 .3880005 .072250369 .34799195 .018234253 .28599549 .018234253 .21699524 .018234253 .21699524 .08325195 .21699524 .101257327 .21699524 .16029358 .24499512 .23132324 .272995 .3043518 .2809906 .32435609 .2869873 .33937074 .2869873 .3553772 .2869873 .4073944 .24299622 .44140626 .19198609 .44140626 .09199524 .44140626 .04699707 .3043518 .04699707 .28834535 .04699707 .27534486 .06098938 .27534486 .06399536 .27534486 .07798767 .27534486 .07899475 .28033448 .08198547 .29135133 .10598755 .37338258 .1499939 .4133911 .18899536 .4133911 .20599365 .4133911 .21398926 .40238954 .21398926 .37838746 .21398926 .3553772 .20599365 .33436585 .19599915 .3113556 .14199829 .17329407 .14199829 .14428711 .14199829 .117263797 .14199829 .1002655 .14199829 .054244996 .1789856 .022232056 .20799256-.0017700195 .24699402-.009765625 .28199769-.009765625 .34498597-.009765625 .3789978 .024230957 .4119873 .056243898 .43399049-.0077667238 .5009918-.009765625 .5130005-.009765625 .5469971-.009765625 .57299807 .010223389 .59199526 .04324341 .6139984 .08226013 .6279907 .14027405 .6279907 .14328003 .6279907 .15628052 .6139984 .15628052 .61099246 .15628052 .5970001 .15628052 .59599307 .15228272 .58898928 .12527466 .57699587 .07824707 .55799868 .018234253 .5159912 .018234253 .48999024 .018234253 .48298646 .041229249 .48298646 .06724548 .48298646 .08425903 .4909973 .120269779 .49798585 .14628601 .5049896 .17329407 .5149994 .21430969 .519989 .23632813L.54299929 .32536317C.548996 .3503723 .55999758 .39439393 .55999758 .3993988 .55999758 .41940309 .5439911 .43139649 .5269928 .43139649 .48999024 .43139649 .48298646 .40238954 .47499085 .3703766L.4229889 .16229248Z"/>
<path id="font_13_6" d="M.24598694 .39465333H.34799195C.36698915 .39465333 .37998963 .39465333 .37998963 .4166565 .37998963 .43066407 .36698915 .43066407 .34999085 .43066407H.25498963L.2919922 .57850649C.29299928 .58351138 .29499818 .588501 .29499818 .5924988 .29499818 .6104889 .2809906 .6244812 .26098634 .6244812 .23599243 .6244812 .22099304 .6074829 .21398926 .58151248 .20698548 .5565338 .21998596 .6044922 .17599488 .43066407H.07398987C.054992677 .43066407 .041992189 .43066407 .041992189 .4086609 .041992189 .39465333 .053985597 .39465333 .07199097 .39465333H.16699219L.10798645 .15901184C.101989749 .13404846 .09298706 .098098758 .09298706 .085128787 .09298706 .0262146 .14299011-.009765625 .19999695-.009765625 .31098939-.009765625 .37399293 .13005066 .37399293 .14303589 .37399293 .15602112 .36099244 .15602112 .35798646 .15602112 .34599305 .15602112 .34498597 .15402222 .33699037 .13703919 .30899049 .074142459 .2579956 .018234253 .20298767 .018234253 .18199158 .018234253 .16799927 .031204224 .16799927 .06715393 .16799927 .07713318 .17199707 .098098758 .17399597 .10809326L.24598694 .39465333Z"/>
<path id="font_13_3" d="M.7919922 .23097229C.7979889 .24395752 .7979889 .24797058 .7979889 .2489624 .7979889 .2549591 .7939911 .26296998 .7809906 .26296998 .7789917 .26296998 .7739868 .26296998 .769989 .2589569 .7679901 .256958 .7669983 .2559662 .7549896 .22996521 .6899872 .08598328 .6389923 .035995485 .47599793 .035995485H.30599977C.2749939 .035995485 .27398683 .036987306 .27398683 .04598999 .27398683 .04699707 .27398683 .051986696 .27799989 .066986087L.34498597 .33496095H.45700074C.5359955 .33496095 .5479889 .32196046 .5479889 .2889557 .5479889 .2779541 .54499819 .2609558 .54100039 .24395752 .5379944 .2349701 .5379944 .23396302 .5379944 .23196411 .5379944 .22996521 .5389862 .2179718 .5549927 .2179718 .56900027 .2179718 .56999209 .22296143 .57398989 .23995972L.6289978 .45884706C.6319885 .4708252 .6319885 .4728241 .6319885 .47381593 .6319885 .48381043 .6239929 .48780824 .61499026 .48780824 .60198977 .48780824 .6009979 .4828186 .59498599 .46183778 .57398989 .38394166 .5439911 .37095643 .45899964 .37095643H.35398866L.4139862 .60865786C.42199708 .6396179 .4229889 .64260867 .46499635 .64260867H.6279907C.7589874 .64260867 .7919922 .61564639 .7919922 .52674868 .7919922 .50079348 .7879944 .4708252 .7879944 .46583558 .7879944 .45783998 .79100039 .44885255 .8049927 .44885255 .81999209 .44885255 .82099917 .45783998 .82299807 .474823L.84098818 .64860537C.84399417 .6786041 .83699038 .6786041 .81199648 .6786041H.2619934C.24198914 .6786041 .22999573 .6786041 .22999573 .6566162 .22999573 .64260867 .24099732 .64260867 .2630005 .64260867 .2789917 .64260867 .2829895 .64260867 .30099488 .64060977 .32099916 .63861086 .32299806 .63661196 .32299806 .6266327 .32299806 .61964419 .31999208 .60964968 .31900025 .60466006L.18798828 .08198547C.17799378 .04298401 .1769867 .035995485 .09899902 .035995485 .08099365 .035995485 .068984989 .035995485 .068984989 .01399231 .068984989 0 .08099365 0 .09899902 0H.6639862C.68899539 0 .6899872 0 .69799807 .017990113L.7919922 .23097229Z"/>
</defs>
<g clip-path="url(#clip_8)">
<path transform="matrix(1,0,0,-1,21.385003,87.09302)" stroke-width=".3985" stroke-linecap="butt" stroke-miterlimit="10" stroke-linejoin="miter" fill="none" stroke="#34343c" d="M0 0H24.37833M32.31528 0H56.69362V26.64601M56.69362 58.3944V85.04042L155.90744 85.0404M155.90744 85.0404 255.12128 85.04042M255.12128-85.04042"/>
<path transform="matrix(1,0,0,-1,21.385003,87.09302)" stroke-width=".797" stroke-linecap="butt" stroke-miterlimit="10" stroke-linejoin="miter" fill="none" stroke="#34343c" d="M24.37833 11.90572V-11.90572M32.31528 11.90572V-11.90572"/>
<path transform="matrix(1,0,0,-1,21.385003,87.09302)" d="M1.58714 0C1.58714 .87656 .87656 1.58714 0 1.58714-.87656 1.58714-1.58714 .87656-1.58714 0-1.58714-.87656-.87656-1.58714 0-1.58714 .87656-1.58714 1.58714-.87656 1.58714 0ZM0 0" fill="#ffffff"/>
<path transform="matrix(1,0,0,-1,21.385003,87.09302)" stroke-width=".3985" stroke-linecap="butt" stroke-miterlimit="10" stroke-linejoin="miter" fill="none" stroke="#34343c" d="M1.58714 0C1.58714 .87656 .87656 1.58714 0 1.58714-.87656 1.58714-1.58714 .87656-1.58714 0-1.58714-.87656-.87656-1.58714 0-1.58714 .87656-1.58714 1.58714-.87656 1.58714 0ZM0 0"/>
<path transform="matrix(1,0,0,-1,21.385003,87.09302)" d="" fill="#ffffff"/>
<path transform="matrix(1,0,0,-1,21.385003,87.09302)" stroke-width=".3985" stroke-linecap="butt" stroke-miterlimit="10" stroke-linejoin="miter" fill="none" stroke="#34343c" d=""/>
<use data-text="C" xlink:href="#font_9_2" transform="matrix(9.9626,0,0,-9.9626,43.937005,70.78003)" fill="#34343c"/>
<use data-text="1" xlink:href="#font_10_2" transform="matrix(6.9738,0,0,-6.9738,51.057,72.27405)" fill="#34343c"/>
<path transform="matrix(1,0,0,-1,21.385003,87.09302)" stroke-width=".797" stroke-linecap="butt" stroke-linejoin="bevel" fill="none" stroke="#34343c" d="M56.69362 26.2475 50.74075 29.3249 62.64647 34.68272 50.74075 40.04054 62.64647 45.39836 50.74075 50.75618 62.64647 56.114 56.69362 58.7929"/>
<use data-text="R" xlink:href="#font_9_3" transform="matrix(9.9626,0,0,-9.9626,86.235,46.718019)" fill="#34343c"/>
<use data-text="1" xlink:href="#font_10_2" transform="matrix(6.9738,0,0,-6.9738,93.798999,48.213014)" fill="#34343c"/>
<path transform="matrix(1,0,0,-1,21.385003,87.09302)" d="M256.70845 85.04042C256.70845 85.91698 255.99785 86.62756 255.12128 86.62756 254.24472 86.62756 253.53414 85.91698 253.53414 85.04042 253.53414 84.16386 254.24472 83.45328 255.12128 83.45328 255.99785 83.45328 256.70845 84.16386 256.70845 85.04042ZM255.12128 85.04042" fill="#ffffff"/>
<path transform="matrix(1,0,0,-1,21.385003,87.09302)" stroke-width=".3985" stroke-linecap="butt" stroke-miterlimit="10" stroke-linejoin="miter" fill="none" stroke="#34343c" d="M256.70845 85.04042C256.70845 85.91698 255.99785 86.62756 255.12128 86.62756 254.24472 86.62756 253.53414 85.91698 253.53414 85.04042 253.53414 84.16386 254.24472 83.45328 255.12128 83.45328 255.99785 83.45328 256.70845 84.16386 256.70845 85.04042ZM255.12128 85.04042"/>
<path transform="matrix(1,0,0,-1,21.385003,87.09302)" d="" fill="#ffffff"/>
<path transform="matrix(1,0,0,-1,21.385003,87.09302)" stroke-width=".3985" stroke-linecap="butt" stroke-miterlimit="10" stroke-linejoin="miter" fill="none" stroke="#34343c" d=""/>
<use data-text="+" xlink:href="#font_11_3" transform="matrix(9.9626,0,0,-9.9626,272.629,30.007019)" fill="#34343c"/>
<use data-text="&#x2212;" xlink:href="#font_12_1" transform="matrix(9.9626,0,0,-9.9626,272.629,149.16101)" fill="#34343c"/>
<use data-text="V" xlink:href="#font_9_4" transform="matrix(9.9626,0,0,-9.9626,267.146,89.75)" fill="#34343c"/>
<use data-text="C" xlink:href="#font_13_2" transform="matrix(6.9738,0,0,-6.9738,272.957,91.24402)" fill="#34343c"/>
<use data-text="C" xlink:href="#font_13_2" transform="matrix(6.9738,0,0,-6.9738,279.1567,91.24402)" fill="#34343c"/>
<path transform="matrix(1,0,0,-1,21.385003,87.09302)" stroke-width=".3985" stroke-linecap="butt" stroke-miterlimit="10" stroke-linejoin="miter" fill="none" stroke="#34343c" d="M0-85.04042 28.3468-85.0404M28.3468-85.0404 56.69362-85.04042 85.04042-85.0404M85.04042-85.0404 113.38724-85.04042 141.73404-85.0404M141.73404-85.0404 170.08086-85.04042 198.42766-85.0404M198.42766-85.0404 226.77448-85.04042 240.94788-85.0404M240.94788-85.0404 255.12128-85.04042"/>
<path transform="matrix(1,0,0,-1,21.385003,87.09302)" d="M1.58714-85.04042C1.58714-84.16386 .87656-83.45328 0-83.45328-.87656-83.45328-1.58714-84.16386-1.58714-85.04042-1.58714-85.91698-.87656-86.62756 0-86.62756 .87656-86.62756 1.58714-85.91698 1.58714-85.04042ZM0-85.04042" fill="#ffffff"/>
<path transform="matrix(1,0,0,-1,21.385003,87.09302)" stroke-width=".3985" stroke-linecap="butt" stroke-miterlimit="10" stroke-linejoin="miter" fill="none" stroke="#34343c" d="M1.58714-85.04042C1.58714-84.16386 .87656-83.45328 0-83.45328-.87656-83.45328-1.58714-84.16386-1.58714-85.04042-1.58714-85.91698-.87656-86.62756 0-86.62756 .87656-86.62756 1.58714-85.91698 1.58714-85.04042ZM0-85.04042"/>
<path transform="matrix(1,0,0,-1,21.385003,87.09302)" d="" fill="#ffffff"/>
<path transform="matrix(1,0,0,-1,21.385003,87.09302)" stroke-width=".3985" stroke-linecap="butt" stroke-miterlimit="10" stroke-linejoin="miter" fill="none" stroke="#34343c" d=""/>
<path transform="matrix(1,0,0,-1,21.385003,87.09302)" d="M58.28076-85.04042C58.28076-84.16386 57.57018-83.45328 56.69362-83.45328 55.81705-83.45328 55.10646-84.16386 55.10646-85.04042 55.10646-85.91698 55.81705-86.62756 56.69362-86.62756 57.57018-86.62756 58.28076-85.91698 58.28076-85.04042ZM56.69362-85.04042" fill="#34343c"/>
<path transform="matrix(1,0,0,-1,21.385003,87.09302)" stroke-width=".3985" stroke-linecap="butt" stroke-miterlimit="10" stroke-linejoin="miter" fill="none" stroke="#34343c" d="M58.28076-85.04042C58.28076-84.16386 57.57018-83.45328 56.69362-83.45328 55.81705-83.45328 55.10646-84.16386 55.10646-85.04042 55.10646-85.91698 55.81705-86.62756 56.69362-86.62756 57.57018-86.62756 58.28076-85.91698 58.28076-85.04042ZM56.69362-85.04042"/>
<path transform="matrix(1,0,0,-1,21.385003,87.09302)" d="M114.97438-85.04042C114.97438-84.16386 114.2638-83.45328 113.38724-83.45328 112.51067-83.45328 111.80008-84.16386 111.80008-85.04042 111.80008-85.91698 112.51067-86.62756 113.38724-86.62756 114.2638-86.62756 114.97438-85.91698 114.97438-85.04042ZM113.38724-85.04042" fill="#34343c"/>
<path transform="matrix(1,0,0,-1,21.385003,87.09302)" stroke-width=".3985" stroke-linecap="butt" stroke-miterlimit="10" stroke-linejoin="miter" fill="none" stroke="#34343c" d="M114.97438-85.04042C114.97438-84.16386 114.2638-83.45328 113.38724-83.45328 112.51067-83.45328 111.80008-84.16386 111.80008-85.04042 111.80008-85.91698 112.51067-86.62756 113.38724-86.62756 114.2638-86.62756 114.97438-85.91698 114.97438-85.04042ZM113.38724-85.04042"/>
<path transform="matrix(1,0,0,-1,21.385003,87.09302)" d="M171.668-85.04042C171.668-84.16386 170.95742-83.45328 170.08086-83.45328 169.20429-83.45328 168.4937-84.16386 168.4937-85.04042 168.4937-85.91698 169.20429-86.62756 170.08086-86.62756 170.95742-86.62756 171.668-85.91698 171.668-85.04042ZM170.08086-85.04042" fill="#34343c"/>
<path transform="matrix(1,0,0,-1,21.385003,87.09302)" stroke-width=".3985" stroke-linecap="butt" stroke-miterlimit="10" stroke-linejoin="miter" fill="none" stroke="#34343c" d="M171.668-85.04042C171.668-84.16386 170.95742-83.45328 170.08086-83.45328 169.20429-83.45328 168.4937-84.16386 168.4937-85.04042 168.4937-85.91698 169.20429-86.62756 170.08086-86.62756 170.95742-86.62756 171.668-85.91698 171.668-85.04042ZM170.08086-85.04042"/>
<path transform="matrix(1,0,0,-1,21.385003,87.09302)" d="M228.36162-85.04042C228.36162-84.16386 227.65103-83.45328 226.77448-83.45328 225.8979-83.45328 225.18732-84.16386 225.18732-85.04042 225.18732-85.91698 225.8979-86.62756 226.77448-86.62756 227.65103-86.62756 228.36162-85.91698 228.36162-85.04042ZM226.77448-85.04042" fill="#ffffff"/>
<path transform="matrix(1,0,0,-1,21.385003,87.09302)" stroke-width=".3985" stroke-linecap="butt" stroke-miterlimit="10" stroke-linejoin="miter" fill="none" stroke="#34343c" d="M228.36162-85.04042C228.36162-84.16386 227.65103-83.45328 226.77448-83.45328 225.8979-83.45328 225.18732-84.16386 225.18732-85.04042 225.18732-85.91698 225.8979-86.62756 226.77448-86.62756 227.65103-86.62756 228.36162-85.91698 228.36162-85.04042ZM226.77448-85.04042"/>
<path transform="matrix(1,0,0,-1,21.385003,87.09302)" d="" fill="#ffffff"/>
<path transform="matrix(1,0,0,-1,21.385003,87.09302)" stroke-width=".3985" stroke-linecap="butt" stroke-miterlimit="10" stroke-linejoin="miter" fill="none" stroke="#34343c" d=""/>
<path transform="matrix(1,0,0,-1,21.385003,87.09302)" d="M256.70845-85.04042C256.70845-84.16386 255.99785-83.45328 255.12128-83.45328 254.24472-83.45328 253.53414-84.16386 253.53414-85.04042 253.53414-85.91698 254.24472-86.62756 255.12128-86.62756 255.99785-86.62756 256.70845-85.91698 256.70845-85.04042ZM255.12128-85.04042" fill="#ffffff"/>
<path transform="matrix(1,0,0,-1,21.385003,87.09302)" stroke-width=".3985" stroke-linecap="butt" stroke-miterlimit="10" stroke-linejoin="miter" fill="none" stroke="#34343c" d="M256.70845-85.04042C256.70845-84.16386 255.99785-83.45328 255.12128-83.45328 254.24472-83.45328 253.53414-84.16386 253.53414-85.04042 253.53414-85.91698 254.24472-86.62756 255.12128-86.62756 255.99785-86.62756 256.70845-85.91698 256.70845-85.04042ZM255.12128-85.04042"/>
<path transform="matrix(1,0,0,-1,21.385003,87.09302)" d="" fill="#ffffff"/>
<path transform="matrix(1,0,0,-1,21.385003,87.09302)" stroke-width=".3985" stroke-linecap="butt" stroke-miterlimit="10" stroke-linejoin="miter" fill="none" stroke="#34343c" d=""/>
<path transform="matrix(1,0,0,-1,21.385003,87.09302)" stroke-width=".3985" stroke-linecap="butt" stroke-miterlimit="10" stroke-linejoin="miter" fill="none" stroke="#34343c" d="M170.08086-85.04042V-92.1271M170.08086-92.1271V-99.21382"/>
<path transform="matrix(1,0,0,-1,21.385003,87.09302)" stroke-width=".3985" stroke-linecap="butt" stroke-miterlimit="10" stroke-linejoin="miter" fill="none" stroke="#34343c" d="M170.08086-95.67047V-107.57605"/>
<path transform="matrix(1,0,0,-1,21.385003,87.09302)" stroke-width=".797" stroke-linecap="butt" stroke-miterlimit="10" stroke-linejoin="miter" fill="none" stroke="#34343c" d="M164.128-107.57605H176.0337M166.11238-109.56029H174.04933M167.60053-111.54466H172.56118"/>
<path transform="matrix(1,0,0,-1,21.385003,87.09302)" stroke-width=".3985" stroke-linecap="butt" stroke-miterlimit="10" stroke-linejoin="miter" fill="none" stroke="#34343c" d="M56.69362 0V-26.64601M56.69362-58.3944V-85.04042"/>
<path transform="matrix(1,0,0,-1,21.385003,87.09302)" stroke-width=".797" stroke-linecap="butt" stroke-linejoin="bevel" fill="none" stroke="#34343c" d="M56.69362-26.2475 62.64647-29.3249 50.74075-34.68272 62.64647-40.04054 50.74075-45.39836 62.64647-50.75618 50.74075-56.114 56.69362-58.7929"/>
<use data-text="R" xlink:href="#font_9_3" transform="matrix(9.9626,0,0,-9.9626,57.887,131.758)" fill="#34343c"/>
<use data-text="2" xlink:href="#font_10_3" transform="matrix(6.9738,0,0,-6.9738,65.452,133.25202)" fill="#34343c"/>
<use data-text="+" xlink:href="#font_11_3" transform="matrix(9.9626,0,0,-9.9626,81.452,104.14703)" fill="#34343c"/>
<use data-text="&#x2212;" xlink:href="#font_12_1" transform="matrix(9.9626,0,0,-9.9626,81.452,160.06)" fill="#34343c"/>
<use data-text="V" xlink:href="#font_9_4" transform="matrix(9.9626,0,0,-9.9626,89.993007,132.27002)" fill="#34343c"/>
<use data-text="B" xlink:href="#font_13_1" transform="matrix(6.9738,0,0,-6.9738,95.80401,133.76404)" fill="#34343c"/>
<path transform="matrix(1,0,0,-1,21.385003,87.09302)" stroke-width=".3985" stroke-linecap="butt" stroke-miterlimit="10" stroke-linejoin="miter" fill="none" stroke="#34343c" d="M0-85.04042"/>
<use data-text="+" xlink:href="#font_11_3" transform="matrix(9.9626,0,0,-9.9626,17.511002,102.29004)" fill="#34343c"/>
<use data-text="&#x2212;" xlink:href="#font_12_1" transform="matrix(9.9626,0,0,-9.9626,17.511002,161.91699)" fill="#34343c"/>
<use data-text="V" xlink:href="#font_9_4" transform="matrix(9.9626,0,0,-9.9626,.34600068,132.104)" fill="#34343c"/>
<use data-text="0" xlink:href="#font_10_1" transform="matrix(6.9738,0,0,-6.9738,6.1569979,133.59803)" fill="#34343c"/>
<use data-text="s" xlink:href="#font_11_29" transform="matrix(9.9626,0,0,-9.9626,12.286995,132.104)" fill="#34343c"/>
<use data-text="i" xlink:href="#font_11_24" transform="matrix(9.9626,0,0,-9.9626,16.212258,132.104)" fill="#34343c"/>
<use data-text="n" xlink:href="#font_11_26" transform="matrix(9.9626,0,0,-9.9626,18.981858,132.104)" fill="#34343c"/>
<use data-text="(" xlink:href="#font_11_1" transform="matrix(9.9626,0,0,-9.9626,24.521065,132.104)" fill="#34343c"/>
<use data-text="&#x03c9;" xlink:href="#font_9_1" transform="matrix(9.9626,0,0,-9.9626,28.393998,132.104)" fill="#34343c"/>
<use data-text="t" xlink:href="#font_9_10" transform="matrix(9.9626,0,0,-9.9626,34.95935,132.104)" fill="#34343c"/>
<use data-text=")" xlink:href="#font_11_2" transform="matrix(9.9626,0,0,-9.9626,38.550004,132.104)" fill="#34343c"/>
<path transform="matrix(1,0,0,-1,21.385003,87.09302)" stroke-width=".3985" stroke-linecap="butt" stroke-miterlimit="10" stroke-linejoin="miter" fill="none" stroke="#34343c" d="M113.38724-21.82706"/>
<path transform="matrix(1,0,0,-1,21.385003,87.09302)" stroke-width=".3985" stroke-linecap="butt" stroke-miterlimit="10" stroke-linejoin="miter" fill="none" stroke="#34343c" d="M113.38724 22.0263V8.73067L101.4815 3.27391"/>
<path transform="matrix(1,0,0,-1,21.385003,87.09302)" stroke-width=".797" stroke-linecap="butt" stroke-miterlimit="10" stroke-linejoin="miter" fill="none" stroke="#34343c" d="M101.4815 8.73067V-8.73067"/>
<path transform="matrix(1,0,0,-1,21.385003,87.09302)" stroke-width=".3985" stroke-linecap="butt" stroke-miterlimit="10" stroke-linejoin="miter" fill="none" stroke="#34343c" d="M101.4815-3.27391 113.38724-8.73067V-22.0263"/>
<path transform="matrix(1,0,0,-1,21.385003,87.09302)" d="M105.67497-5.19592 106.62773-3.11714 110.32043-7.32503 104.72223-7.2747Z" fill="#34343c"/>
<path transform="matrix(1,0,0,-1,21.385003,87.09302)" stroke-width=".3985" stroke-linecap="butt" stroke-miterlimit="10" stroke-linejoin="miter" fill="none" stroke="#34343c" d="M101.4815 0H89.37653"/>
<use data-text="B" xlink:href="#font_11_16" transform="matrix(9.9626,0,0,-9.9626,112.413,97.42102)" fill="#34343c"/>
<use data-text="C" xlink:href="#font_11_17" transform="matrix(9.9626,0,0,-9.9626,126.192,72.60504)" fill="#34343c"/>
<use data-text="E" xlink:href="#font_11_18" transform="matrix(9.9626,0,0,-9.9626,126.399,109.38501)" fill="#34343c"/>
<path transform="matrix(1,0,0,-1,21.385003,87.09302)" stroke-width=".3985" stroke-linecap="butt" stroke-miterlimit="10" stroke-linejoin="miter" fill="none" stroke="#34343c" d="M56.69362 0H73.70164M73.70164 0H90.7097"/>
<path transform="matrix(1,0,0,-1,21.385003,87.09302)" d="M71.96542 0V-1.98425L76.18198 0 71.96542 1.98425Z" fill="#34343c"/>
<path transform="matrix(1,0,0,-1,21.385003,87.09302)" stroke-width=".3985" stroke-linecap="butt" stroke-miterlimit="10" stroke-linejoin="miter" fill="none" stroke="#34343c" d="M71.96542 0V-1.98425L76.18198 0 71.96542 1.98425Z"/>
<use data-text="i" xlink:href="#font_9_5" transform="matrix(9.9626,0,0,-9.9626,89.941,82.07904)" fill="#34343c"/>
<use data-text="B" xlink:href="#font_13_1" transform="matrix(6.9738,0,0,-6.9738,93.37301,83.574039)" fill="#34343c"/>
<path transform="matrix(1,0,0,-1,21.385003,87.09302)" stroke-width=".3985" stroke-linecap="butt" stroke-miterlimit="10" stroke-linejoin="miter" fill="none" stroke="#34343c" d="M113.38724 85.04042V69.73315M113.38724 37.98477V22.67752H170.08086M170.08086 22.67752H226.77448M226.77448-85.04042"/>
<path transform="matrix(1,0,0,-1,21.385003,87.09302)" stroke-width=".797" stroke-linecap="butt" stroke-linejoin="bevel" fill="none" stroke="#34343c" d="M113.38724 70.13165 119.34009 67.05424 107.43439 61.69643 119.34009 56.33862 107.43439 50.9808 119.34009 45.62299 107.43439 40.26517 113.38724 37.58626"/>
<path transform="matrix(1,0,0,-1,21.385003,87.09302)" d="M114.97438 85.04042C114.97438 85.91698 114.2638 86.62756 113.38724 86.62756 112.51067 86.62756 111.80008 85.91698 111.80008 85.04042 111.80008 84.16386 112.51067 83.45328 113.38724 83.45328 114.2638 83.45328 114.97438 84.16386 114.97438 85.04042ZM113.38724 85.04042" fill="#34343c"/>
<path transform="matrix(1,0,0,-1,21.385003,87.09302)" stroke-width=".3985" stroke-linecap="butt" stroke-miterlimit="10" stroke-linejoin="miter" fill="none" stroke="#34343c" d="M114.97438 85.04042C114.97438 85.91698 114.2638 86.62756 113.38724 86.62756 112.51067 86.62756 111.80008 85.91698 111.80008 85.04042 111.80008 84.16386 112.51067 83.45328 113.38724 83.45328 114.2638 83.45328 114.97438 84.16386 114.97438 85.04042ZM113.38724 85.04042"/>
<path transform="matrix(1,0,0,-1,21.385003,87.09302)" d="M114.97438 22.67752C114.97438 23.55408 114.2638 24.26466 113.38724 24.26466 112.51067 24.26466 111.80008 23.55408 111.80008 22.67752 111.80008 21.80095 112.51067 21.09036 113.38724 21.09036 114.2638 21.09036 114.97438 21.80095 114.97438 22.67752ZM113.38724 22.67752" fill="#34343c"/>
<path transform="matrix(1,0,0,-1,21.385003,87.09302)" stroke-width=".3985" stroke-linecap="butt" stroke-miterlimit="10" stroke-linejoin="miter" fill="none" stroke="#34343c" d="M114.97438 22.67752C114.97438 23.55408 114.2638 24.26466 113.38724 24.26466 112.51067 24.26466 111.80008 23.55408 111.80008 22.67752 111.80008 21.80095 112.51067 21.09036 113.38724 21.09036 114.2638 21.09036 114.97438 21.80095 114.97438 22.67752ZM113.38724 22.67752"/>
<use data-text="R" xlink:href="#font_9_3" transform="matrix(9.9626,0,0,-9.9626,113.086,35.380006)" fill="#34343c"/>
<use data-text="L" xlink:href="#font_13_4" transform="matrix(6.9738,0,0,-6.9738,120.649997,36.874025)" fill="#34343c"/>
<path transform="matrix(1,0,0,-1,21.385003,87.09302)" d="M113.38724 32.06735H111.40298L113.38724 27.85081 115.37149 32.06735Z" fill="#34343c"/>
<path transform="matrix(1,0,0,-1,21.385003,87.09302)" stroke-width=".3985" stroke-linecap="butt" stroke-miterlimit="10" stroke-linejoin="miter" fill="none" stroke="#34343c" d="M113.38724 32.06735H111.40298L113.38724 27.85081 115.37149 32.06735Z"/>
<use data-text="i" xlink:href="#font_9_5" transform="matrix(9.9626,0,0,-9.9626,138.291,59.301027)" fill="#34343c"/>
<use data-text="C" xlink:href="#font_13_2" transform="matrix(6.9738,0,0,-6.9738,141.723,60.795045)" fill="#34343c"/>
<path transform="matrix(1,0,0,-1,21.385003,87.09302)" d="M228.36162 22.67752C228.36162 23.55408 227.65103 24.26466 226.77448 24.26466 225.8979 24.26466 225.18732 23.55408 225.18732 22.67752 225.18732 21.80095 225.8979 21.09036 226.77448 21.09036 227.65103 21.09036 228.36162 21.80095 228.36162 22.67752ZM226.77448 22.67752" fill="#ffffff"/>
<path transform="matrix(1,0,0,-1,21.385003,87.09302)" stroke-width=".3985" stroke-linecap="butt" stroke-miterlimit="10" stroke-linejoin="miter" fill="none" stroke="#34343c" d="M228.36162 22.67752C228.36162 23.55408 227.65103 24.26466 226.77448 24.26466 225.8979 24.26466 225.18732 23.55408 225.18732 22.67752 225.18732 21.80095 225.8979 21.09036 226.77448 21.09036 227.65103 21.09036 228.36162 21.80095 228.36162 22.67752ZM226.77448 22.67752"/>
<path transform="matrix(1,0,0,-1,21.385003,87.09302)" d="" fill="#ffffff"/>
<path transform="matrix(1,0,0,-1,21.385003,87.09302)" stroke-width=".3985" stroke-linecap="butt" stroke-miterlimit="10" stroke-linejoin="miter" fill="none" stroke="#34343c" d=""/>
<use data-text="+" xlink:href="#font_11_3" transform="matrix(9.9626,0,0,-9.9626,244.28202,83.015018)" fill="#34343c"/>
<use data-text="&#x2212;" xlink:href="#font_12_1" transform="matrix(9.9626,0,0,-9.9626,244.28202,158.51502)" fill="#34343c"/>
<use data-text="V" xlink:href="#font_9_4" transform="matrix(9.9626,0,0,-9.9626,239.176,120.93103)" fill="#34343c"/>
<use data-text="o" xlink:href="#font_13_5" transform="matrix(6.9738,0,0,-6.9738,244.987,122.42505)" fill="#34343c"/>
<use data-text="u" xlink:href="#font_13_7" transform="matrix(6.9738,0,0,-6.9738,248.92023,122.42505)" fill="#34343c"/>
<use data-text="t" xlink:href="#font_13_6" transform="matrix(6.9738,0,0,-6.9738,253.62754,122.42505)" fill="#34343c"/>
<path transform="matrix(1,0,0,-1,21.385003,87.09302)" stroke-width=".3985" stroke-linecap="butt" stroke-miterlimit="10" stroke-linejoin="miter" fill="none" stroke="#34343c" d="M113.38724-21.2601V-31.89014M113.38724-31.89014V-42.5202-47.90611M113.38724-79.6545V-85.04042"/>
<path transform="matrix(1,0,0,-1,21.385003,87.09302)" d="M113.38724-30.15392H111.40298L113.38724-34.37047 115.37149-30.15392Z" fill="#34343c"/>
<path transform="matrix(1,0,0,-1,21.385003,87.09302)" stroke-width=".3985" stroke-linecap="butt" stroke-miterlimit="10" stroke-linejoin="miter" fill="none" stroke="#34343c" d="M113.38724-30.15392H111.40298L113.38724-34.37047 115.37149-30.15392Z"/>
<use data-text="i" xlink:href="#font_9_5" transform="matrix(9.9626,0,0,-9.9626,138.291,121.520999)" fill="#34343c"/>
<use data-text="E" xlink:href="#font_13_3" transform="matrix(6.9738,0,0,-6.9738,141.723,123.015018)" fill="#34343c"/>
<path transform="matrix(1,0,0,-1,21.385003,87.09302)" stroke-width=".797" stroke-linecap="butt" stroke-linejoin="bevel" fill="none" stroke="#34343c" d="M113.38724-47.5076 119.34009-50.58502 107.43439-55.94283 119.34009-61.30064 107.43439-66.65846 119.34009-72.01628 107.43439-77.3741 113.38724-80.05301"/>
<use data-text="R" xlink:href="#font_9_3" transform="matrix(9.9626,0,0,-9.9626,112.319,153.01703)" fill="#34343c"/>
<use data-text="E" xlink:href="#font_13_3" transform="matrix(6.9738,0,0,-6.9738,119.884,154.51203)" fill="#34343c"/>
<use data-text="+" xlink:href="#font_11_3" transform="matrix(9.9626,0,0,-9.9626,138.145,136.03699)" fill="#34343c"/>
<use data-text="&#x2212;" xlink:href="#font_12_1" transform="matrix(9.9626,0,0,-9.9626,138.145,170.69)" fill="#34343c"/>
<use data-text="V" xlink:href="#font_9_4" transform="matrix(9.9626,0,0,-9.9626,146.686,153.52899)" fill="#34343c"/>
<use data-text="E" xlink:href="#font_13_3" transform="matrix(6.9738,0,0,-6.9738,152.49701,155.02399)" fill="#34343c"/>
<path transform="matrix(1,0,0,-1,21.385003,87.09302)" stroke-width=".3985" stroke-linecap="butt" stroke-miterlimit="10" stroke-linejoin="miter" fill="none" stroke="#34343c" d="M113.38724-42.5202H141.73404M141.73404-42.5202H170.08086V-59.81183M170.08086-67.74878V-85.04042"/>
<path transform="matrix(1,0,0,-1,21.385003,87.09302)" stroke-width=".797" stroke-linecap="butt" stroke-miterlimit="10" stroke-linejoin="miter" fill="none" stroke="#34343c" d="M181.98657-59.81183H158.17514M181.98657-67.74878H158.17514"/>
<use data-text="C" xlink:href="#font_9_2" transform="matrix(9.9626,0,0,-9.9626,165.169,153.01703)" fill="#34343c"/>
<use data-text="2" xlink:href="#font_10_3" transform="matrix(6.9738,0,0,-6.9738,172.29001,154.51203)" fill="#34343c"/>
<path transform="matrix(1,0,0,-1,21.385003,87.09302)" stroke-width=".3985" stroke-linecap="butt" stroke-miterlimit="10" stroke-linejoin="miter" fill="none" stroke="#34343c" d="M124.72578-22.67752"/>
<use data-text="+" xlink:href="#font_11_3" transform="matrix(9.9626,0,0,-9.9626,142.235,73.660037)" fill="#34343c"/>
<use data-text="&#x2212;" xlink:href="#font_12_1" transform="matrix(9.9626,0,0,-9.9626,142.235,105.50702)" fill="#34343c"/>
<use data-text="V" xlink:href="#font_9_4" transform="matrix(9.9626,0,0,-9.9626,136.737,89.75)" fill="#34343c"/>
<use data-text="C" xlink:href="#font_13_2" transform="matrix(6.9738,0,0,-6.9738,142.549,91.24402)" fill="#34343c"/>
<use data-text="E" xlink:href="#font_13_3" transform="matrix(6.9738,0,0,-6.9738,148.7487,91.24402)" fill="#34343c"/>
</g>
</svg>
