<svg xmlns="http://www.w3.org/2000/svg" xmlns:xlink="http://www.w3.org/1999/xlink" version="1.1" width="345pt" height="263pt" viewBox="0 0 345 263">
<defs>
<clipPath id="clip_0">
<path transform="matrix(1,0,0,-1,-89,772)" d="M0 0H595.276V841.89H0Z"/>
</clipPath>
<path id="font_1_6" d="M.60398867 .55810549C.6100006 .57110598 .61099246 .5731201 .61099246 .578125 .61099246 .5891113 .60198977 .598114 .59098818 .598114 .58099368 .598114 .57499697 .5911102 .56799319 .57611086L.33299256 .046585084 .09799194 .5771179C.08999634 .5961151 .08198547 .598114 .07499695 .598114 .06399536 .598114 .054992677 .5891113 .054992677 .578125 .054992677 .57611086 .054992677 .57411196 .06098938 .5621033L.30999757-.0014648438C.31799317-.018463135 .32398988-.022460938 .33299256-.022460938 .34599305-.022460938 .34899903-.015472412 .35499574-.0014648438L.60398867 .55810549Z"/>
<path id="font_1_3" d="M.61099246 .32040406C.61099246 .35339356 .60798647 .35639955 .57598879 .35639955H.08999634C.07299805 .35639955 .054992677 .35639955 .054992677 .33639527 .054992677 .31640626 .07299805 .31640626 .08999634 .31640626H.57099917V.12489319C.57099917 .1068573 .57099917 .08886719 .59098818 .08886719 .61099246 .08886719 .61099246 .1068573 .61099246 .12489319V.32040406Z"/>
<path id="font_1_2" d="M.83399966 .23046875C.7789917 .1884613 .7519989 .14746094 .74398806 .13446045 .69898989 .065460208 .69099429 .002456665 .69099429 .0014648438 .69099429-.010543823 .7029877-.010543823 .71099856-.010543823 .7279968-.010543823 .72898867-.008544922 .73298647 .009460449 .7559967 .10746765 .8149872 .19146729 .9279938 .23745728 .9399872 .24145508 .94299319 .24345398 .94299319 .25045777 .94299319 .25746156 .93699648 .26046754 .93499758 .26145936 .8909912 .27845765 .769989 .3284607 .7319946 .49645997 .72898867 .5084686 .7279968 .51145938 .71099856 .51145938 .7029877 .51145938 .69099429 .51145938 .69099429 .49946595 .69099429 .49746705 .69999697 .4344635 .74198916 .36746217 .7619934 .33746339 .79100039 .30245973 .83399966 .27046205H.09098816C.07299805 .27046205 .054992677 .27046205 .054992677 .25045777 .054992677 .23046875 .07299805 .23046875 .09098816 .23046875H.83399966Z"/>
<path id="font_1_5" d="M.35598756 .5771179C.34799195 .5941162 .34199525 .598114 .33299256 .598114 .31999208 .598114 .31698609 .5911102 .31098939 .5771179L.06199646 .017547608C.055999757 .0045318605 .054992677 .002532959 .054992677-.0024719239 .054992677-.013473511 .06399536-.022460938 .07499695-.022460938 .08198547-.022460938 .08999634-.020462037 .09799194-.0014648438L.33299256 .529068 .56799319-.0014648438C.57699587-.022460938 .58699038-.022460938 .59098818-.022460938 .60198977-.022460938 .61099246-.013473511 .61099246-.0024719239 .61099246-.00047302247 .61099246 .0015411377 .6049957 .013549805L.35598756 .5771179Z"/>
<path id="font_2_8" d="M.08799744 .059265138C.084991458 .044265748 .07899475 .021255494 .07899475 .01625061 .07899475-.0017547608 .09298706-.0107421879 .10798645-.0107421879 .11999512-.0107421879 .13798523-.002746582 .14498902 .01725769 .14698792 .021255494 .18099976 .15730286 .18499756 .17530823 .19299317 .20831299 .21099854 .27833558 .21699524 .30534364 .22099304 .31835938 .24899292 .36535646 .272995 .38734437 .2809906 .39434815 .30999757 .42037965 .35299684 .42037965 .3789978 .42037965 .3939972 .4083557 .394989 .4083557 .36499024 .40335084 .34298707 .37934876 .34298707 .35334779 .34298707 .33735658 .35398866 .31835938 .3809967 .31835938 .4079895 .31835938 .43598939 .34135438 .43598939 .37734986 .43598939 .41235353 .4039917 .4423828 .35299684 .4423828 .28799439 .4423828 .24398804 .39335633 .22499085 .36535646 .21699524 .4103546 .18099976 .4423828 .13398743 .4423828 .08799744 .4423828 .068984989 .40335084 .05999756 .38534547 .041992189 .35134889 .0289917 .29133607 .0289917 .28834535 .0289917 .27833558 .038986207 .27833558 .040985109 .27833558 .050994874 .27833558 .051986696 .27934266 .057998659 .30134584 .07499695 .37234498 .09498596 .42037965 .1309967 .42037965 .147995 .42037965 .1619873 .41235353 .1619873 .37435914 .1619873 .35334779 .15899658 .3423462 .1459961 .29034425L.08799744 .059265138Z"/>
<path id="font_2_9" d="M.3909912 .37405396C.36299134 .37304688 .34298707 .3510437 .34298707 .32904054 .34298707 .31503297 .35198976 .30003358 .37399293 .30003358 .3959961 .30003358 .41999818 .31703187 .41999818 .35603334 .41999818 .40124513 .3769989 .4423828 .30099488 .4423828 .16899109 .4423828 .13198853 .3400421 .13198853 .29605104 .13198853 .21820069 .20599365 .20323181 .23498535 .19725037 .2869873 .18727112 .33898927 .17628479 .33898927 .12133789 .33898927 .095336917 .31599427 .011245728 .19599915 .011245728 .18199158 .011245728 .10499573 .011245728 .08198547 .064331058 .11999512 .059326173 .14498902 .08934021 .14498902 .11734009 .14498902 .14033509 .1289978 .15234375 .10798645 .15234375 .08198547 .15234375 .051986696 .1313324 .051986696 .08633423 .051986696 .029281617 .10899353-.0107421879 .19499207-.0107421879 .35699464-.0107421879 .3959961 .1103363 .3959961 .15533448 .3959961 .19125366 .3769989 .21620178 .36499024 .22817993 .33799745 .25613404 .30899049 .26112367 .2649994 .27009584 .22898865 .27807618 .18899536 .2850647 .18899536 .33003236 .18899536 .3590393 .21299744 .42037965 .30099488 .42037965 .32598878 .42037965 .37599183 .41333009 .3909912 .37405396Z"/>
<path id="font_2_6" d="M.04499817-.122177127C.036987306-.15631104 .034988405-.16334534-.009002686-.16334534-.021011353-.16334534-.03201294-.16334534-.03201294-.18234253-.03201294-.19033814-.027008057-.19433594-.019012452-.19433594 .0079956059-.19433594 .036987306-.19134522 .06498718-.19134522 .09799194-.19134522 .13198853-.19433594 .1639862-.19433594 .16899109-.19433594 .18199158-.19433594 .18199158-.17434693 .18199158-.16334534 .17199707-.16334534 .1579895-.16334534 .10798645-.16334534 .10798645-.15631104 .10798645-.14727783 .10798645-.13523865 .1499939 .028259278 .15699768 .053268434 .16999817 .024261475 .19799805-.0107421879 .24899292-.0107421879 .36499024-.0107421879 .48999024 .13528443 .48999024 .28233338 .48999024 .37635804 .43299867 .4423828 .35699464 .4423828 .30699159 .4423828 .25898744 .40637208 .22599793 .36735536 .21598816 .42137147 .17298889 .4423828 .13598633 .4423828 .08999634 .4423828 .070999149 .4033661 .06199646 .38536073 .04399109 .35134889 .0309906 .29133607 .0309906 .28833009 .0309906 .27833558 .040985109 .27833558 .042999269 .27833558 .052993776 .27833558 .053985597 .2793274 .05999756 .30133058 .07699585 .37236024 .09700012 .42037965 .1329956 .42037965 .1499939 .42037965 .1639862 .41236878 .1639862 .37435914 .1639862 .35134889 .16099549 .3403473 .15699768 .323349L.04499817-.122177127M.22099304 .3123474C.22799683 .33935548 .25498963 .36735536 .272995 .38235475 .30799867 .41337586 .33699037 .42037965 .35398866 .42037965 .3939972 .42037965 .41799928 .38536073 .41799928 .32633973 .41799928 .26733399 .3849945 .15229798 .36698915 .11428833 .33299256 .044265748 .2849884 .011245728 .24798584 .011245728 .18199158 .011245728 .16899109 .0942688 .16899109 .10028076 .16899109 .10227966 .16899109 .104278568 .17199707 .11628723L.22099304 .3123474Z"/>
<path id="font_2_7" d="M.45199586 .43138124C.45199586 .43537904 .44898988 .44137574 .44198609 .44137574 .43099977 .44137574 .3909912 .4013672 .37399293 .37236024 .35198976 .42637635 .31298829 .4423828 .2809906 .4423828 .16299439 .4423828 .039993287 .29434205 .039993287 .14929199 .039993287 .05126953 .09899902-.0107421879 .17199707-.0107421879 .21499634-.0107421879 .2539978 .013244629 .2899933 .04925537 .2809906 .014251709 .24798584-.1211853 .24499512-.1302185 .23699951-.1583252 .22898865-.16233826 .17298889-.16334534 .1599884-.16334534 .1499939-.16334534 .1499939-.18334961 .1499939-.18434143 .1499939-.19433594 .16299439-.19433594 .19499207-.19433594 .22999573-.19134522 .2630005-.19134522 .29699708-.19134522 .33299256-.19433594 .3659973-.19433594 .37098695-.19433594 .38398744-.19433594 .38398744-.17434693 .38398744-.16334534 .37399293-.16334534 .35798646-.16334534 .30999757-.16334534 .30999757-.15631104 .30999757-.14727783 .30999757-.14025879 .31199647-.13423157 .31399537-.12519837L.45199586 .43138124M.1749878 .011245728C.114990238 .011245728 .11099243 .088272098 .11099243 .105285648 .11099243 .1532898 .13999939 .2623291 .15699768 .30433656 .18798828 .37835694 .23999024 .42037965 .2809906 .42037965 .34599305 .42037965 .3600006 .33935548 .3600006 .33235169 .3600006 .32633973 .30499269 .107284549 .3019867 .103271488 .2869873 .07527161 .23098755 .011245728 .1749878 .011245728Z"/>
</defs>
<g clip-path="url(#clip_0)">
<path transform="matrix(1,0,0,-1,90.13901,12.229996)" stroke-width=".3985" stroke-linecap="butt" stroke-miterlimit="10" stroke-linejoin="miter" fill="none" stroke="#afb0b1" d="M8.99567 2.76744C8.99567 7.73567 4.96823 11.76312 0 11.76312-4.96823 11.76312-8.99567 7.73567-8.99567 2.76744-8.99567-2.20079-4.96823-6.22823 0-6.22823 4.96823-6.22823 8.99567-2.20079 8.99567 2.76744ZM0 2.76744"/>
<use data-text="&#x2228;" xlink:href="#font_1_6" transform="matrix(9.9626,0,0,-9.9626,86.81801,12.22998)" fill="#afb0b1"/>
<path transform="matrix(1,0,0,-1,148.445,47.098985)" stroke-width=".3985" stroke-linecap="butt" stroke-miterlimit="10" stroke-linejoin="miter" fill="none" stroke="#afb0b1" d="M8.58679 2.14474C8.58679 6.88716 4.7424 10.73155 0 10.73155-4.7424 10.73155-8.58679 6.88716-8.58679 2.14474-8.58679-2.59764-4.7424-6.44205 0-6.44205 4.7424-6.44205 8.58679-2.59764 8.58679 2.14474ZM0 2.14474"/>
<use data-text="&#x00ac;" xlink:href="#font_1_3" transform="matrix(9.9626,0,0,-9.9626,145.12401,47.099)" fill="#afb0b1"/>
<path transform="matrix(1,0,0,-1,148.445,81.96799)" stroke-width=".3985" stroke-linecap="butt" stroke-miterlimit="10" stroke-linejoin="miter" fill="none" stroke="#afb0b1" d="M9.74896 1.82753C9.74896 7.21179 5.38426 11.57649 0 11.57649-5.38426 11.57649-9.74896 7.21179-9.74896 1.82753-9.74896-3.55672-5.38426-7.92142 0-7.92142 5.38426-7.92142 9.74896-3.55672 9.74896 1.82753ZM0 1.82753"/>
<use data-text="&#x2192;" xlink:href="#font_1_2" transform="matrix(9.9626,0,0,-9.9626,143.464,81.96802)" fill="#afb0b1"/>
<path transform="matrix(1,0,0,-1,194.13,116.838)" stroke-width=".3985" stroke-linecap="butt" stroke-miterlimit="10" stroke-linejoin="miter" fill="none" stroke="#afb0b1" d="M8.99567 2.76744C8.99567 7.73567 4.96823 11.76312 0 11.76312-4.96823 11.76312-8.99567 7.73567-8.99567 2.76744-8.99567-2.20079-4.96823-6.22823 0-6.22823 4.96823-6.22823 8.99567-2.20079 8.99567 2.76744ZM0 2.76744"/>
<use data-text="&#x2228;" xlink:href="#font_1_6" transform="matrix(9.9626,0,0,-9.9626,190.81,116.83801)" fill="#afb0b1"/>
<path transform="matrix(1,0,0,-1,237.959,151.707)" stroke-width=".3985" stroke-linecap="butt" stroke-miterlimit="10" stroke-linejoin="miter" fill="none" stroke="#afb0b1" d="M8.99567 2.76744C8.99567 7.73567 4.96823 11.76312 0 11.76312-4.96823 11.76312-8.99567 7.73567-8.99567 2.76744-8.99567-2.20079-4.96823-6.22823 0-6.22823 4.96823-6.22823 8.99567-2.20079 8.99567 2.76744ZM0 2.76744"/>
<use data-text="&#x2227;" xlink:href="#font_1_5" transform="matrix(9.9626,0,0,-9.9626,234.638,151.70697)" fill="#afb0b1"/>
<path transform="matrix(1,0,0,-1,278.847,186.57599)" stroke-width=".3985" stroke-linecap="butt" stroke-miterlimit="10" stroke-linejoin="miter" fill="none" stroke="#afb0b1" d="M9.74896 1.82753C9.74896 7.21179 5.38426 11.57649 0 11.57649-5.38426 11.57649-9.74896 7.21179-9.74896 1.82753-9.74896-3.55672-5.38426-7.92142 0-7.92142 5.38426-7.92142 9.74896-3.55672 9.74896 1.82753ZM0 1.82753"/>
<use data-text="&#x2192;" xlink:href="#font_1_2" transform="matrix(9.9626,0,0,-9.9626,273.866,186.57599)" fill="#afb0b1"/>
<path transform="matrix(1,0,0,-1,313.772,221.44599)" stroke-width=".3985" stroke-linecap="butt" stroke-miterlimit="10" stroke-linejoin="miter" fill="none" stroke="#afb0b1" d="M8.99567 2.76744C8.99567 7.73567 4.96823 11.76312 0 11.76312-4.96823 11.76312-8.99567 7.73567-8.99567 2.76744-8.99567-2.20079-4.96823-6.22823 0-6.22823 4.96823-6.22823 8.99567-2.20079 8.99567 2.76744ZM0 2.76744"/>
<use data-text="&#x2228;" xlink:href="#font_1_6" transform="matrix(9.9626,0,0,-9.9626,310.451,221.44599)" fill="#afb0b1"/>
<path transform="matrix(1,0,0,-1,336.797,256.315)" stroke-width=".3985" stroke-linecap="butt" stroke-miterlimit="10" stroke-linejoin="miter" fill="none" stroke="#afb0b1" d="M7.89627 2.14474C7.89627 6.50578 4.36102 10.04102 0 10.04102-4.36102 10.04102-7.89627 6.50578-7.89627 2.14474-7.89627-2.21628-4.36102-5.75151 0-5.75151 4.36102-5.75151 7.89627-2.21628 7.89627 2.14474ZM0 2.14474"/>
<use data-text="r" xlink:href="#font_2_8" transform="matrix(9.9626,0,0,-9.9626,334.411,256.315)" fill="#afb0b1"/>
<path transform="matrix(1,0,0,-1,290.7462,256.31578)" stroke-width=".3985" stroke-linecap="butt" stroke-miterlimit="10" stroke-linejoin="miter" fill="none" stroke="#afb0b1" d="M7.86853 2.14474C7.86853 6.49048 4.34572 10.01329 0 10.01329-4.34572 10.01329-7.86853 6.49048-7.86853 2.14474-7.86853-2.20096-4.34572-5.72379 0-5.72379 4.34572-5.72379 7.86853-2.20096 7.86853 2.14474ZM0 2.14474"/>
<use data-text="s" xlink:href="#font_2_9" transform="matrix(9.9626,0,0,-9.9626,288.4112,256.31575)" fill="#afb0b1"/>
<path transform="matrix(1,0,0,-1,313.772,221.44599)" stroke-width=".3985" stroke-linecap="butt" stroke-miterlimit="10" stroke-linejoin="miter" fill="none" stroke="#afb0b1" d="M-5.0042-4.94615-18.63493-25.95692"/>
<path transform="matrix(1,0,0,-1,313.772,221.44599)" stroke-width=".3985" stroke-linecap="butt" stroke-miterlimit="10" stroke-linejoin="miter" fill="none" stroke="#afb0b1" d="M5.0042-4.94615 18.61984-25.93365"/>
<path transform="matrix(1,0,0,-1,243.92197,221.4466)" stroke-width=".3985" stroke-linecap="butt" stroke-miterlimit="10" stroke-linejoin="miter" fill="none" stroke="#afb0b1" d="M8.66876 1.17615C8.66876 5.96384 4.78767 9.84492 0 9.84492-4.78767 9.84492-8.66876 5.96384-8.66876 1.17615-8.66876-3.61151-4.78767-7.4926 0-7.4926 4.78767-7.4926 8.66876-3.61151 8.66876 1.17615ZM0 1.17615"/>
<use data-text="p" xlink:href="#font_2_6" transform="matrix(9.9626,0,0,-9.9626,241.41597,221.4466)" fill="#afb0b1"/>
<path transform="matrix(1,0,0,-1,278.847,186.57599)" stroke-width=".3985" stroke-linecap="butt" stroke-miterlimit="10" stroke-linejoin="miter" fill="none" stroke="#afb0b1" d="M-6.97418-5.26581-28.70807-27.37042"/>
<path transform="matrix(1,0,0,-1,278.847,186.57599)" stroke-width=".3985" stroke-linecap="butt" stroke-miterlimit="10" stroke-linejoin="miter" fill="none" stroke="#afb0b1" d="M7.13509-5.10414 28.33018-25.69533"/>
<path transform="matrix(1,0,0,-1,197.07048,186.57649)" stroke-width=".3985" stroke-linecap="butt" stroke-miterlimit="10" stroke-linejoin="miter" fill="none" stroke="#afb0b1" d="M7.89627 2.14474C7.89627 6.50578 4.36102 10.04102 0 10.04102-4.36102 10.04102-7.89627 6.50578-7.89627 2.14474-7.89627-2.21628-4.36102-5.75151 0-5.75151 4.36102-5.75151 7.89627-2.21628 7.89627 2.14474ZM0 2.14474"/>
<use data-text="r" xlink:href="#font_2_8" transform="matrix(9.9626,0,0,-9.9626,194.68549,186.57648)" fill="#afb0b1"/>
<path transform="matrix(1,0,0,-1,237.959,151.707)" stroke-width=".3985" stroke-linecap="butt" stroke-miterlimit="10" stroke-linejoin="miter" fill="none" stroke="#afb0b1" d="M-6.9436-3.25998-34.77505-27.41821"/>
<path transform="matrix(1,0,0,-1,237.959,151.707)" stroke-width=".3985" stroke-linecap="butt" stroke-miterlimit="10" stroke-linejoin="miter" fill="none" stroke="#afb0b1" d="M6.91695-3.29028 33.40497-26.48802"/>
<path transform="matrix(1,0,0,-1,150.30194,151.7081)" stroke-width=".3985" stroke-linecap="butt" stroke-miterlimit="10" stroke-linejoin="miter" fill="none" stroke="#afb0b1" d="M8.58679 2.14474C8.58679 6.88716 4.7424 10.73155 0 10.73155-4.7424 10.73155-8.58679 6.88716-8.58679 2.14474-8.58679-2.59764-4.7424-6.44205 0-6.44205 4.7424-6.44205 8.58679-2.59764 8.58679 2.14474ZM0 2.14474"/>
<use data-text="&#x00ac;" xlink:href="#font_1_3" transform="matrix(9.9626,0,0,-9.9626,146.98094,151.70807)" fill="#afb0b1"/>
<path transform="matrix(1,0,0,-1,150.30194,186.5771)" stroke-width=".3985" stroke-linecap="butt" stroke-miterlimit="10" stroke-linejoin="miter" fill="none" stroke="#afb0b1" d="M8.57854 1.17615C8.57854 5.914 4.73784 9.75468 0 9.75468-4.73784 9.75468-8.57854 5.914-8.57854 1.17615-8.57854-3.56168-4.73784-7.40237 0-7.40237 4.73784-7.40237 8.57854-3.56168 8.57854 1.17615ZM0 1.17615"/>
<use data-text="q" xlink:href="#font_2_7" transform="matrix(9.9626,0,0,-9.9626,147.89894,186.57709)" fill="#afb0b1"/>
<path transform="matrix(1,0,0,-1,150.30194,151.7081)" stroke-width=".3985" stroke-linecap="butt" stroke-miterlimit="10" stroke-linejoin="miter" fill="none" stroke="#afb0b1" d="M0-6.6413V-24.91577"/>
<path transform="matrix(1,0,0,-1,194.13,116.838)" stroke-width=".3985" stroke-linecap="butt" stroke-miterlimit="10" stroke-linejoin="miter" fill="none" stroke="#afb0b1" d="M-7.14563-3.01907-37.00127-27.19589"/>
<path transform="matrix(1,0,0,-1,194.13,116.838)" stroke-width=".3985" stroke-linecap="butt" stroke-miterlimit="10" stroke-linejoin="miter" fill="none" stroke="#afb0b1" d="M7.19502-2.95677 36.63414-26.37805"/>
<path transform="matrix(1,0,0,-1,102.75998,116.837589)" stroke-width=".3985" stroke-linecap="butt" stroke-miterlimit="10" stroke-linejoin="miter" fill="none" stroke="#afb0b1" d="M8.66876 1.17615C8.66876 5.96384 4.78767 9.84492 0 9.84492-4.78767 9.84492-8.66876 5.96384-8.66876 1.17615-8.66876-3.61151-4.78767-7.4926 0-7.4926 4.78767-7.4926 8.66876-3.61151 8.66876 1.17615ZM0 1.17615"/>
<use data-text="p" xlink:href="#font_2_6" transform="matrix(9.9626,0,0,-9.9626,100.25398,116.837589)" fill="#afb0b1"/>
<path transform="matrix(1,0,0,-1,148.445,81.96799)" stroke-width=".3985" stroke-linecap="butt" stroke-miterlimit="10" stroke-linejoin="miter" fill="none" stroke="#afb0b1" d="M-7.85324-4.27852-38.68527-28.25052"/>
<path transform="matrix(1,0,0,-1,148.445,81.96799)" stroke-width=".3985" stroke-linecap="butt" stroke-miterlimit="10" stroke-linejoin="miter" fill="none" stroke="#afb0b1" d="M7.98607-4.10364 38.30444-26.62036"/>
<path transform="matrix(1,0,0,-1,148.445,47.098985)" stroke-width=".3985" stroke-linecap="butt" stroke-miterlimit="10" stroke-linejoin="miter" fill="none" stroke="#afb0b1" d="M0-6.6413V-23.09398"/>
<path transform="matrix(1,0,0,-1,31.833525,47.101236)" stroke-width=".3985" stroke-linecap="butt" stroke-miterlimit="10" stroke-linejoin="miter" fill="none" stroke="#afb0b1" d="M9.74896 1.82753C9.74896 7.21179 5.38426 11.57649 0 11.57649-5.38426 11.57649-9.74896 7.21179-9.74896 1.82753-9.74896-3.55672-5.38426-7.92142 0-7.92142 5.38426-7.92142 9.74896-3.55672 9.74896 1.82753ZM0 1.82753"/>
<use data-text="&#x2192;" xlink:href="#font_1_2" transform="matrix(9.9626,0,0,-9.9626,26.851525,47.101259)" fill="#afb0b1"/>
<path transform="matrix(1,0,0,-1,55.217527,81.97024)" stroke-width=".3985" stroke-linecap="butt" stroke-miterlimit="10" stroke-linejoin="miter" fill="none" stroke="#afb0b1" d="M8.58679 2.14474C8.58679 6.88716 4.7424 10.73155 0 10.73155-4.7424 10.73155-8.58679 6.88716-8.58679 2.14474-8.58679-2.59764-4.7424-6.44205 0-6.44205 4.7424-6.44205 8.58679-2.59764 8.58679 2.14474ZM0 2.14474"/>
<use data-text="&#x00ac;" xlink:href="#font_1_3" transform="matrix(9.9626,0,0,-9.9626,51.89653,81.970218)" fill="#afb0b1"/>
<path transform="matrix(1,0,0,-1,55.217527,116.83924)" stroke-width=".3985" stroke-linecap="butt" stroke-miterlimit="10" stroke-linejoin="miter" fill="none" stroke="#afb0b1" d="M7.86853 2.14474C7.86853 6.49048 4.34572 10.01329 0 10.01329-4.34572 10.01329-7.86853 6.49048-7.86853 2.14474-7.86853-2.20096-4.34572-5.72379 0-5.72379 4.34572-5.72379 7.86853-2.20096 7.86853 2.14474ZM0 2.14474"/>
<use data-text="s" xlink:href="#font_2_9" transform="matrix(9.9626,0,0,-9.9626,52.882524,116.83923)" fill="#afb0b1"/>
<path transform="matrix(1,0,0,-1,55.217527,81.97024)" stroke-width=".3985" stroke-linecap="butt" stroke-miterlimit="10" stroke-linejoin="miter" fill="none" stroke="#afb0b1" d="M0-6.6413V-24.65718"/>
<path transform="matrix(1,0,0,-1,8.448004,81.97073)" stroke-width=".3985" stroke-linecap="butt" stroke-miterlimit="10" stroke-linejoin="miter" fill="none" stroke="#afb0b1" d="M7.89627 2.14474C7.89627 6.50578 4.36102 10.04102 0 10.04102-4.36102 10.04102-7.89627 6.50578-7.89627 2.14474-7.89627-2.21628-4.36102-5.75151 0-5.75151 4.36102-5.75151 7.89627-2.21628 7.89627 2.14474ZM0 2.14474"/>
<use data-text="r" xlink:href="#font_2_8" transform="matrix(9.9626,0,0,-9.9626,6.0620119,81.970767)" fill="#afb0b1"/>
<path transform="matrix(1,0,0,-1,31.833525,47.101236)" stroke-width=".3985" stroke-linecap="butt" stroke-miterlimit="10" stroke-linejoin="miter" fill="none" stroke="#afb0b1" d="M-5.57567-6.41081-18.84766-26.02075"/>
<path transform="matrix(1,0,0,-1,31.833525,47.101236)" stroke-width=".3985" stroke-linecap="butt" stroke-miterlimit="10" stroke-linejoin="miter" fill="none" stroke="#afb0b1" d="M5.57567-6.41081 18.46065-25.4489"/>
<path transform="matrix(1,0,0,-1,90.13901,12.229996)" stroke-width=".3985" stroke-linecap="butt" stroke-miterlimit="10" stroke-linejoin="miter" fill="none" stroke="#afb0b1" d="M-7.83482-2.04425-49.83008-27.83614"/>
<path transform="matrix(1,0,0,-1,90.13901,12.229996)" stroke-width=".3985" stroke-linecap="butt" stroke-miterlimit="10" stroke-linejoin="miter" fill="none" stroke="#afb0b1" d="M7.85376-2.01338 50.80206-28.15674"/>
</g>
</svg>
