<svg xmlns="http://www.w3.org/2000/svg" xmlns:xlink="http://www.w3.org/1999/xlink" version="1.1" width="253.466pt" height="166.172pt" viewBox="0 0 253.466 166.172">
<style>
path {
  fill: #34343c;
  }
</style>
<defs>
<clipPath id="clip_0">
<path transform="matrix(1,0,0,-1,-58.897,787.2)" d="M0 0H595.276V841.89H0Z"/>
</clipPath>
<path id="font_1_3" d="M.47399903 .6722412C.46299745 .6982422 .45098878 .6982422 .43399049 .6982422 .4059906 .6982422 .4019928 .6902313 .394989 .6722412L.14698792 .07002258C.14099121 .055007936 .13798523 .04699707 .06199646 .04699707H.040985109V0C.07899475 .0009918213 .1269989 .0029907227 .1579895 .0029907227 .19699097 .0029907227 .25299073 .0029907227 .2899933 0V.04699707C.28799439 .04699707 .20098877 .04699707 .20098877 .060012819 .20098877 .061019899 .20399475 .07102966 .20498657 .07203674L.25498963 .19322205H.522995L.58299258 .04699707H.48799134V0C.526001 .0029907227 .62098696 .0029907227 .6639862 .0029907227 .70399478 .0029907227 .7919922 .0029907227 .82699587 0V.04699707H.7299957L.47399903 .6722412M.3889923 .51823428 .5029907 .24023438H.2749939L.3889923 .51823428Z"/>
<path id="font_1_11" d="M.22399903 .69433596 .04699707 .6863251V.639328C.10899353 .639328 .115997318 .639328 .115997318 .6003113V.04699707H.04699707V0C.07899475 .0009918213 .1269989 .0029907227 .16999817 .0029907227 .21299744 .0029907227 .25898744 .0009918213 .29299928 0V.04699707H.22399903V.69433596Z"/>
<path id="font_1_8" d="M.25498963 .19029236C.16699219 .19029236 .16699219 .2572174 .16699219 .3021698 .16699219 .3471222 .16699219 .4140625 .25498963 .4140625 .34298707 .4140625 .34298707 .3471222 .34298707 .3021698 .34298707 .2572174 .34298707 .19029236 .25498963 .19029236M.1329956 .1802826C.1789856 .15629578 .22999573 .15429688 .25498963 .15429688 .39898683 .15429688 .45399476 .23223877 .45399476 .3021698 .45399476 .3491211 .42900086 .38209535 .4139862 .3980713 .44400025 .4140625 .46499635 .4160614 .47599793 .41705323 .47399903 .4120636 .47200013 .4030609 .47200013 .39707948 .47200013 .37210084 .4889984 .35412599 .5149994 .35412599 .54100039 .35412599 .55799868 .37309266 .55799868 .39707948 .55799868 .4200592 .54100039 .4550476 .49499513 .4550476 .47999574 .4550476 .43299867 .45205689 .3889923 .41705323 .37098695 .4290619 .32899476 .45005799 .25498963 .45005799 .11099243 .45005799 .055999757 .37210084 .055999757 .3021698 .055999757 .2612152 .07598877 .22026062 .10798645 .19728089 .07998657 .16229248 .07398987 .12918091 .07398987 .10810852 .07398987 .093048099 .07798767 .044006349 .117996219 .011993408 .10499573 .009002686 .03199768-.011993408 .03199768-.07507324 .03199768-.12612915 .08699036-.20117188 .2869873-.20117188 .46398927-.20117188 .5419922-.14215088 .5419922-.07206726 .5419922-.042037965 .5339966 .020996094 .46699525 .054992677 .41099549 .08300781 .35099793 .08300781 .25498963 .08300781 .22898865 .08300781 .18299866 .08300781 .17799378 .083999637 .13398743 .091033939 .12298584 .12918091 .12298584 .14726258 .12298584 .1572876 .1269989 .17228699 .1329956 .1802826M.19499207-.013000488H.31199647C.34298707-.013000488 .45599366-.013000488 .45599366-.07507324 .45599366-.1111145 .4169922-.16517639 .2869873-.16517639 .16699219-.16517639 .117996219-.119125369 .117996219-.07307434 .117996219-.013000488 .18099976-.013000488 .19499207-.013000488Z"/>
<path id="font_1_14" d="M.5419922 .21812439C.5419922 .35212709 .44999696 .453125 .2869873 .453125 .12298584 .453125 .03199768 .35112 .03199768 .21812439 .03199768 .09413147 .11999512-.005859375 .2869873-.005859375 .45498658-.005859375 .5419922 .09512329 .5419922 .21812439M.2869873 .03413391C.1599884 .03413391 .1599884 .14213562 .1599884 .22912598 .1599884 .27412416 .1599884 .32511903 .1769867 .3591156 .19599915 .39611817 .23799134 .41711427 .2869873 .41711427 .32899476 .41711427 .37098695 .40112306 .3929901 .36611939 .4139862 .3321228 .4139862 .27713014 .4139862 .22912598 .4139862 .14213562 .4139862 .03413391 .2869873 .03413391Z"/>
<path id="font_1_16" d="M.20298767 .3371582V.4501953L.036987306 .44218446V.39518739C.09899902 .39518739 .10598755 .39518739 .10598755 .35617066V.04699707H.036987306V0C.07199097 .0009918213 .116989139 .0029907227 .16299439 .0029907227 .20098877 .0029907227 .2649994 .0029907227 .30099488 0V.04699707H.21398926V.22209168C.21398926 .2921753 .23899842 .41418458 .33898927 .41418458 .33799745 .41319276 .31999208 .39718629 .31999208 .36819459 .31999208 .3271942 .35198976 .30718995 .3809967 .30718995 .4099884 .30718995 .44198609 .32818605 .44198609 .36819459 .44198609 .42118836 .3880005 .4501953 .33599855 .4501953 .2659912 .4501953 .22599793 .40019227 .20298767 .3371582Z"/>
<path id="font_1_10" d="M.22399903 .4501953 .049987794 .44218446V.39518739C.10899353 .39518739 .115997318 .39518739 .115997318 .35617066V.04699707H.04699707V0C.07798767 .0009918213 .1269989 .0029907227 .16899109 .0029907227 .19898987 .0029907227 .25 .0009918213 .28599549 0V.04699707H.22399903V.4501953M.23399353 .6173096C.23399353 .66130068 .19799805 .6953125 .1559906 .6953125 .11299133 .6953125 .07798767 .66030886 .07798767 .6173096 .07798767 .5743103 .11299133 .53930667 .1559906 .53930667 .19799805 .53930667 .23399353 .5733032 .23399353 .6173096Z"/>
<path id="font_1_17" d="M.102996829 .3973236V.123184207C.102996829 .01612854 .18998719-.005859375 .26098634-.005859375 .33699037-.005859375 .38198854 .05114746 .38198854 .124176029V.17721558H.33499146V.12619019C.33499146 .058151246 .30299378 .03413391 .2749939 .03413391 .21699524 .03413391 .21699524 .09817505 .21699524 .1211853V.3973236H.36299134V.44433595H.21699524V.6352234H.16999817C.16899109 .5352783 .11999512 .43632508 .020996094 .43333436V.3973236H.102996829Z"/>
<path id="font_1_9" d="M.11399841 .04699707H.04499817V0C.07299805 .0009918213 .1329956 .0029907227 .17098999 .0029907227 .20999146 .0029907227 .2689972 .0009918213 .29699708 0V.04699707H.22799683V.25610353C.22799683 .36515809 .31399537 .41418458 .3769989 .41418458 .41099549 .41418458 .43199159 .39317323 .43199159 .31713868V.04699707H.36299134V0C.3909912 .0009918213 .45098878 .0029907227 .4889984 .0029907227 .5279999 .0029907227 .58699038 .0009918213 .61499026 0V.04699707H.54599V.30613709C.54599 .41119386 .49198915 .4501953 .3919983 .4501953 .29599 .4501953 .24499512 .3921814 .22200012 .3521576V.69433596L.04499817 .6863251V.639328C.10699463 .639328 .11399841 .639328 .11399841 .600296V.04699707Z"/>
<path id="font_1_12" d="M.11399841 .3561554V.04699707H.04499817V0C.07299805 .0009918213 .1329956 .0029907227 .17098999 .0029907227 .20999146 .0029907227 .2689972 .0009918213 .29699708 0V.04699707H.22799683V.25610353C.22799683 .36515809 .31498719 .41418458 .3769989 .41418458 .41099549 .41418458 .43299867 .3941803 .43299867 .31713868V.04699707H.3639984V0C.3919983 .0009918213 .45199586 .0029907227 .48999024 .0029907227 .5289917 .0029907227 .58799746 .0009918213 .6159973 0V.04699707H.5469971V.25610353C.5469971 .36515809 .6339874 .41418458 .69599917 .41418458 .7299957 .41418458 .7519989 .3941803 .7519989 .31713868V.04699707H.68299868V0C.71099856 .0009918213 .7709961 .0029907227 .8089905 .0029907227 .84799197 .0029907227 .9069977 .0009918213 .93499758 0V.04699707H.8659973V.30613709C.8659973 .40919496 .8149872 .4501953 .71199038 .4501953 .62098696 .4501953 .56900027 .400177 .54299929 .3541565 .522995 .44718934 .43099977 .4501953 .3929901 .4501953 .30599977 .4501953 .24899292 .40518189 .21699524 .34214784V.4501953L.04499817 .44218446V.39518739C.10699463 .39518739 .11399841 .39518739 .11399841 .3561554Z"/>
<path id="font_1_1" d="M.35398866 .62316897C.35398866 .6452637 .35398866 .65527346 .32798768 .65527346 .31698609 .65527346 .31498719 .65527346 .30599977 .64826968 .22898865 .5909424 .12599182 .5909424 .10499573 .5909424H.084991458V.5439453H.10499573C.12098694 .5439453 .17599488 .54493716 .23498535 .5639343V.04699707H.09599304V0C.13999939 .0029907227 .24598694 .0029907227 .29499818 .0029907227 .34399415 .0029907227 .44999696 .0029907227 .49398805 0V.04699707H.35398866V.62316897Z"/>
<path id="font_2_8" d="M.22698975 .3157959H.3959961C.5159912 .3157959 .6239929 .39675904 .6239929 .4967041 .6239929 .59465029 .5249939 .6826172 .3880005 .6826172H.034988405V.6516113H.05899048C.13598633 .6516113 .13798523 .64060977 .13798523 .6046295V.07795715C.13798523 .041992189 .13598633 .0309906 .05899048 .0309906H.034988405V0C.069992069 .0029907227 .14399719 .0029907227 .18199158 .0029907227 .21998596 .0029907227 .29499818 .0029907227 .32998658 0V.0309906H.30599977C.22898865 .0309906 .22698975 .041992189 .22698975 .07795715V.3157959M.22399903 .34179688V.6116333C.22399903 .64460757 .22599793 .6516113 .272995 .6516113H.3619995C.5209961 .6516113 .5209961 .54566958 .5209961 .4967041 .5209961 .4497223 .5209961 .34179688 .3619995 .34179688H.22399903Z"/>
<path id="font_2_24" d="M.47099305 .21424866C.47099305 .34223939 .37098695 .4482422 .25 .4482422 .125 .4482422 .027999878 .3392334 .027999878 .21424866 .027999878 .085250858 .13198853-.0107421879 .24899292-.0107421879 .36999513-.0107421879 .47099305 .087249759 .47099305 .21424866M.25 .014251709C.20698548 .014251709 .16299439 .035247804 .13598633 .08125305 .11099243 .12524414 .11099243 .18624878 .11099243 .22224427 .11099243 .26124574 .11099243 .31523133 .1349945 .35923768 .1619873 .40522767 .20899964 .426239 .24899292 .426239 .29299928 .426239 .33599855 .40423585 .3619995 .36123658 .3880005 .3182373 .3880005 .26023866 .3880005 .22224427 .3880005 .18624878 .3880005 .13224793 .3659973 .08824158 .34399415 .04324341 .2999878 .014251709 .25 .014251709Z"/>
<path id="font_2_21" d="M.1769867 .69433596 .032989503 .68333438V.6523285C.102996829 .6523285 .11099243 .6453247 .11099243 .5962982V.07601929C.11099243 .0309906 .099990848 .0309906 .032989503 .0309906V0C.06599426 .0009918213 .11898804 .0029907227 .14399719 .0029907227 .16899109 .0029907227 .21798706 .0009918213 .25498963 0V.0309906C.18798828 .0309906 .1769867 .0309906 .1769867 .07601929V.69433596Z"/>
<path id="font_2_29" d="M.4149933 .33569337C.44099427 .39866639 .49198915 .3996582 .5079956 .3996582V.43066407C.4850006 .4286499 .45599366 .42765809 .43299867 .42765809 .4149933 .42765809 .36799623 .42965699 .34599305 .43066407V.3996582C.3769989 .39866639 .3929901 .3816681 .3929901 .35668946 .3929901 .34669496 .3919983 .34469605 .3869934 .33270265L.28599549 .08683777 .1749878 .35568238C.17098999 .36567689 .16899109 .36967469 .16899109 .3736725 .16899109 .3996582 .20599365 .3996582 .22499085 .3996582V.43066407C.19898987 .42965699 .1329956 .42765809 .115997318 .42765809 .08898926 .42765809 .04899597 .4286499 .018997193 .43066407V.3996582C.066986087 .3996582 .085998538 .3996582 .099990848 .36468507L.25-.00010681152C.24499512-.0131073 .23098755-.046081544 .22499085-.05908203 .20298767-.11405945 .1749878-.18309021 .11099243-.18309021 .10598755-.18309021 .08299255-.18309021 .06399536-.16506958 .09498596-.16105652 .102996829-.1390686 .102996829-.123062137 .102996829-.09706116 .083999637-.08105469 .06098938-.08105469 .040985109-.08105469 .018997193-.094055179 .018997193-.124069217 .018997193-.16906739 .06098938-.20507813 .11099243-.20507813 .17399597-.20507813 .21499634-.14805603 .23899842-.09106445L.4149933 .33569337Z"/>
<path id="font_2_23" d="M.10998535 .34429933V.076034549C.10998535 .0309906 .09899902 .0309906 .03199768 .0309906V0C.066986087 .0009918213 .117996219 .0029907227 .14498902 .0029907227 .17098999 .0029907227 .22299195 .0009918213 .25698854 0V.0309906C.18998719 .0309906 .1789856 .0309906 .1789856 .076034549V.2602234C.1789856 .36431886 .25 .42037965 .31399537 .42037965 .3769989 .42037965 .3880005 .36631776 .3880005 .30926515V.076034549C.3880005 .0309906 .3769989 .0309906 .30999757 .0309906V0C.34498597 .0009918213 .3959961 .0029907227 .4229889 .0029907227 .44898988 .0029907227 .5009918 .0009918213 .5349884 0V.0309906C.48298646 .0309906 .45799256 .0309906 .45700074 .061019899V.25221253C.45700074 .3383026 .45700074 .36932374 .42599488 .405365 .4119873 .42237855 .3789978 .4423828 .32099916 .4423828 .24798584 .4423828 .20098877 .39935304 .17298889 .33729554V.4423828L.03199768 .43138124V.40037538C.101989749 .4003601 .10998535 .39335633 .10998535 .34429933Z"/>
<path id="font_2_22" d="M.10998535 .34429933V.076034549C.10998535 .0309906 .09899902 .0309906 .03199768 .0309906V0C.066986087 .0009918213 .117996219 .0029907227 .14498902 .0029907227 .17098999 .0029907227 .22299195 .0009918213 .25698854 0V.0309906C.18998719 .0309906 .1789856 .0309906 .1789856 .076034549V.2602234C.1789856 .36431886 .25 .42037965 .31399537 .42037965 .3769989 .42037965 .3880005 .36631776 .3880005 .30926515V.076034549C.3880005 .0309906 .3769989 .0309906 .30999757 .0309906V0C.34498597 .0009918213 .3959961 .0029907227 .4229889 .0029907227 .44898988 .0029907227 .5009918 .0009918213 .5349884 0V.0309906C.46798707 .0309906 .45700074 .0309906 .45700074 .076034549V.2602234C.45700074 .36431886 .5279999 .42037965 .59199526 .42037965 .6549988 .42037965 .66600039 .36631776 .66600039 .30926515V.076034549C.66600039 .0309906 .6549988 .0309906 .58799746 .0309906V0C.6230011 .0009918213 .673996 .0029907227 .70098879 .0029907227 .72698977 .0029907227 .7789917 .0009918213 .8129883 0V.0309906C.7609863 .0309906 .73599246 .0309906 .7350006 .061019899V.25221253C.7350006 .3383026 .7350006 .36932374 .70399478 .405365 .6899872 .42237855 .6569977 .4423828 .598999 .4423828 .5149994 .4423828 .47099305 .38233949 .45399476 .34429933 .43998719 .43138124 .3659973 .4423828 .32099916 .4423828 .24798584 .4423828 .20098877 .39935304 .17298889 .33729554V.4423828L.03199768 .43138124V.40037538C.101989749 .4003601 .10998535 .39335633 .10998535 .34429933Z"/>
<path id="font_2_20" d="M.1769867 .4423828 .036987306 .43138124V.40037538C.101989749 .40037538 .11099243 .3943634 .11099243 .34532167V.076034549C.11099243 .0309906 .099990848 .0309906 .032989503 .0309906V0C.06498718 .0009918213 .11898804 .0029907227 .14299011 .0029907227 .17799378 .0029907227 .21299744 .0009918213 .24699402 0V.0309906C.18099976 .0309906 .1769867 .035995485 .1769867 .075042728V.4423828M.18099976 .6159363C.18099976 .64793398 .1559906 .6689453 .12799073 .6689453 .09700012 .6689453 .07499695 .64193728 .07499695 .6159363 .07499695 .5889435 .09700012 .5629425 .12799073 .5629425 .1559906 .5629425 .18099976 .5839386 .18099976 .6159363Z"/>
<path id="font_2_14" d="M.33299256 .076156619C.33699037 .036132814 .3639984-.005859375 .41099549-.005859375 .43199159-.005859375 .49299623 .008132935 .49299623 .089157108V.14518738H.46798707V.089157108C.46798707 .031143189 .44299317 .025131226 .43199159 .025131226 .39898683 .025131226 .394989 .07015991 .394989 .075149539V.27514649C.394989 .31707765 .394989 .3560791 .35899354 .39312745 .31999208 .43223573 .269989 .4482422 .22200012 .4482422 .13999939 .4482422 .070999149 .40115357 .070999149 .335083 .070999149 .30508424 .09098816 .28808595 .116989139 .28808595 .14498902 .28808595 .16299439 .30807496 .16299439 .33407594 .16299439 .3460846 .1579895 .3790741 .11199951 .38008119 .13899231 .41519166 .18798828 .426239 .21998596 .426239 .2689972 .426239 .32598878 .38710023 .32598878 .29808045V.26123048C.2749939 .2582245 .20498657 .25523377 .14199829 .22523499 .066986087 .1912384 .041992189 .13923645 .041992189 .09524536 .041992189 .014251709 .13899231-.0107421879 .20199585-.0107421879 .2679901-.010864258 .31399537 .029129029 .33299256 .076156619M.32598878 .24023438V.1401825C.32598878 .045135499 .2539978 .011138916 .20899964 .011138916 .1599884 .011138916 .11898804 .046142579 .11898804 .09616089 .11898804 .15118408 .16099549 .23422241 .32598878 .24023438Z"/>
<path id="font_2_6" d="M.034988405 .6826172V.6516113H.05899048C.13598633 .6516113 .13798523 .64060977 .13798523 .6046295V.07795715C.13798523 .041992189 .13598633 .0309906 .05899048 .0309906H.034988405V0H.40098573C.56900027 0 .70700076 .1479187 .70700076 .33580018 .70700076 .52568057 .57199099 .6826172 .40098573 .6826172H.034988405M.272995 .0309906C.22599793 .0309906 .22399903 .037994386 .22399903 .07096863V.6116333C.22399903 .64460757 .22599793 .6516113 .272995 .6516113H.37298585C.43499757 .6516113 .5039978 .6296234 .5549927 .55867007 .59799197 .49969483 .6069946 .41375733 .6069946 .33580018 .6069946 .22486878 .58799746 .16490174 .5519867 .11593628 .5319977 .08895874 .47499085 .0309906 .37399293 .0309906H.272995Z"/>
<path id="font_2_27" d="M.41600038 .33276368C.4249878 .35572816 .44198609 .39866639 .5079956 .3996582V.43066407C.4850006 .4286499 .45599366 .42765809 .43299867 .42765809 .40899659 .42765809 .36299134 .42965699 .34599305 .43066407V.3996582C.3829956 .39866639 .3939972 .3757019 .3939972 .35671998 .3939972 .34773255 .3919983 .34375 .3880005 .33276368L.28599549 .07814026 .17399597 .35671998C.16799927 .3697052 .16799927 .3717041 .16799927 .373703 .16799927 .3996582 .20698548 .3996582 .22499085 .3996582V.43066407C.19499207 .42965699 .13899231 .42765809 .115997318 .42765809 .08898926 .42765809 .04899597 .4286499 .018997193 .43066407V.3996582C.08198547 .3996582 .085998538 .3936615 .09899902 .36271668L.24299622 .008255005C.24899292-.0057525637 .25099183-.0107421879 .2639923-.0107421879 .2769928-.0107421879 .2809906-.0017547608 .2849884 .008255005L.41600038 .33276368Z"/>
<path id="font_2_26" d="M.20799256 .19424439C.22999573 .19024658 .31199647 .17424011 .31199647 .102249149 .31199647 .051254274 .2769928 .011245728 .19898987 .011245728 .114990238 .011245728 .07899475 .06825256 .05999756 .15324402 .056991579 .1662445 .055999757 .17024231 .04598999 .17024231 .032989503 .17024231 .032989503 .16323853 .032989503 .14524842V.013244629C.032989503-.003753662 .032989503-.0107421879 .04399109-.0107421879 .04899597-.0107421879 .049987794-.009750366 .068984989 .009246826 .070999149 .011245728 .070999149 .013244629 .08898926 .03224182 .1329956-.009750366 .17799378-.0107421879 .19898987-.0107421879 .31399537-.0107421879 .3600006 .056243898 .3600006 .12825012 .3600006 .1812439 .32998658 .21124268 .31799317 .22323609 .2849884 .25523377 .24598694 .26324464 .20399475 .27124024 .147995 .28224183 .08099365 .2952423 .08099365 .35324098 .08099365 .38822938 .10699463 .42922975 .19299317 .42922975 .30299378 .42922975 .30799867 .3392334 .30999757 .3082428 .31098939 .2992401 .31999208 .2992401 .32199098 .2992401 .33499146 .2992401 .33499146 .304245 .33499146 .3232422V.4242401C.33499146 .4412384 .33499146 .4482422 .32398988 .4482422 .31900025 .4482422 .31698609 .4482422 .3039856 .43623353 .30099488 .43223573 .29100038 .42323304 .2869873 .42022706 .24899292 .4482422 .20799256 .4482422 .19299317 .4482422 .070999149 .4482422 .032989503 .38124085 .032989503 .3252411 .032989503 .29023744 .04899597 .26223756 .07598877 .24023438 .10798645 .21424866 .13598633 .2082367 .20799256 .19424439Z"/>
<path id="font_2_1" d="M.33099366-.2400055C.33099366-.23701477 .33099366-.23500061 .31399537-.21800232 .18899536-.0920105 .15699768 .09700012 .15699768 .25 .15699768 .42399598 .19499207 .59799197 .31799317 .72299197 .33099366 .73498538 .33099366 .7369995 .33099366 .73999026 .33099366 .746994 .32699586 .75 .32099916 .75 .31098939 .75 .22099304 .6819916 .1619873 .5549927 .11099243 .44499208 .09899902 .33399964 .09899902 .25 .09899902 .17199707 .10998535 .050994874 .16499329-.06201172 .22499085-.18501282 .31098939-.25 .32099916-.25 .32699586-.25 .33099366-.24700928 .33099366-.2400055Z"/>
<path id="font_2_9" d="M.34899903 .38783265 .22099304 .41886903C.15899658 .4338684 .11999512 .48791505 .11999512 .5459595 .11999512 .61602786 .17399597 .677063 .2519989 .677063 .4189911 .677063 .44099427 .51293948 .44699098 .4678955 .44799806 .4618988 .44799806 .45588685 .45899964 .45588685 .47200013 .45588685 .47200013 .46089173 .47200013 .47990418V.68107607C.47200013 .69807437 .47200013 .7050781 .46099855 .7050781 .45399476 .7050781 .45298768 .70407107 .44599916 .69207766L.41099549 .6350403C.3809967 .6640625 .33999635 .7050781 .25099183 .7050781 .13999939 .7050781 .055999757 .61701968 .055999757 .51094058 .055999757 .4278717 .10899353 .35481263 .18699646 .3277893 .19799805 .3237915 .24899292 .31178285 .31900025 .2947693 .34599305 .28775025 .37599183 .28074647 .4039917 .24372864 .4249878 .21769715 .43499757 .18467713 .43499757 .15164185 .43499757 .080596927 .3849945 .008529663 .30099488 .008529663 .27198792 .008529663 .19599915 .013534546 .14299011 .062576297 .084991458 .116622928 .08198547 .18066406 .08099365 .21670532 .07998657 .22669983 .07199097 .22669983 .068984989 .22669983 .055999757 .22669983 .055999757 .21969605 .055999757 .20169068V.0015258789C.055999757-.015472412 .055999757-.022460938 .066986087-.022460938 .07398987-.022460938 .07499695-.020462037 .08198547-.009475708 .08198547-.008468628 .084991458-.0054626467 .117996219 .047561647 .14898682 .013534546 .21299744-.022460938 .3019867-.022460938 .4189911-.022460938 .49899293 .07559204 .49899293 .18566895 .49899293 .28575135 .43299867 .36782838 .34899903 .38783265Z"/>
<path id="font_2_18" d="M.22200012 .17240906C.1349945 .17240906 .1349945 .2723999 .1349945 .2953949 .1349945 .3223877 .13598633 .35438539 .15098572 .37937928 .15899658 .39137269 .18199158 .41937257 .22200012 .41937257 .30899049 .41937257 .30899049 .3193817 .30899049 .29638673 .30899049 .26939393 .30799867 .23739624 .29299928 .21240235 .2849884 .20040894 .2619934 .17240906 .22200012 .17240906M.10598755 .13330078C.10598755 .1373291 .10598755 .16040039 .12298584 .18040467 .1619873 .15240479 .20298767 .14941406 .22200012 .14941406 .31498719 .14941406 .38398744 .21839905 .38398744 .2953949 .38398744 .3323822 .36799623 .36938478 .34298707 .39237977 .3789978 .42637635 .4149933 .43138124 .43299867 .43138124 .43499757 .43138124 .43998719 .43138124 .44299317 .43037416 .43199159 .42637635 .4269867 .41537477 .4269867 .40338136 .4269867 .38638307 .43998719 .3743744 .45599366 .3743744 .46598817 .3743744 .4850006 .38137818 .4850006 .40437318 .4850006 .42137147 .47299195 .45336915 .43399049 .45336915 .4139862 .45336915 .36999513 .44737245 .32798768 .40637208 .28599549 .43937684 .24398804 .4423828 .22200012 .4423828 .1289978 .4423828 .05999756 .37338258 .05999756 .29638673 .05999756 .25239564 .08198547 .21440125 .10699463 .19340515 .09399414 .17840576 .07598877 .14538574 .07598877 .11013794 .07598877 .07891846 .08898926 .04083252 .11999512 .020828248 .05999756 .003829956 .027999878-.039138795 .027999878-.07911682 .027999878-.15107727 .1269989-.20605469 .24899292-.20605469 .36698915-.20605469 .47099305-.15507508 .47099305-.07711792 .47099305-.042144777 .45700074 .008834839 .4059906 .036834718 .35299684 .064834598 .29499818 .064834598 .23399353 .064834598 .20899964 .064834598 .1659851 .064834598 .15899658 .065841678 .1269989 .069869998 .10598755 .10107422 .10598755 .13330078M.25-.18305969C.14898682-.18305969 .07998657-.13209534 .07998657-.07911682 .07998657-.03314209 .117996219 .003829956 .1619873 .0068359377H.22099304C.30699159 .0068359377 .4189911 .0068359377 .4189911-.07911682 .4189911-.13308716 .34799195-.18305969 .25-.18305969Z"/>
<path id="font_2_17" d="M.11199951 .2524414C.117996219 .40126039 .20199585 .426239 .23599243 .426239 .33898927 .426239 .34899903 .2913971 .34899903 .2524414H.11199951M.11099243 .23144531H.3899994C.4119873 .23144531 .4149933 .23144531 .4149933 .2524414 .4149933 .35131837 .36099244 .4482422 .23599243 .4482422 .11999512 .4482422 .027999878 .34532167 .027999878 .22042847 .027999878 .08631897 .1329956-.0107421879 .24798584-.0107421879 .36999513-.0107421879 .4149933 .10032654 .4149933 .11933899 .4149933 .12934876 .40699769 .13134766 .4019928 .13134766 .3929901 .13134766 .3909912 .12535095 .3889923 .11734009 .35398866 .014251709 .2639923 .014251709 .2539978 .014251709 .20399475 .014251709 .1639862 .044281007 .14099121 .08131409 .11099243 .12934876 .11099243 .19540406 .11099243 .23144531Z"/>
<path id="font_2_11" d="M.62098696 .58461C.6349945 .62161257 .6619873 .65060427 .7299957 .6516113V.6826172C.69898989 .680603 .6589966 .6796112 .6329956 .6796112 .6029968 .6796112 .54499819 .6816101 .5189972 .6826172V.6516113C.57099917 .65060427 .59199526 .6246033 .59199526 .6016083 .59199526 .5935974 .58898928 .5876007 .58699038 .581604L.4039917 .09954834 .21299744 .604599C.20698548 .61860659 .20698548 .62060549 .20698548 .62260439 .20698548 .6516113 .2639923 .6516113 .2889862 .6516113V.6826172C.25299073 .6796112 .18399048 .6796112 .1459961 .6796112 .09799194 .6796112 .054992677 .6816101 .018997193 .6826172V.6516113C.083999637 .6516113 .102996829 .6516113 .116989139 .6136017L.34899903-.00047302247C.35598756-.019470215 .36099244-.022460938 .37399293-.022460938 .3909912-.022460938 .3929901-.017471314 .397995-.0034637452L.62098696 .58461Z"/>
<path id="font_2_25" d="M.16699219 .3323059V.4423828L.027999878 .43138124V.40037538C.09799194 .40037538 .10598755 .39337159 .10598755 .34431459V.076034549C.10598755 .0309906 .09498596 .0309906 .027999878 .0309906V0C.066986087 .0009918213 .11399841 .0029907227 .14199829 .0029907227 .18199158 .0029907227 .22898865 .0029907227 .2689972 0V.0309906H.24798584C.17399597 .0309906 .17199707 .042007448 .17199707 .07803345V.232193C.17199707 .33128358 .21398926 .42037965 .2899933 .42037965 .29699708 .42037965 .29899598 .42037965 .30099488 .41937257 .2979889 .41838075 .27799989 .4063568 .27799989 .38034059 .27799989 .35231019 .29899598 .33729554 .32099916 .33729554 .33898927 .33729554 .3639984 .3493042 .3639984 .3813324 .3639984 .41337586 .33299256 .4423828 .2899933 .4423828 .21699524 .4423828 .18099976 .37535096 .16699219 .3323059Z"/>
<path id="font_2_15" d="M.17199707 .3773346V.69433596L.027999878 .68333438V.6523285C.09799194 .6523285 .10598755 .6453247 .10598755 .596344V0H.1309967C.13198853 .0009918213 .13999939 .01499939 .16699219 .062026979 .18199158 .039260866 .22399903-.0107421879 .2979889-.0107421879 .4169922-.0107421879 .5209961 .08728027 .5209961 .2163086 .5209961 .34335328 .4229889 .4423828 .30899049 .4423828 .23098755 .4423828 .18798828 .39535523 .17199707 .3773346M.1749878 .11407471V.32028199C.1749878 .33929444 .1749878 .3403015 .18598938 .35630799 .22499085 .41236878 .27999879 .42037965 .3039856 .42037965 .34899903 .42037965 .3849945 .39434815 .40899659 .35630799 .43499757 .3152771 .43798829 .2582245 .43798829 .21717835 .43798829 .18014527 .43598939 .12008667 .40699769 .075042728 .38598634 .044021608 .34799195 .010986328 .2939911 .010986328 .24899292 .010986328 .21299744 .035003663 .18899536 .07203674 .1749878 .093063358 .1749878 .096069339 .1749878 .11407471Z"/>
<path id="font_2_2" d="M.2889862 .25C.2889862 .32798768 .27799989 .44898988 .22299195 .56199648 .16299439 .68499758 .07699585 .75 .066986087 .75 .06098938 .75 .056991579 .74598696 .056991579 .73999026 .056991579 .7369995 .056991579 .73498538 .07598877 .71699526 .17399597 .6179962 .23098755 .45899964 .23098755 .25 .23098755 .07899475 .19400025-.09700012 .069992069-.2230072 .056991579-.23500061 .056991579-.23701477 .056991579-.2400055 .056991579-.2460022 .06098938-.25 .066986087-.25 .07699585-.25 .16699219-.18200684 .22599793-.055007936 .2769928 .054992677 .2889862 .16600037 .2889862 .25Z"/>
<path id="font_1_4" d="M.2889862 .63853457H.40299989V.6855469C.3619995 .6825409 .2639923 .6825409 .21798706 .6825409 .17199707 .6825409 .07398987 .6825409 .032989503 .6855469V.63853457H.14698792V.04699707H.032989503V0C.07398987 .0029907227 .17199707 .0029907227 .21798706 .0029907227 .2639923 .0029907227 .3619995 .0029907227 .40299989 0V.04699707H.2889862V.63853457Z"/>
<path id="font_1_13" d="M.11399841 .3561554V.04699707H.04499817V0C.07299805 .0009918213 .1329956 .0029907227 .17098999 .0029907227 .20999146 .0029907227 .2689972 .0009918213 .29699708 0V.04699707H.22799683V.25610353C.22799683 .36515809 .31399537 .41418458 .3769989 .41418458 .41099549 .41418458 .43199159 .39317323 .43199159 .31713868V.04699707H.36299134V0C.3909912 .0009918213 .45098878 .0029907227 .4889984 .0029907227 .5279999 .0029907227 .58699038 .0009918213 .61499026 0V.04699707H.54599V.30613709C.54599 .41119386 .49198915 .4501953 .3919983 .4501953 .29599 .4501953 .24299622 .39317323 .21699524 .34214784V.4501953L.04499817 .44218446V.39518739C.10699463 .39518739 .11399841 .39518739 .11399841 .3561554Z"/>
<path id="font_1_15" d="M.21998596 .32917787C.21998596 .34817506 .22099304 .34918214 .23498535 .36317445 .2749939 .40419007 .32699586 .41018678 .34899903 .41018678 .41600038 .41018678 .47200013 .34918214 .47200013 .22315979 .47200013 .08213806 .4019928 .030136109 .33699037 .030136109 .32299806 .030136109 .27598573 .030136109 .23098755 .08413696 .21998596 .09713745 .21998596 .09814453 .21998596 .11714172V.32917787M.21998596 .039138795C.2630005 .004135132 .30699159-.005859375 .34799195-.005859375 .49798585-.005859375 .59999087 .08413696 .59999087 .22315979 .59999087 .35617066 .5089874 .4501953 .36499024 .4501953 .2899933 .4501953 .23699951 .41918946 .21398926 .40118409V.4501953L.036987306 .44218446V.39518739C.09899902 .39518739 .10598755 .39518739 .10598755 .35717774V-.14733887H.036987306V-.19433594C.06498718-.19334412 .125-.19134522 .16299439-.19134522 .20199585-.19134522 .26098634-.19334412 .2889862-.19433594V-.14733887H.21998596V.039138795Z"/>
<path id="font_1_18" d="M.43798829 .072143558V-.005859375L.61499026 .0001373291V.0471344C.5529938 .0471344 .54599 .0471344 .54599 .086135867V.4501953L.36299134 .44218446V.39518739C.4249878 .39518739 .43199159 .39518739 .43199159 .3561859V.16514588C.43199159 .08314514 .3809967 .030136109 .30799867 .030136109 .23098755 .030136109 .22799683 .055130006 .22799683 .10914612V.4501953L.04499817 .44218446V.39518739C.10699463 .39518739 .11399841 .39518739 .11399841 .3561859V.12315369C.11399841 .01612854 .19499207-.005859375 .2939911-.005859375 .31999208-.005859375 .3919983-.005859375 .43798829 .072143558Z"/>
<path id="font_1_2" d="M.23699951 .366333C.23699951 .40933229 .20199585 .44433595 .15899658 .44433595 .115997318 .44433595 .08099365 .40933229 .08099365 .366333 .08099365 .32333375 .115997318 .28833009 .15899658 .28833009 .20199585 .28833009 .23699951 .32333375 .23699951 .366333M.23699951 .07798767C.23699951 .12098694 .20199585 .1559906 .15899658 .1559906 .115997318 .1559906 .08099365 .12098694 .08099365 .07798767 .08099365 .034988405 .115997318 0 .15899658 0 .20199585 0 .23699951 .034988405 .23699951 .07798767Z"/>
<path id="font_3_2" d="M.36698915 .3996582H.45298768C.47299195 .3996582 .48298646 .3996582 .48298646 .41966249 .48298646 .43066407 .47299195 .43066407 .45599366 .43066407H.37298585L.3939972 .5449524C.397995 .5660095 .4119873 .6370239 .41799928 .6490326 .4269867 .66804507 .44400025 .68307498 .46499635 .68307498 .46899415 .68307498 .49499513 .68307498 .5139923 .66503909 .46998597 .661026 .45999146 .6260376 .45999146 .6110382 .45999146 .58802798 .47799684 .57603457 .49699403 .57603457 .522995 .57603457 .5519867 .5980377 .5519867 .6360321 .5519867 .6820679 .5059967 .7050781 .46499635 .7050781 .43099977 .7050781 .36799623 .68707278 .33799745 .58802798 .33198548 .56700137 .32899476 .5569763 .30499269 .43066407H.23599243C.21699524 .43066407 .20599365 .43066407 .20599365 .4116516 .20599365 .3996582 .21499634 .3996582 .23399353 .3996582H.2999878L.22499085 .0048828127C.20698548-.09207153 .18998719-.18309021 .13798523-.18309021 .13398743-.18309021 .10899353-.18309021 .08999634-.16506958 .13598633-.1620636 .14498902-.12606812 .14498902-.111068729 .14498902-.08807373 .1269989-.07606506 .10798645-.07606506 .08198547-.07606506 .052993776-.09806824 .052993776-.13606262 .052993776-.18109131 .09700012-.20507813 .13798523-.20507813 .19299317-.20507813 .23298645-.14607239 .25099183-.108062747 .2829895-.04508972 .30599977 .07583618 .30699159 .082839969L.36698915 .3996582Z"/>
<path id="font_3_1" d="M.20298767 .0009918213C.20298767 .066986087 .17799378 .10598755 .13899231 .10598755 .10598755 .10598755 .085998538 .08099365 .085998538 .052993776 .085998538 .025985718 .10598755 0 .13899231 0 .15098572 0 .1639862 .0039978029 .17399597 .0129852299 .1769867 .01499939 .17799378 .015991211 .1789856 .015991211 .17999268 .015991211 .18099976 .01499939 .18099976 .0009918213 .18099976-.07316589 .1459961-.13328552 .11299133-.16635132 .101989749-.17736817 .101989749-.17936707 .101989749-.18237305 .101989749-.18936157 .10699463-.19335938 .11199951-.19335938 .12298584-.19335938 .20298767-.116256717 .20298767 .0009918213Z"/>
<path id="font_3_3" d="M.47099305 .3773346C.47200013 .3833313 .47399903 .38833619 .47399903 .39535523 .47399903 .41236878 .46199037 .42237855 .44499208 .42237855 .43499757 .42237855 .4079895 .41537477 .4039917 .3793335 .38598634 .41636659 .35099793 .4423828 .31098939 .4423828 .19699097 .4423828 .07299805 .30226136 .07299805 .15812683 .07299805 .059020997 .13398743 0 .20599365 0 .2649994 0 .31199647 .04701233 .32199098 .058029176L.32299806 .057022096C.3019867-.031982423 .2899933-.07295227 .2899933-.07495117 .28599549-.08395386 .2519989-.18309021 .1459961-.18309021 .1269989-.18309021 .09399414-.18206787 .06599426-.17297364 .09599304-.16394043 .10699463-.13793946 .10699463-.12094116 .10699463-.10494995 .09599304-.0859375 .068984989-.0859375 .04699707-.0859375 .01499939-.10394287 .01499939-.14395142 .01499939-.18508911 .051986696-.20507813 .147995-.20507813 .272995-.20507813 .34498597-.12693787 .3600006-.06695557L.47099305 .3773346M.34098817 .12809754C.33499146 .10206604 .31199647 .077041629 .2899933 .058029176 .2689972 .040008546 .23799134 .021987915 .20899964 .021987915 .15899658 .021987915 .14399719 .074035648 .14399719 .11407471 .14399719 .16212464 .17298889 .28024293 .19999695 .33128358 .22698975 .38034059 .269989 .42037965 .31199647 .42037965 .37799073 .42037965 .3919983 .33929444 .3919983 .33428956 .3919983 .32928468 .3899994 .3232727 .3889923 .3192749L.34098817 .12809754Z"/>
<path id="font_2_28" d="M.61898806 .3357544C.6369934 .38568116 .66799929 .39866639 .7029877 .3996582V.43066407C.68099978 .4286499 .6519928 .42765809 .6299896 .42765809 .6009979 .42765809 .55599978 .42965699 .5369873 .43066407V.3996582C.57299807 .39866639 .59498599 .38069154 .59498599 .35173036 .59498599 .34573365 .59498599 .34375 .58999636 .33076478L.49899293 .075149539 .3999939 .35372926C.3959961 .3657074 .394989 .3677063 .394989 .37269593 .394989 .3996582 .43399049 .3996582 .45399476 .3996582V.43066407C.4249878 .42965699 .37399293 .42765809 .34999085 .42765809 .31999208 .42765809 .29100038 .4286499 .26098634 .43066407V.3996582C.2979889 .3996582 .31399537 .3976593 .32398988 .38467408 .32899476 .37869264 .33999635 .34873963 .34700013 .3297577L.26098634 .088134769 .1659851 .35472108C.16099549 .36671449 .16099549 .36869813 .16099549 .37269593 .16099549 .3996582 .19999695 .3996582 .21998596 .3996582V.43066407C.18998719 .42965699 .13398743 .42765809 .11099243 .42765809 .10699463 .42765809 .053985597 .4286499 .017990113 .43066407V.3996582C.067993167 .3996582 .07998657 .39666749 .09199524 .36471559L.21798706 .011245728C.22299195-.002746582 .22599793-.0107421879 .23899842-.0107421879 .2519989-.0107421879 .2539978-.0047454836 .25898744 .009246826L.3600006 .29182435 .46199037 .008255005C.46598817-.002746582 .46899415-.0107421879 .48199464-.0107421879 .49499513-.0107421879 .49798585-.0017547608 .5019989 .008255005L.61898806 .3357544Z"/>
<path id="font_2_19" d="M.10998535 .076034549C.10998535 .0309906 .09899902 .0309906 .03199768 .0309906V0C.066986087 .0009918213 .117996219 .0029907227 .14498902 .0029907227 .17098999 .0029907227 .22299195 .0009918213 .25698854 0V.0309906C.18998719 .0309906 .1789856 .0309906 .1789856 .076034549V.2602234C.1789856 .36431886 .25 .42037965 .31399537 .42037965 .3769989 .42037965 .3880005 .36631776 .3880005 .30926515V.076034549C.3880005 .0309906 .3769989 .0309906 .30999757 .0309906V0C.34498597 .0009918213 .3959961 .0029907227 .4229889 .0029907227 .44898988 .0029907227 .5009918 .0009918213 .5349884 0V.0309906C.48298646 .0309906 .45799256 .0309906 .45700074 .061019899V.25221253C.45700074 .3383026 .45700074 .36932374 .42599488 .405365 .4119873 .42237855 .3789978 .4423828 .32099916 .4423828 .23699951 .4423828 .19299317 .38233949 .17599488 .34429933V.69433596L.03199768 .68333438V.6523285C.101989749 .6523285 .10998535 .6453247 .10998535 .596344V.076034549Z"/>
<path id="font_4_4" d="M.5479889 .23046875C.5649872 .23046875 .58299258 .23046875 .58299258 .25045777 .58299258 .27046205 .5649872 .27046205 .5479889 .27046205H.12399292C.13598633 .40419007 .25099183 .5 .3919983 .5H.5479889C.5649872 .5 .58299258 .5 .58299258 .519989 .58299258 .5399933 .5649872 .5399933 .5479889 .5399933H.3899994C.21899414 .5399933 .08299255 .4101715 .08299255 .25045777 .08299255 .09017944 .21899414-.040008546 .3899994-.040008546H.5479889C.5649872-.040008546 .58299258-.040008546 .58299258-.020004273 .58299258 0 .5649872 0 .5479889 0H.3919983C.25099183 0 .13598633 .096191409 .12399292 .23046875H.5479889Z"/>
<path id="font_5_1" d="M.25898744 .3359375C.2999878 .3359375 .3999939 .33392335 .4079895 .22195435 .40899659 .20996094 .4099884 .19696045 .42599488 .19696045 .44299317 .19696045 .44299317 .21095276 .44299317 .22895813V.49975587C.44299317 .5157471 .44299317 .531723 .42599488 .531723 .41299439 .531723 .40899659 .5217285 .4079895 .5107422 .4019928 .39489747 .33198548 .3749237 .25898744 .37193299V.58265689C.25898744 .64956668 .27799989 .64956668 .3019867 .64956668H.34899903C.47698976 .64956668 .5419922 .58065798 .5479889 .51174929 .548996 .50375369 .5499878 .48876954 .56599429 .48876954 .58299258 .48876954 .58299258 .50476077 .58299258 .5217285V.65156558C.58299258 .68255618 .58099368 .6845703 .5499878 .6845703H.04798889C.02999878 .6845703 .01399231 .6845703 .01399231 .66656497 .01399231 .64956668 .032989503 .64956668 .040985109 .64956668 .09799194 .64956668 .101989749 .64157107 .101989749 .5926361V.09197998C.101989749 .04498291 .09899902 .034988405 .04598999 .034988405 .0309906 .034988405 .01399231 .034988405 .01399231 .017990113 .01399231 0 .02999878 0 .04798889 0H.33699037C.35499574 0 .36999513 0 .36999513 .017990113 .36999513 .034988405 .35299684 .034988405 .33999635 .034988405 .2630005 .034988405 .25898744 .041992189 .25898744 .09498596V.3359375M.5479889 .64956668V.6026306C.5339966 .6175995 .5169983 .6355896 .49398805 .64956668H.5479889M.4079895 .3169403C.3929901 .3359375 .36698915 .3509369 .35499574 .3559265 .37399293 .3649292 .3939972 .3809204 .4079895 .39788819V.3169403M.13699341 .594635C.13699341 .6066284 .13699341 .6315918 .1289978 .64956668H.23498535C.22399903 .6266022 .22399903 .5936432 .22399903 .58465579V.09298706C.22399903 .07798767 .22399903 .053985597 .23399353 .034988405H.1289978C.13699341 .052993776 .13699341 .07798767 .13699341 .08998108V.594635Z"/>
<path id="font_2_12" d="M.25498963-.25V-.21000672H.1579895V.70999148H.25498963V.75H.117996219V-.25H.25498963Z"/>
<path id="font_3_6" d="M.33399964 .30233766C.33999635 .32835389 .36299134 .42037965 .43299867 .42037965 .43798829 .42037965 .46199037 .42037965 .48298646 .40734864 .45498658 .402359 .43499757 .37734986 .43499757 .35334779 .43499757 .33735658 .44599916 .31835938 .47299195 .31835938 .49499513 .31835938 .5269928 .3363495 .5269928 .37635804 .5269928 .42837525 .46798707 .4423828 .43399049 .4423828 .37599183 .4423828 .34098817 .38935853 .32899476 .36634828 .3039856 .43237306 .25 .4423828 .22099304 .4423828 .116989139 .4423828 .05999756 .3133545 .05999756 .28834535 .05999756 .27833558 .069992069 .27833558 .07199097 .27833558 .07998657 .27833558 .08299255 .28033448 .084991458 .28933717 .11898804 .39535523 .18499756 .42037965 .21899414 .42037965 .23799134 .42037965 .272995 .4113617 .272995 .35334779 .272995 .32235719 .2559967 .25532533 .21899414 .11528015 .20298767 .053268434 .16799927 .011245728 .12399292 .011245728 .117996219 .011245728 .09498596 .011245728 .07398987 .024276734 .09899902 .029266358 .12098694 .05027771 .12098694 .07827759 .12098694 .105270389 .09899902 .11328125 .083999637 .11328125 .053985597 .11328125 .0289917 .08728027 .0289917 .055267335 .0289917 .009246826 .07899475-.0107421879 .12298584-.0107421879 .18899536-.0107421879 .22499085 .059280397 .22799683 .0652771 .23999024 .028274537 .27598573-.0107421879 .33599855-.0107421879 .43899537-.0107421879 .49598695 .118270877 .49598695 .14328003 .49598695 .1532898 .4869995 .1532898 .48399354 .1532898 .47499085 .1532898 .47299195 .14929199 .47099305 .14228821 .43798829 .03527832 .36999513 .011245728 .33799745 .011245728 .29899598 .011245728 .2829895 .043273927 .2829895 .07727051 .2829895 .09927368 .2889862 .121276859 .2999878 .16529846L.33399964 .30233766Z"/>
<path id="font_2_13" d="M.15899658 .75H.021987915V.70999148H.11898804V-.21000672H.021987915V-.25H.15899658V.75Z"/>
<path id="font_4_5" d="M.6299896 .67681887C.6380005 .69081118 .6380005 .69281008 .6380005 .69581606 .6380005 .7028198 .6319885 .7158203 .6179962 .7158203 .60598757 .7158203 .6029968 .70980837 .59599307 .69581606L.14698792-.1768341C.13899231-.19082642 .13899231-.19282532 .13899231-.1958313 .13899231-.2038269 .1459961-.21582031 .15899658-.21582031 .17098999-.21582031 .17399597-.20982361 .18099976-.1958313L.6299896 .67681887Z"/>
<path id="font_2_5" d="M.68699648 .32714845C.70199587 .32714845 .72099307 .32714845 .72099307 .34713746 .72099307 .36714173 .70199587 .36714173 .6879883 .36714173H.08898926C.07499695 .36714173 .055999757 .36714173 .055999757 .34713746 .055999757 .32714845 .07499695 .32714845 .08999634 .32714845H.68699648M.6879883 .13284302C.70199587 .13284302 .72099307 .13284302 .72099307 .15284729 .72099307 .17285156 .70199587 .17285156 .68699648 .17285156H.08999634C.07499695 .17285156 .055999757 .17285156 .055999757 .15284729 .055999757 .13284302 .07499695 .13284302 .08898926 .13284302H.6879883Z"/>
<path id="font_2_4" d="M.45999146 .31976319C.45999146 .39982606 .45498658 .47988893 .41999818 .5539398 .37399293 .65000918 .2919922 .6660156 .25 .6660156 .18998719 .6660156 .116989139 .64001467 .07598877 .54693606 .04399109 .47789 .038986207 .39982606 .038986207 .31976319 .038986207 .24472046 .042999269 .15464783 .083999637 .07859802 .1269989-.0024719239 .19999695-.022460938 .24899292-.022460938 .30299378-.022460938 .3789978-.0014648438 .4229889 .09359741 .45498658 .16265869 .45999146 .2407074 .45999146 .31976319M.24899292-.00047302247C.20999146-.00047302247 .15098572 .024551392 .1329956 .12062073 .12199402 .18066406 .12199402 .2727356 .12199402 .3317871 .12199402 .39582826 .12199402 .46188355 .12998963 .5159149 .14898682 .63500979 .22399903 .64401248 .24899292 .64401248 .28199769 .64401248 .34799195 .6259918 .36698915 .52693179 .3769989 .47088624 .3769989 .39482118 .3769989 .3317871 .3769989 .25672914 .3769989 .18867493 .3659973 .12461853 .35099793 .029556275 .2939911-.00047302247 .24899292-.00047302247Z"/>
<path id="font_1_5" d="M.798996 .33924867C.798996 .5552521 .6539917 .6972656 .43199159 .6972656 .20298767 .6972656 .06399536 .5492554 .06399536 .33924867 .06399536 .13224793 .20399475-.0107421879 .43099977-.0107421879 .6609955-.0107421879 .798996 .13424683 .798996 .33924867M.43099977 .03125C.37199403 .03125 .29899598 .059249879 .2579956 .1352539 .22499085 .19725037 .21699524 .2682495 .21699524 .3542633 .21699524 .41825868 .21998596 .5032654 .2639923 .57125857 .30499269 .6322632 .37199403 .6572571 .43099977 .6572571 .49499513 .6572571 .56399539 .6292572 .60398867 .56326296 .6419983 .49925233 .6459961 .42225648 .6459961 .3542633 .6459961 .28425599 .6419983 .19525147 .59999087 .12625122 .5549927 .053253175 .4850006 .03125 .43099977 .03125Z"/>
<path id="font_3_4" d="M.45199586 .43138124C.45199586 .43537904 .44898988 .44137574 .44198609 .44137574 .43099977 .44137574 .3909912 .4013672 .37399293 .37236024 .35198976 .42637635 .31298829 .4423828 .2809906 .4423828 .16299439 .4423828 .039993287 .29434205 .039993287 .14929199 .039993287 .05126953 .09899902-.0107421879 .17199707-.0107421879 .21499634-.0107421879 .2539978 .013244629 .2899933 .04925537 .2809906 .014251709 .24798584-.1211853 .24499512-.1302185 .23699951-.1583252 .22898865-.16233826 .17298889-.16334534 .1599884-.16334534 .1499939-.16334534 .1499939-.18334961 .1499939-.18434143 .1499939-.19433594 .16299439-.19433594 .19499207-.19433594 .22999573-.19134522 .2630005-.19134522 .29699708-.19134522 .33299256-.19433594 .3659973-.19433594 .37098695-.19433594 .38398744-.19433594 .38398744-.17434693 .38398744-.16334534 .37399293-.16334534 .35798646-.16334534 .30999757-.16334534 .30999757-.15631104 .30999757-.14727783 .30999757-.14025879 .31199647-.13423157 .31399537-.12519837L.45199586 .43138124M.1749878 .011245728C.114990238 .011245728 .11099243 .088272098 .11099243 .105285648 .11099243 .1532898 .13999939 .2623291 .15699768 .30433656 .18798828 .37835694 .23999024 .42037965 .2809906 .42037965 .34599305 .42037965 .3600006 .33935548 .3600006 .33235169 .3600006 .32633973 .30499269 .107284549 .3019867 .103271488 .2869873 .07527161 .23098755 .011245728 .1749878 .011245728Z"/>
<path id="font_3_5" d="M.08799744 .059265138C.084991458 .044265748 .07899475 .021255494 .07899475 .01625061 .07899475-.0017547608 .09298706-.0107421879 .10798645-.0107421879 .11999512-.0107421879 .13798523-.002746582 .14498902 .01725769 .14698792 .021255494 .18099976 .15730286 .18499756 .17530823 .19299317 .20831299 .21099854 .27833558 .21699524 .30534364 .22099304 .31835938 .24899292 .36535646 .272995 .38734437 .2809906 .39434815 .30999757 .42037965 .35299684 .42037965 .3789978 .42037965 .3939972 .4083557 .394989 .4083557 .36499024 .40335084 .34298707 .37934876 .34298707 .35334779 .34298707 .33735658 .35398866 .31835938 .3809967 .31835938 .4079895 .31835938 .43598939 .34135438 .43598939 .37734986 .43598939 .41235353 .4039917 .4423828 .35299684 .4423828 .28799439 .4423828 .24398804 .39335633 .22499085 .36535646 .21699524 .4103546 .18099976 .4423828 .13398743 .4423828 .08799744 .4423828 .068984989 .40335084 .05999756 .38534547 .041992189 .35134889 .0289917 .29133607 .0289917 .28834535 .0289917 .27833558 .038986207 .27833558 .040985109 .27833558 .050994874 .27833558 .051986696 .27934266 .057998659 .30134584 .07499695 .37234498 .09498596 .42037965 .1309967 .42037965 .147995 .42037965 .1619873 .41235353 .1619873 .37435914 .1619873 .35334779 .15899658 .3423462 .1459961 .29034425L.08799744 .059265138Z"/>
<path id="font_4_3" d="M.9079895 .23046875C.9259949 .23046875 .94400027 .23046875 .94400027 .25045777 .94400027 .27046205 .9259949 .27046205 .9079895 .27046205H.16499329C.21998596 .31245423 .24699402 .3534546 .25498963 .36645509 .2999878 .43545533 .30799867 .49845887 .30799867 .49946595 .30799867 .51145938 .29599 .51145938 .28799439 .51145938 .2709961 .51145938 .269989 .50946047 .2659912 .49145509 .24299622 .39346314 .18399048 .31045533 .070999149 .26345826 .05999756 .25946046 .055999757 .25746156 .055999757 .25045777 .055999757 .24345398 .06098938 .24145508 .070999149 .23745728 .1749878 .19445801 .24198914 .11645508 .2669983 .0044555666 .269989-.007537842 .2709961-.010543823 .28799439-.010543823 .29599-.010543823 .30799867-.010543823 .30799867 .0014648438 .30799867 .0034637452 .29899598 .066467288 .25698854 .13345337 .23699951 .1634674 .20799256 .19845581 .16499329 .23046875H.9079895Z"/>
<path id="font_1_19" d="M.7369995 .37631227C.74198916 .389328 .74598696 .3973236 .8049927 .3973236V.44433595C.7819977 .44232179 .7519989 .44132997 .7279968 .44132997 .70098879 .44132997 .6539917 .44332887 .6319885 .44433595V.3973236C.6409912 .3973236 .6899872 .3963318 .6899872 .3853302 .6899872 .38232423 .68699648 .37631227 .6859894 .37332154L.58099368 .11715698 .46699525 .3973236H.522995V.44433595C.4909973 .44332887 .43899537 .44132997 .40899659 .44132997 .36698915 .44132997 .32499696 .44332887 .30899049 .44433595V.3973236H.36799623C.3889923 .3473053 .3889923 .34529115 .3889923 .34429933 .3889923 .34028626 .38598634 .33428956 .3849945 .33128358L.30599977 .13916016 .20098877 .3973236H.25698854V.44433595C.21598816 .44232179 .1749878 .44132997 .13398743 .44132997 .102996829 .44132997 .05899048 .44332887 .024993897 .44433595V.3973236H.083999637L.23699951 .023086548C.24398804 .006088257 .24798584-.00390625 .272995-.00390625 .2979889-.00390625 .3019867 .006088257 .30899049 .023086548L.4149933 .28225709 .5209961 .023086548C.5279999 .006088257 .5319977-.00390625 .5569916-.00390625 .58200076-.00390625 .58599856 .006088257 .59298709 .023086548L.7369995 .37631227Z"/>
<path id="font_1_7" d="M.46199037 .2179718C.48399354 .2179718 .49398805 .2179718 .49398805 .2449646 .49398805 .27598573 .48799134 .34906007 .43798829 .3991089 .40098573 .43511964 .34799195 .453125 .2789917 .453125 .11898804 .453125 .03199768 .35005189 .03199768 .22497559 .03199768 .09107971 .13198853-.005859375 .29299928-.005859375 .45098878-.005859375 .49398805 .10006714 .49398805 .11706543 .49398805 .13504029 .47499085 .13504029 .46998597 .13504029 .45298768 .13504029 .45098878 .13005066 .44499208 .11405945 .42399598 .066101077 .36698915 .03413391 .3019867 .03413391 .16099549 .03413391 .1599884 .16700745 .1599884 .2179718H.46199037M.1599884 .25097657C.1619873 .29000855 .16299439 .3320465 .18399048 .36506654 .20999146 .4051056 .25 .41711427 .2789917 .41711427 .3959961 .41711427 .397995 .28599549 .39898683 .25097657H.1599884Z"/>
<path id="font_2_16" d="M.37998963 .055252077V-.0107421879L.5269928 .00024414063V.03125C.45700074 .03125 .44898988 .038253786 .44898988 .087265018V.69433596L.30499269 .68333438V.6523285C.375 .6523285 .3829956 .6453247 .3829956 .596344V.38035584C.35398866 .41636659 .31098939 .4423828 .25698854 .4423828 .13899231 .4423828 .033996583 .3443451 .033996583 .21531677 .033996583 .088272098 .13198853-.0107421879 .24598694-.0107421879 .30999757-.0107421879 .35499574 .023254395 .37998963 .055252077M.37998963 .323349V.118270877C.37998963 .1002655 .37998963 .0982666 .36898805 .08126831 .33898927 .0332489 .2939911 .011245728 .25099183 .011245728 .20599365 .011245728 .16999817 .037246705 .1459961 .07527161 .11999512 .11627197 .116989139 .17329407 .116989139 .21430969 .116989139 .25131227 .11898804 .31134034 .147995 .35635377 .16899109 .38735963 .20698548 .42037965 .26098634 .42037965 .29599 .42037965 .33799745 .405365 .36898805 .36035157 .37998963 .34335328 .37998963 .34135438 .37998963 .323349Z"/>
<path id="font_4_2" d="M.6749878 .59420779C.6859894 .5991974 .69400027 .6042023 .69400027 .61621096 .69400027 .62719729 .6859894 .63619998 .673996 .63619998 .6689911 .63619998 .6599884 .63220217 .6559906 .63020327L.102996829 .36917115C.085998538 .36116029 .08299255 .3541565 .08299255 .3461609 .08299255 .3371582 .08898926 .33015443 .102996829 .3241577L.6559906 .06411743C.6689911 .057113649 .67099 .057113649 .673996 .057113649 .68499758 .057113649 .69400027 .06611633 .69400027 .07711792 .69400027 .086120609 .6899872 .09211731 .6729889 .100128177L.1499939 .3461609 .6749878 .59420779M.6589966-.13671875C.6759949-.13671875 .69400027-.13671875 .69400027-.11672974 .69400027-.096725467 .6729889-.096725467 .6579895-.096725467H.11898804C.10398865-.096725467 .08299255-.096725467 .08299255-.11672974 .08299255-.13671875 .100997928-.13671875 .117996219-.13671875H.6589966Z"/>
<path id="font_1_6" d="M.41799928 .042999269V-.006011963L.6009979 0V.04699707C.5389862 .04699707 .5319977 .04699707 .5319977 .086013797V.69433596L.35499574 .6863251V.639328C.4169922 .639328 .42399598 .639328 .42399598 .600296V.40518189C.37399293 .44418336 .32199098 .4501953 .2889862 .4501953 .14299011 .4501953 .037994386 .36218263 .037994386 .22116089 .037994386 .089141849 .12998963-.005859375 .27799989-.005859375 .33898927-.006011963 .3869934 .017990113 .41799928 .042999269M.41799928 .35316468V.103027347C.40499879 .085006717 .3639984 .02999878 .28799439 .02999878 .1659851 .02999878 .1659851 .15104676 .1659851 .2210846 .1659851 .26911927 .1659851 .32313539 .19198609 .36216737 .22099304 .40419007 .2679901 .41418458 .29899598 .41418458 .35598756 .41418458 .3959961 .38217164 .41799928 .35316468Z"/>
<path id="font_2_3" d="M.40899659 .23046875H.6879883C.70199587 .23046875 .72099307 .23046875 .72099307 .25045777 .72099307 .27046205 .70199587 .27046205 .6879883 .27046205H.40899659V.5500183C.40899659 .56399539 .40899659 .5830078 .3889923 .5830078 .36898805 .5830078 .36898805 .56399539 .36898805 .5500183V.27046205H.08898926C.07499695 .27046205 .055999757 .27046205 .055999757 .25045777 .055999757 .23046875 .07499695 .23046875 .08898926 .23046875H.36898805V-.05000305C.36898805-.06401062 .36898805-.08300781 .3889923-.08300781 .40899659-.08300781 .40899659-.06401062 .40899659-.05000305V.23046875Z"/>
<path id="font_2_7" d="M.58200076 .2578125H.5569916C.54599 .15588379 .5319977 .0309906 .35598756 .0309906H.27398683C.22698975 .0309906 .22499085 .037979127 .22499085 .07095337V.6036377C.22499085 .637619 .22499085 .6516113 .31999208 .6516113H.35299684V.6826172C.31698609 .6796112 .22599793 .6796112 .18499756 .6796112 .1459961 .6796112 .067993167 .6796112 .032989503 .6826172V.6516113H.056991579C.13398743 .6516113 .13598633 .64060977 .13598633 .6046295V.07795715C.13598633 .04197693 .13398743 .0309906 .056991579 .0309906H.032989503V0H.55400088L.58200076 .2578125Z"/>
<path id="font_2_10" d="M.66600039 .6766052H.054992677L.035995485 .4516449H.06098938C.07499695 .6126251 .08999634 .6456146 .24099732 .6456146 .25898744 .6456146 .2849884 .6456146 .29499818 .6436157 .31599427 .6396179 .31599427 .62861636 .31599427 .60562136V.078948978C.31599427 .04498291 .31599427 .0309906 .21099854 .0309906H.17098999V0C.21199036 .0029907227 .31399537 .0029907227 .3600006 .0029907227 .4059906 .0029907227 .5089874 .0029907227 .5499878 0V.0309906H.5099945C.40499879 .0309906 .40499879 .04498291 .40499879 .078948978V.60562136C.40499879 .62561038 .40499879 .6396179 .4229889 .6436157 .43399049 .6456146 .46099855 .6456146 .47999574 .6456146 .6309967 .6456146 .6459961 .6126251 .6599884 .4516449H.68499758L.66600039 .6766052Z"/>
<path id="font_4_1" d="M.6589966 .23046875C.6759949 .23046875 .69400027 .23046875 .69400027 .25045777 .69400027 .27046205 .6759949 .27046205 .6589966 .27046205H.117996219C.100997928 .27046205 .08299255 .27046205 .08299255 .25045777 .08299255 .23046875 .100997928 .23046875 .117996219 .23046875H.6589966Z"/>
</defs>
<g clip-path="url(#clip_0)">
<path transform="matrix(1,0,0,-1,.6310005,1.835022)" stroke-width=".797" stroke-linecap="butt" stroke-miterlimit="10" stroke-linejoin="miter" fill="none" stroke="#34343c" d="M0 0H476.221"/>
<use data-text="A" xlink:href="#font_1_3" transform="matrix(10.9091,0,0,-10.9091,.15399933,12.406982)"/>
<use data-text="l" xlink:href="#font_1_11" transform="matrix(10.9091,0,0,-10.9091,9.6340069,12.406982)"/>
<use data-text="g" xlink:href="#font_1_8" transform="matrix(10.9091,0,0,-10.9091,13.11401,12.406982)"/>
<use data-text="o" xlink:href="#font_1_14" transform="matrix(10.9091,0,0,-10.9091,19.386746,12.406982)"/>
<use data-text="r" xlink:href="#font_1_16" transform="matrix(10.9091,0,0,-10.9091,25.659482,12.406982)"/>
<use data-text="i" xlink:href="#font_1_10" transform="matrix(10.9091,0,0,-10.9091,30.830395,12.406982)"/>
<use data-text="t" xlink:href="#font_1_17" transform="matrix(10.9091,0,0,-10.9091,34.3104,12.406982)"/>
<use data-text="h" xlink:href="#font_1_9" transform="matrix(10.9091,0,0,-10.9091,39.186765,12.406982)"/>
<use data-text="m" xlink:href="#font_1_12" transform="matrix(10.9091,0,0,-10.9091,46.15768,12.406982)"/>
<use data-text="1" xlink:href="#font_1_1" transform="matrix(10.9091,0,0,-10.9091,60.786787,12.406982)"/>
<use data-text="P" xlink:href="#font_2_8" transform="matrix(10.9091,0,0,-10.9091,71.259,12.406982)"/>
<use data-text="o" xlink:href="#font_2_24" transform="matrix(10.9091,0,0,-10.9091,78.382648,12.406982)"/>
<use data-text="l" xlink:href="#font_2_21" transform="matrix(10.9091,0,0,-10.9091,83.83719,12.406982)"/>
<use data-text="y" xlink:href="#font_2_29" transform="matrix(10.9091,0,0,-10.9091,86.86992,12.406982)"/>
<use data-text="n" xlink:href="#font_2_23" transform="matrix(10.9091,0,0,-10.9091,92.62993,12.406982)"/>
<use data-text="o" xlink:href="#font_2_24" transform="matrix(10.9091,0,0,-10.9091,98.69539,12.406982)"/>
<use data-text="m" xlink:href="#font_2_22" transform="matrix(10.9091,0,0,-10.9091,104.14993,12.406982)"/>
<use data-text="i" xlink:href="#font_2_20" transform="matrix(10.9091,0,0,-10.9091,113.23721,12.406982)"/>
<use data-text="a" xlink:href="#font_2_14" transform="matrix(10.9091,0,0,-10.9091,116.26994,12.406982)"/>
<use data-text="l" xlink:href="#font_2_21" transform="matrix(10.9091,0,0,-10.9091,121.72449,12.406982)"/>
<use data-text="D" xlink:href="#font_2_6" transform="matrix(10.9091,0,0,-10.9091,128.38996,12.406982)"/>
<use data-text="i" xlink:href="#font_2_20" transform="matrix(10.9091,0,0,-10.9091,136.7245,12.406982)"/>
<use data-text="v" xlink:href="#font_2_27" transform="matrix(10.9091,0,0,-10.9091,139.75724,12.406982)"/>
<use data-text="i" xlink:href="#font_2_20" transform="matrix(10.9091,0,0,-10.9091,145.51725,12.406982)"/>
<use data-text="s" xlink:href="#font_2_26" transform="matrix(10.9091,0,0,-10.9091,148.54998,12.406982)"/>
<use data-text="i" xlink:href="#font_2_20" transform="matrix(10.9091,0,0,-10.9091,152.84816,12.406982)"/>
<use data-text="o" xlink:href="#font_2_24" transform="matrix(10.9091,0,0,-10.9091,155.88089,12.406982)"/>
<use data-text="n" xlink:href="#font_2_23" transform="matrix(10.9091,0,0,-10.9091,161.33544,12.406982)"/>
<use data-text="(" xlink:href="#font_2_1" transform="matrix(10.9091,0,0,-10.9091,171.04454,12.406982)"/>
<use data-text="S" xlink:href="#font_2_9" transform="matrix(10.9091,0,0,-10.9091,175.28818,12.406982)"/>
<use data-text="i" xlink:href="#font_2_20" transform="matrix(10.9091,0,0,-10.9091,181.35364,12.406982)"/>
<use data-text="n" xlink:href="#font_2_23" transform="matrix(10.9091,0,0,-10.9091,184.38637,12.406982)"/>
<use data-text="g" xlink:href="#font_2_18" transform="matrix(10.9091,0,0,-10.9091,190.45183,12.406982)"/>
<use data-text="l" xlink:href="#font_2_21" transform="matrix(10.9091,0,0,-10.9091,195.90637,12.406982)"/>
<use data-text="e" xlink:href="#font_2_17" transform="matrix(10.9091,0,0,-10.9091,198.93909,12.406982)"/>
<use data-text="V" xlink:href="#font_2_11" transform="matrix(10.9091,0,0,-10.9091,207.41544,12.406982)"/>
<use data-text="a" xlink:href="#font_2_14" transform="matrix(10.9091,0,0,-10.9091,214.6918,12.406982)"/>
<use data-text="r" xlink:href="#font_2_25" transform="matrix(10.9091,0,0,-10.9091,220.14636,12.406982)"/>
<use data-text="i" xlink:href="#font_2_20" transform="matrix(10.9091,0,0,-10.9091,224.42273,12.406982)"/>
<use data-text="a" xlink:href="#font_2_14" transform="matrix(10.9091,0,0,-10.9091,227.45545,12.406982)"/>
<use data-text="b" xlink:href="#font_2_15" transform="matrix(10.9091,0,0,-10.9091,232.91,12.406982)"/>
<use data-text="l" xlink:href="#font_2_21" transform="matrix(10.9091,0,0,-10.9091,238.97547,12.406982)"/>
<use data-text="e" xlink:href="#font_2_17" transform="matrix(10.9091,0,0,-10.9091,241.99729,12.406982)"/>
<use data-text=")" xlink:href="#font_2_2" transform="matrix(10.9091,0,0,-10.9091,246.8518,12.406982)"/>
<path transform="matrix(1,0,0,-1,.6310005,17.327027)" stroke-width=".398" stroke-linecap="butt" stroke-miterlimit="10" stroke-linejoin="miter" fill="none" stroke="#34343c" d="M0 0H476.221"/>
<use data-text="I" xlink:href="#font_1_4" transform="matrix(10.9091,0,0,-10.9091,.6310005,27.700013)"/>
<use data-text="n" xlink:href="#font_1_13" transform="matrix(10.9091,0,0,-10.9091,5.387371,27.700013)"/>
<use data-text="p" xlink:href="#font_1_15" transform="matrix(10.9091,0,0,-10.9091,12.358288,27.700013)"/>
<use data-text="u" xlink:href="#font_1_18" transform="matrix(10.9091,0,0,-10.9091,19.329205,27.700013)"/>
<use data-text="t" xlink:href="#font_1_17" transform="matrix(10.9091,0,0,-10.9091,26.300122,27.700013)"/>
<use data-text=":" xlink:href="#font_1_2" transform="matrix(10.9091,0,0,-10.9091,31.176487,27.700013)"/>
<use data-text="f" xlink:href="#font_3_2" transform="matrix(10.9091,0,0,-10.9091,40.115,27.700013)"/>
<use data-text="," xlink:href="#font_3_1" transform="matrix(10.9091,0,0,-10.9091,46.027738,27.700013)"/>
<use data-text="g" xlink:href="#font_3_3" transform="matrix(10.9091,0,0,-10.9091,50.88229,27.700013)"/>
<use data-text="w" xlink:href="#font_2_28" transform="matrix(10.9091,0,0,-10.9091,60.104,27.700013)"/>
<use data-text="h" xlink:href="#font_2_19" transform="matrix(10.9091,0,0,-10.9091,67.98038,27.700013)"/>
<use data-text="e" xlink:href="#font_2_17" transform="matrix(10.9091,0,0,-10.9091,74.04582,27.700013)"/>
<use data-text="r" xlink:href="#font_2_25" transform="matrix(10.9091,0,0,-10.9091,78.889469,27.700013)"/>
<use data-text="e" xlink:href="#font_2_17" transform="matrix(10.9091,0,0,-10.9091,83.16583,27.700013)"/>
<use data-text="f" xlink:href="#font_3_2" transform="matrix(10.9091,0,0,-10.9091,91.649,27.700013)"/>
<use data-text="," xlink:href="#font_3_1" transform="matrix(10.9091,0,0,-10.9091,97.56174,27.700013)"/>
<use data-text="g" xlink:href="#font_3_3" transform="matrix(10.9091,0,0,-10.9091,102.41629,27.700013)"/>
<use data-text="&#x2208;" xlink:href="#font_4_4" transform="matrix(10.9091,0,0,-10.9091,111.032,27.700013)"/>
<use data-text="F" xlink:href="#font_5_1" transform="matrix(10.9091,0,0,-10.9091,121.33499,27.700013)"/>
<use data-text="[" xlink:href="#font_2_12" transform="matrix(10.9091,0,0,-10.9091,128.00099,27.700013)"/>
<use data-text="x" xlink:href="#font_3_6" transform="matrix(10.9091,0,0,-10.9091,131.032,27.700013)"/>
<use data-text="]" xlink:href="#font_2_13" transform="matrix(10.9091,0,0,-10.9091,137.267,27.700013)"/>
<use data-text="," xlink:href="#font_3_1" transform="matrix(10.9091,0,0,-10.9091,140.297,27.700013)"/>
<use data-text="g" xlink:href="#font_3_3" transform="matrix(10.9091,0,0,-10.9091,145.15155,27.700013)"/>
<use data-text="&#x0338;" xlink:href="#font_4_5" transform="matrix(10.9091,0,0,-10.9091,153.76999,27.700013)"/>
<use data-text="=" xlink:href="#font_2_5" transform="matrix(10.9091,0,0,-10.9091,153.76999,27.700013)"/>
<use data-text="0" xlink:href="#font_2_4" transform="matrix(10.9091,0,0,-10.9091,165.29,27.700013)"/>
<use data-text="O" xlink:href="#font_1_5" transform="matrix(10.9091,0,0,-10.9091,.63098528,41.249025)"/>
<use data-text="u" xlink:href="#font_1_18" transform="matrix(10.9091,0,0,-10.9091,10.056446,41.249025)"/>
<use data-text="t" xlink:href="#font_1_17" transform="matrix(10.9091,0,0,-10.9091,17.027363,41.249025)"/>
<use data-text="p" xlink:href="#font_1_15" transform="matrix(10.9091,0,0,-10.9091,21.903729,41.249025)"/>
<use data-text="u" xlink:href="#font_1_18" transform="matrix(10.9091,0,0,-10.9091,28.874646,41.249025)"/>
<use data-text="t" xlink:href="#font_1_17" transform="matrix(10.9091,0,0,-10.9091,35.845563,41.249025)"/>
<use data-text=":" xlink:href="#font_1_2" transform="matrix(10.9091,0,0,-10.9091,40.721929,41.249025)"/>
<use data-text="q" xlink:href="#font_3_4" transform="matrix(10.9091,0,0,-10.9091,49.660985,41.249025)"/>
<use data-text="," xlink:href="#font_3_1" transform="matrix(10.9091,0,0,-10.9091,54.91917,41.249025)"/>
<use data-text="r" xlink:href="#font_3_5" transform="matrix(10.9091,0,0,-10.9091,59.762815,41.249025)"/>
<use data-text="q" xlink:href="#font_3_4" transform="matrix(10.9091,0,0,-10.9091,11.539982,54.798036)"/>
<use data-text="&#x2190;" xlink:href="#font_4_3" transform="matrix(10.9091,0,0,-10.9091,19.830983,54.798036)"/>
<use data-text="0" xlink:href="#font_2_4" transform="matrix(10.9091,0,0,-10.9091,33.770986,54.798036)"/>
<use data-text="r" xlink:href="#font_3_5" transform="matrix(10.9091,0,0,-10.9091,11.539982,68.34802)"/>
<use data-text="&#x2190;" xlink:href="#font_4_3" transform="matrix(10.9091,0,0,-10.9091,19.79498,68.34802)"/>
<use data-text="f" xlink:href="#font_3_2" transform="matrix(10.9091,0,0,-10.9091,33.733983,68.34802)"/>
<use data-text="w" xlink:href="#font_1_19" transform="matrix(10.9091,0,0,-10.9091,11.539982,81.89703)"/>
<use data-text="h" xlink:href="#font_1_9" transform="matrix(10.9091,0,0,-10.9091,20.605443,81.89703)"/>
<use data-text="i" xlink:href="#font_1_10" transform="matrix(10.9091,0,0,-10.9091,27.576359,81.89703)"/>
<use data-text="l" xlink:href="#font_1_11" transform="matrix(10.9091,0,0,-10.9091,31.056363,81.89703)"/>
<use data-text="e" xlink:href="#font_1_7" transform="matrix(10.9091,0,0,-10.9091,34.536367,81.89703)"/>
<use data-text="r" xlink:href="#font_3_5" transform="matrix(10.9091,0,0,-10.9091,43.925985,81.89703)"/>
<use data-text="&#x0338;" xlink:href="#font_4_5" transform="matrix(10.9091,0,0,-10.9091,52.18098,81.89703)"/>
<use data-text="=" xlink:href="#font_2_5" transform="matrix(10.9091,0,0,-10.9091,52.18098,81.89703)"/>
<use data-text="0" xlink:href="#font_2_4" transform="matrix(10.9091,0,0,-10.9091,63.700994,81.89703)"/>
<use data-text="a" xlink:href="#font_2_14" transform="matrix(10.9091,0,0,-10.9091,72.78827,81.89703)"/>
<use data-text="n" xlink:href="#font_2_23" transform="matrix(10.9091,0,0,-10.9091,78.24281,81.89703)"/>
<use data-text="d" xlink:href="#font_2_16" transform="matrix(10.9091,0,0,-10.9091,84.30827,81.89703)"/>
<use data-text="d" xlink:href="#font_2_16" transform="matrix(10.9091,0,0,-10.9091,94.00647,81.89703)"/>
<use data-text="e" xlink:href="#font_2_17" transform="matrix(10.9091,0,0,-10.9091,100.07193,81.89703)"/>
<use data-text="g" xlink:href="#font_2_18" transform="matrix(10.9091,0,0,-10.9091,104.91557,81.89703)"/>
<use data-text="(" xlink:href="#font_2_1" transform="matrix(10.9091,0,0,-10.9091,110.52284,81.89703)"/>
<use data-text="g" xlink:href="#font_3_3" transform="matrix(10.9091,0,0,-10.9091,114.75697,81.89703)"/>
<use data-text=")" xlink:href="#font_2_2" transform="matrix(10.9091,0,0,-10.9091,120.35097,81.89703)"/>
<use data-text="&#x2264;" xlink:href="#font_4_2" transform="matrix(10.9091,0,0,-10.9091,127.62396,81.89703)"/>
<use data-text="d" xlink:href="#font_2_16" transform="matrix(10.9091,0,0,-10.9091,139.13896,81.89703)"/>
<use data-text="e" xlink:href="#font_2_17" transform="matrix(10.9091,0,0,-10.9091,145.20442,81.89703)"/>
<use data-text="g" xlink:href="#font_2_18" transform="matrix(10.9091,0,0,-10.9091,150.04807,81.89703)"/>
<use data-text="(" xlink:href="#font_2_1" transform="matrix(10.9091,0,0,-10.9091,155.65534,81.89703)"/>
<use data-text="r" xlink:href="#font_3_5" transform="matrix(10.9091,0,0,-10.9091,159.89696,81.89703)"/>
<use data-text=")" xlink:href="#font_2_2" transform="matrix(10.9091,0,0,-10.9091,165.12197,81.89703)"/>
<use data-text="d" xlink:href="#font_1_6" transform="matrix(10.9091,0,0,-10.9091,172.99997,81.89703)"/>
<use data-text="o" xlink:href="#font_1_14" transform="matrix(10.9091,0,0,-10.9091,179.97089,81.89703)"/>
<use data-text="q" xlink:href="#font_3_4" transform="matrix(10.9091,0,0,-10.9091,27.902974,101.18201)"/>
<use data-text="&#x2190;" xlink:href="#font_4_3" transform="matrix(10.9091,0,0,-10.9091,36.194974,101.18201)"/>
<use data-text="q" xlink:href="#font_3_4" transform="matrix(10.9091,0,0,-10.9091,50.133977,101.18201)"/>
<use data-text="+" xlink:href="#font_2_3" transform="matrix(10.9091,0,0,-10.9091,57.819974,101.18201)"/>
<use data-text="L" xlink:href="#font_2_7" transform="matrix(10.9091,0,0,-10.9091,70.10997,93.802)"/>
<use data-text="T" xlink:href="#font_2_10" transform="matrix(10.9091,0,0,-10.9091,76.022708,93.802)"/>
<use data-text="(" xlink:href="#font_2_1" transform="matrix(10.9091,0,0,-10.9091,83.89908,93.802)"/>
<use data-text="r" xlink:href="#font_3_5" transform="matrix(10.9091,0,0,-10.9091,88.13997,93.802)"/>
<use data-text=")" xlink:href="#font_2_2" transform="matrix(10.9091,0,0,-10.9091,93.364978,93.802)"/>
<path transform="matrix(1,0,0,-1,69.923999,98.45502)" stroke-width=".436" stroke-linecap="butt" stroke-miterlimit="10" stroke-linejoin="miter" fill="none" stroke="#34343c" d="M0 0H27.867"/>
<use data-text="L" xlink:href="#font_2_7" transform="matrix(10.9091,0,0,-10.9091,69.923999,108.66504)"/>
<use data-text="T" xlink:href="#font_2_10" transform="matrix(10.9091,0,0,-10.9091,75.83673,108.66504)"/>
<use data-text="(" xlink:href="#font_2_1" transform="matrix(10.9091,0,0,-10.9091,83.713108,108.66504)"/>
<use data-text="g" xlink:href="#font_3_3" transform="matrix(10.9091,0,0,-10.9091,87.955,108.66504)"/>
<use data-text=")" xlink:href="#font_2_2" transform="matrix(10.9091,0,0,-10.9091,93.548999,108.66504)"/>
<use data-text="r" xlink:href="#font_3_5" transform="matrix(10.9091,0,0,-10.9091,27.902997,127.95105)"/>
<use data-text="&#x2190;" xlink:href="#font_4_3" transform="matrix(10.9091,0,0,-10.9091,36.157995,127.95105)"/>
<use data-text="r" xlink:href="#font_3_5" transform="matrix(10.9091,0,0,-10.9091,50.097997,127.95105)"/>
<use data-text="&#x2212;" xlink:href="#font_4_1" transform="matrix(10.9091,0,0,-10.9091,57.746999,127.95105)"/>
<use data-text="L" xlink:href="#font_2_7" transform="matrix(10.9091,0,0,-10.9091,70.035999,120.571048)"/>
<use data-text="T" xlink:href="#font_2_10" transform="matrix(10.9091,0,0,-10.9091,75.94873,120.571048)"/>
<use data-text="(" xlink:href="#font_2_1" transform="matrix(10.9091,0,0,-10.9091,83.8251,120.571048)"/>
<use data-text="r" xlink:href="#font_3_5" transform="matrix(10.9091,0,0,-10.9091,88.067,120.571048)"/>
<use data-text=")" xlink:href="#font_2_2" transform="matrix(10.9091,0,0,-10.9091,93.291,120.571048)"/>
<path transform="matrix(1,0,0,-1,69.851,125.224)" stroke-width=".436" stroke-linecap="butt" stroke-miterlimit="10" stroke-linejoin="miter" fill="none" stroke="#34343c" d="M0 0H27.867"/>
<use data-text="L" xlink:href="#font_2_7" transform="matrix(10.9091,0,0,-10.9091,69.851,135.43402)"/>
<use data-text="T" xlink:href="#font_2_10" transform="matrix(10.9091,0,0,-10.9091,75.76373,135.43402)"/>
<use data-text="(" xlink:href="#font_2_1" transform="matrix(10.9091,0,0,-10.9091,83.64011,135.43402)"/>
<use data-text="g" xlink:href="#font_3_3" transform="matrix(10.9091,0,0,-10.9091,87.882,135.43402)"/>
<use data-text=")" xlink:href="#font_2_2" transform="matrix(10.9091,0,0,-10.9091,93.476,135.43402)"/>
<use data-text="g" xlink:href="#font_3_3" transform="matrix(10.9091,0,0,-10.9091,98.914,127.95105)"/>
<use data-text="e" xlink:href="#font_1_7" transform="matrix(10.9091,0,0,-10.9091,11.540005,146.73303)"/>
<use data-text="n" xlink:href="#font_1_13" transform="matrix(10.9091,0,0,-10.9091,17.289097,146.73303)"/>
<use data-text="d" xlink:href="#font_1_6" transform="matrix(10.9091,0,0,-10.9091,24.260014,146.73303)"/>
<use data-text="w" xlink:href="#font_1_19" transform="matrix(10.9091,0,0,-10.9091,34.86366,146.73303)"/>
<use data-text="h" xlink:href="#font_1_9" transform="matrix(10.9091,0,0,-10.9091,43.92912,146.73303)"/>
<use data-text="i" xlink:href="#font_1_10" transform="matrix(10.9091,0,0,-10.9091,50.900037,146.73303)"/>
<use data-text="l" xlink:href="#font_1_11" transform="matrix(10.9091,0,0,-10.9091,54.38004,146.73303)"/>
<use data-text="e" xlink:href="#font_1_7" transform="matrix(10.9091,0,0,-10.9091,57.860044,146.73303)"/>
<use data-text="r" xlink:href="#font_1_16" transform="matrix(10.9091,0,0,-10.9091,11.540005,160.28205)"/>
<use data-text="e" xlink:href="#font_1_7" transform="matrix(10.9091,0,0,-10.9091,16.710919,160.28205)"/>
<use data-text="t" xlink:href="#font_1_17" transform="matrix(10.9091,0,0,-10.9091,22.46001,160.28205)"/>
<use data-text="u" xlink:href="#font_1_18" transform="matrix(10.9091,0,0,-10.9091,27.336377,160.28205)"/>
<use data-text="r" xlink:href="#font_1_16" transform="matrix(10.9091,0,0,-10.9091,34.307294,160.28205)"/>
<use data-text="n" xlink:href="#font_1_13" transform="matrix(10.9091,0,0,-10.9091,39.478208,160.28205)"/>
<use data-text="q" xlink:href="#font_3_4" transform="matrix(10.9091,0,0,-10.9091,50.077,160.28205)"/>
<use data-text="," xlink:href="#font_3_1" transform="matrix(10.9091,0,0,-10.9091,55.335187,160.28205)"/>
<use data-text="r" xlink:href="#font_3_5" transform="matrix(10.9091,0,0,-10.9091,60.18974,160.28205)"/>
<path transform="matrix(1,0,0,-1,.6310005,164.59503)" stroke-width=".398" stroke-linecap="butt" stroke-miterlimit="10" stroke-linejoin="miter" fill="none" stroke="#34343c" d="M0 0H476.221"/>
</g>
</svg>