<svg width="10844" height="5944" xmlns="http://www.w3.org/2000/svg" xmlns:xlink="http://www.w3.org/1999/xlink" xml:space="preserve" overflow="hidden"><defs><clipPath id="clip0"><rect x="629" y="493" width="10844" height="5944"/></clipPath><clipPath id="clip1"><rect x="6366" y="492" width="5107" height="5946"/></clipPath><clipPath id="clip2"><rect x="6366" y="492" width="5107" height="5946"/></clipPath><clipPath id="clip3"><rect x="6366" y="-704" width="6566" height="7904"/></clipPath><clipPath id="clip4"><rect x="6366" y="-704" width="6566" height="7904"/></clipPath><clipPath id="clip5"><rect x="6366" y="-704" width="6566" height="7904"/></clipPath><clipPath id="clip6"><rect x="629" y="492" width="5738" height="5946"/></clipPath><clipPath id="clip7"><rect x="629" y="492" width="5738" height="5946"/></clipPath><clipPath id="clip8"><rect x="-198" y="-704" width="6565" height="7904"/></clipPath><clipPath id="clip9"><rect x="-198" y="-704" width="6565" height="7904"/></clipPath><clipPath id="clip10"><rect x="-198" y="-704" width="6565" height="7904"/></clipPath></defs><g clip-path="url(#clip0)" transform="translate(-629 -493)"><g clip-path="url(#clip1)"><g clip-path="url(#clip2)"><g clip-path="url(#clip3)"><g clip-path="url(#clip4)"><path d="M0 202.854 5487.9 202.854 5487.9 7729.11 0 7729.11Z" fill="#FFFFFF" transform="matrix(1.16301 0 0 -1 6367 7199.2)"/><path d="M0 0 0-6851.7 746.009-6851.7 746.009-3425.85 746.009 0Z" fill="#030405" transform="matrix(1.16301 0 0 -1 6367 -190.832)"/><path d="M0 489.458 4730.37 489.458 4730.37 7416.59 0 7416.59Z" fill="#2F2F2F" transform="matrix(1.16301 0 0 -1 6367 7199.2)"/><path d="M0 0-303.841-907.008 16.8609-942.33 286.97-141.358" fill="#666767" transform="matrix(1.16301 0 0 -1 9200.8 5669.42)"/><path d="M0 0-405.132-1060.14-16.9027-1083.69 303.841-153.118" fill="#666767" transform="matrix(1.16301 0 0 -1 8495.82 5493.02)"/><path d="M0 0-523.305-1260.38-185.7-1236.82 303.841-70.6841" fill="#4C4C4D" transform="matrix(1.16301 0 0 -1 7828.32 5339.89)"/><path d="M0 0 0-684.043 446.224 222.924 179.345 299.775Z" fill="#666767" transform="matrix(1.16301 0 0 -1 6367 5162.35)"/><path d="M0 0 371.379 23.5509 1046.62 1425.24 708.974 1519.5Z" fill="#666767" transform="matrix(1.16301 0 0 -1 6375.5 6588.47)"/><path d="M0 0-236.335-706.768 101.27-753.891 270.109-106.005" fill="#666767" transform="matrix(1.16301 0 0 -1 9866.06 5834.34)"/><path d="M0 0-135.075-565.41 84.4091-577.17 185.669-106.005" fill="#666767" transform="matrix(1.16301 0 0 -1 10513.9 6022.82)"/><path d="M0 0 424.126 169.581Z" fill="#9A9B9B" transform="matrix(1.16301 0 0 -1 6367 1401.43)"/><path d="M0 0 0-3471.06 4683.01-5119.06 4695.05 1057.44Z" fill="#9A9B9B" transform="matrix(1.16301 0 0 -1 6367 1442.5)"/><path d="M0 0 4462.96-1210.84 4512.82 107.291 0 666.304Z" fill="#B5B5B5" transform="matrix(1.16301 0 0 -1 6367 4560.28)"/><path d="M0 0 0-608.665 4700.08-350.786 4582.27 992.16Z" fill="#B5B5B5" transform="matrix(1.16301 0 0 -1 6367 2031.85)"/><path d="M0 0 0-601.84 4549.28-1033.6 4532.01 133.832Z" fill="#B5B5B5" transform="matrix(1.16301 0 0 -1 6367 2992.14)"/><path d="M0 0-3889.87-919.678-3889.87-3749.93 354.508-5116.15 303.873 70.6946Z" fill="#F7921D" transform="matrix(1.16301 0 0 -1 10891 989.39)"/><path d="M0 0 0-1770.66 4571.43-718.287 4569.35 0Z" fill="#030405" transform="matrix(1.16301 0 0 -1 6367 -45.5944)"/><path d="M0 0 0-143.323 2503.29-995.662 3397.19-804.275 894.109 115.769Z" fill="#4C4C4D" transform="matrix(1.16301 0 0 -1 6367 -59.311)"/><path d="M0 0 1360.9-583.327 1418.64 103.601-82.4857 46.0252" fill="#2F2F2F" transform="matrix(1.16301 0 0 -1 10182 -126.399)"/><path d="M0 0 1009.59-331.73 2080.17-90.9737 0 660.774Z" fill="#4C4C4D" transform="matrix(1.16301 0 0 -1 6367 951.33)"/><path d="M0 0 718.078 168.724 0 396.488Z" fill="#4C4C4D" transform="matrix(1.16301 0 0 -1 6367 1542.28)"/><path d="M0 0 96.9006-4203.79-3429.73-3091.52-3394.32-696.89Z" fill="#0090D1" transform="matrix(1.16301 0 0 -1 10840.6 1383.22)"/><path d="M0 0-6.28234-1849.63-2820.87-1630.86-2811.89-438.75Z" fill="#030405" transform="matrix(1.16301 0 0 -1 10523 1734.87)"/><path d="M0 0-2086.96 149.971-2113.78 1061.28-33.0006 1289.25" fill="#EE2C2F" transform="matrix(1.16301 0 0 -1 10058.3 3352.36)"/><path d="M0 0-2859.3 235.154-2885.19-621.638 45.3666-1401.54Z" fill="#FFFFFF" transform="matrix(1.16301 0 0 -1 10525.8 3760.12)"/><path d="M0 0-2229.58 250.51-2279.07-347.807 10.2963-895.008Z" fill="#030405" transform="matrix(1.16301 0 0 -1 10233.3 3939.83)"/><path d="M0 0-71.0814-360.382 1768.46-732.577 1768.46-224.899Z" fill="#EE2C2F" transform="matrix(1.16301 0 0 -1 7936.59 3861.84)"/><path d="M0 0 1961.76-759.327 2749.18-585.376 1335.56 27.2304" fill="#4C4C4D" transform="matrix(1.16301 0 0 -1 8336.45 -86.6355)"/><path d="M0 0 126.953-41.6244 120.211 1102.99 0 1120.29Z" fill="#FFFFFF" transform="matrix(1.16301 0 0 -1 6367 4460.67)"/><path d="M0 0 0-945.215 112.371-955.898 87.1792 12.3765Z" fill="#030405" transform="matrix(1.16301 0 0 -1 6367 2203.17)"/><path d="M531.887 1792.1 4075.18 1792.1 4075.18 847.562 531.887 847.562Z" fill="#030405" fill-rule="evenodd" transform="matrix(1.16301 0 0 -1 6367 7199.2)"/><g clip-path="url(#clip5)"><path d="M0 0C9.09423-5.63424 16.2024-11.9479 21.3244-18.9306 26.4569-25.9133 30.0423-34.8299 32.0911-45.6593 34.14-56.4783 35.1644-70.3496 35.1644-87.2733 35.1644-99.9634 35.4571-109.319 36.032-115.34 36.6069-121.361 37.7567-125.95 39.492-129.086 41.2272-132.222 43.3074-134.271 45.7325-135.232 48.1681-136.194 52.3389-137.124 58.2344-138.023 63.1056-138.661 67.1405-141.034 70.3392-145.142 73.5483-149.239 75.1476-154.623 75.1476-161.281 75.1476-176.794 65.7293-184.54 46.8928-184.54 35.2375-184.54 24.8262-182.104 15.6588-177.233 6.50185-172.372-0.574923-165.484-5.57152-156.578-10.5681-147.661-13.1291-137.448-13.2546-125.919-13.6413-106.434-14.0281-90.796-14.4149-79.0048-14.7912-67.2137-15.3661-59.5934-16.1396-56.1334-18.063-47.5409-20.9167-41.0704-24.7008-36.7219-28.4744-32.3629-33.4082-28.2862-39.5024-24.5126-45.5861-20.7286-49.9137-17.3313-52.4748-14.3208-55.0358-11.3103-56.3215-6.53321-56.3215 0-56.3215 9.481-52.6002 16.5996-45.168 21.3349-35.9379 27.105-29.3733 32.0075-25.4639 36.0424-21.5544 40.0773-18.7947 45.2725-17.1954 51.6176-15.5961 57.9627-14.6658 64.8826-14.4149 72.3775-14.1536 79.8724-13.7668 97.9146-13.2546 126.493-12.8678 144.18-7.26493 158.313 3.55407 168.881 14.3835 179.46 28.8298 184.738 46.8928 184.738 65.7293 184.738 75.1476 177.118 75.1476 161.867 75.1476 154.947 73.5797 149.501 70.4437 145.529 67.3078 141.556 63.231 139.246 58.2344 138.609 50.8023 137.584 45.6071 136.037 42.6593 133.988 39.7115 131.94 37.7986 127.967 36.8996 122.072 36.0006 116.176 35.4257 104.772 35.1644 87.8586 34.9135 71.3218 33.9204 57.7745 32.1957 47.1959 30.4605 36.6174 27.0632 27.6172 22.0039 20.185 16.9445 12.7528 9.60644 6.02101 0 0" fill="#FFFFFF" transform="matrix(1.16301 0 0 -1 9907.94 5843.18)"/><path d="M0 0C-6.91998 4.35896-12.5542 8.90608-16.9132 13.6518-21.2721 18.3871-24.8576 24.1572-27.6799 30.9517-30.5023 37.7463-32.4884 45.7848-33.6382 55.0776-34.7881 64.3704-35.363 75.294-35.363 87.8586-35.363 100.026-35.6243 109.35-36.1365 115.831-36.6487 122.302-37.6731 127.006-39.2097 129.953-40.7463 132.901-42.8892 134.919-45.6489 136.006-48.4085 137.103-52.6002 137.961-58.2449 138.609-62.9802 139.246-66.9837 141.556-70.2556 145.529-73.5274 149.501-75.1581 154.947-75.1581 161.867-75.1581 177.118-65.8652 184.738-47.2796 184.738-35.363 184.738-24.8889 182.334-15.8574 177.536-6.8259 172.728 0.282235 165.87 5.47745 156.964 10.6622 148.058 13.3278 137.898 13.4532 126.493 14.2163 83.9492 15.1152 60.555 16.1396 56.332 18.1885 47.8649 21.2094 41.4258 25.1816 37.0041 29.1538 32.5824 33.9623 28.673 39.5965 25.2861 45.2412 21.8889 49.4329 18.523 52.1821 15.1884 54.9417 11.8539 56.3215 6.79454 56.3215 0 56.3215-9.60644 52.6629-16.6519 45.3562-21.1467 36.3874-26.6555 29.8855-31.4953 25.8506-35.6557 21.8157-39.8265 18.9934-45.0112 17.394-51.2308 15.7947-57.44 14.833-66.7642 14.509-79.2034 14.1849-91.6322 13.84-107.197 13.4532-125.919 13.0664-143.595 7.40082-157.79-3.55407-168.484-14.509-179.188-29.0806-184.54-47.2796-184.54-56.2483-184.54-63.1474-182.554-67.9454-178.581-72.7539-174.609-75.1581-168.839-75.1581-161.281-75.1581-157.058-74.3845-153.18-72.8479-149.658-71.3113-146.135-69.2939-143.407-66.7956-141.483-64.2973-139.56-61.4436-138.41-58.2449-138.023-52.4748-137.25-48.1785-136.288-45.3562-135.138-42.5443-133.988-40.3909-131.804-38.917-128.605-37.4431-125.396-36.4919-120.692-36.0424-114.472-35.5929-108.263-35.363-99.1898-35.363-87.2733-35.1121-69.5866-34.0877-55.7466-32.3002-45.7534-30.5023-35.7602-27.105-27.1677-22.1084-19.9969-17.1118-12.8155-9.74233-6.14645 0 0" fill="#FFFFFF" transform="matrix(1.16301 0 0 -1 10446 5843.18)"/><path d="M0 0C5.70741-3.54361 10.1709-7.50535 13.3905-11.8852 16.61-16.2755 18.8575-21.868 20.1432-28.6625 21.4394-35.4571 22.077-44.1645 22.077-54.7849 22.077-62.7502 22.2547-68.6249 22.6206-72.4089 22.9865-76.1929 23.7077-79.0676 24.7948-81.0327 25.882-83.0084 27.1886-84.2941 28.7148-84.9004 30.2409-85.5067 32.8542-86.0921 36.5651-86.6461 39.6174-87.0537 42.1471-88.5381 44.1645-91.12 46.1715-93.6915 47.1855-97.0679 47.1855-101.249 47.1855-110.991 41.269-115.852 29.436-115.852 22.1188-115.852 15.5856-114.326 9.8364-111.263 4.08718-108.211-0.355407-103.883-3.5018-98.2909-6.63774-92.7089-8.24753-86.2907-8.3207-79.0466-8.56112-66.8165-8.80154-57.001-9.05242-49.6002-9.29284-42.1993-9.64825-37.4118-10.1291-35.2375-11.3417-29.8437-13.1291-25.7879-15.502-23.0492-17.8749-20.3105-20.969-17.7599-24.7948-15.387-28.6207-13.0142-31.3281-10.8817-32.9378-8.9897-34.5476-7.09768-35.3525-4.09763-35.3525 0-35.3525 5.95829-33.0215 10.4218-28.3594 13.4009-22.5683 17.0177-18.4393 20.0909-15.9933 22.631-13.5368 25.1607-11.8016 28.4221-10.7981 32.4047-9.79459 36.3874-9.20922 40.7359-9.05242 45.4398-8.88517 50.1437-8.64475 61.4645-8.3207 79.4125-8.08028 90.5137-4.55757 99.3885 2.23697 106.026 9.03151 112.664 18.0944 115.978 29.436 115.978 41.269 115.978 47.1855 111.19 47.1855 101.615 47.1855 97.2769 46.1924 93.8587 44.2272 91.3604 42.2516 88.8622 39.701 87.4196 36.5651 87.0119 31.8925 86.3743 28.6312 85.4022 26.7809 84.1164 24.9307 82.8307 23.7286 80.3324 23.1642 76.632 22.5997 72.9316 22.2338 65.7712 22.077 55.1508 21.9202 44.7813 21.293 36.2724 20.2059 29.6242 19.1188 22.9865 16.9864 17.3418 13.8191 12.6692 10.6413 8.0071 6.03146 3.78404 0 0" fill="#EE2C2F" transform="matrix(1.16301 0 0 -1 10038.2 5849.67)"/><path d="M0 0C-4.33805 2.73872-7.88167 5.59243-10.6204 8.57158-13.3591 11.5507-15.6065 15.1675-17.3836 19.4324-19.1502 23.6973-20.3941 28.7461-21.1153 34.579-21.8366 40.4118-22.2025 47.2691-22.2025 55.1508-22.2025 62.8025-22.3593 68.6562-22.6833 72.712-23.0074 76.7783-23.645 79.7365-24.6171 81.5868-25.5788 83.437-26.9273 84.7018-28.6625 85.3812-30.3873 86.0712-33.0215 86.6147-36.5651 87.0119-39.5442 87.4196-42.053 88.8622-44.1018 91.3604-46.1611 93.8587-47.1855 97.2769-47.1855 101.615-47.1855 111.19-41.3526 115.978-29.6869 115.978-22.2025 115.978-15.6274 114.472-9.95139 111.451-4.28579 108.441 0.177703 104.134 3.43908 98.5418 6.70046 92.9493 8.36251 86.5729 8.44614 79.4125 8.92698 52.7047 9.49145 38.0181 10.1291 35.363 11.4253 30.0528 13.3068 26.0074 15.8051 23.2373 18.3034 20.4568 21.314 18.0003 24.8576 15.8679 28.4012 13.7354 31.0354 11.6239 32.7601 9.53326 34.4954 7.44264 35.3525 4.26488 35.3525 0 35.3525-6.03146 33.0633-10.4531 28.4744-13.2755 22.8506-16.7355 18.7634-19.7669 16.2233-22.3906 13.6936-25.0039 11.927-28.2548 10.9131-32.1643 9.90958-36.0633 9.31375-41.9171 9.10468-49.7256 8.90608-57.5236 8.68656-67.2973 8.44614-79.0466 8.20572-90.1479 4.64119-99.0644-2.23697-105.775-9.10468-112.497-18.2616-115.852-29.6869-115.852-35.3107-115.852-39.6383-114.608-42.6593-112.11-45.6802-109.622-47.1855-105.995-47.1855-101.249-47.1855-98.594-46.7046-96.1584-45.7325-93.9528-44.7708-91.7368-43.506-90.0329-41.938-88.8203-40.37-87.6182-38.5721-86.8865-36.5651-86.6461-32.9378-86.1652-30.2409-85.559-28.4744-84.8377-26.7078-84.1164-25.3593-82.7471-24.429-80.7401-23.5091-78.7226-22.9028-75.7644-22.631-71.8653-22.3384-67.9663-22.2025-62.2694-22.2025-54.7849-22.0457-43.6837-21.3976-34.9971-20.2791-28.7252-19.1502-22.4429-17.0177-17.0595-13.8818-12.5542-10.7458-8.04892-6.11509-3.85721 0 0" fill="#EE2C2F" transform="matrix(1.16301 0 0 -1 10304.1 5849.67)"/><path d="M0 0C5.70741-3.54361 10.1709-7.50535 13.3905-11.8852 16.61-16.2755 18.8575-21.868 20.1432-28.6625 21.4394-35.4571 22.077-44.1645 22.077-54.7849 22.077-62.7502 22.2547-68.6249 22.6206-72.4089 22.9865-76.1929 23.7077-79.0676 24.7948-81.0327 25.882-83.0084 27.1886-84.2941 28.7148-84.9004 30.2409-85.5067 32.8542-86.0921 36.5651-86.6461 39.6174-87.0537 42.1471-88.5381 44.1645-91.12 46.1715-93.6915 47.1855-97.0679 47.1855-101.249 47.1855-110.991 41.269-115.852 29.436-115.852 22.1188-115.852 15.5856-114.326 9.8364-111.263 4.08718-108.211-0.355407-103.883-3.5018-98.2909-6.63774-92.7089-8.24753-86.2907-8.3207-79.0466-8.56112-66.8165-8.80154-57.001-9.05242-49.6002-9.29284-42.1993-9.64825-37.4118-10.1291-35.2375-11.3417-29.8437-13.1291-25.7879-15.502-23.0492-17.8749-20.3105-20.969-17.7599-24.7948-15.387-28.6207-13.0142-31.3281-10.8817-32.9378-8.9897-34.5476-7.09768-35.3525-4.09763-35.3525 0-35.3525 5.95829-33.0215 10.4218-28.3594 13.4009-22.5683 17.0177-18.4393 20.0909-15.9829 22.631-13.5368 25.1607-11.8016 28.4221-10.7981 32.4047-9.79459 36.3874-9.20922 40.7359-9.05242 45.4398-8.88517 50.1437-8.64475 61.4645-8.3207 79.4125-8.08028 90.5137-4.55757 99.3885 2.23697 106.026 9.03151 112.664 18.0944 115.978 29.436 115.978 41.269 115.978 47.1855 111.19 47.1855 101.615 47.1855 97.2769 46.1924 93.8587 44.2272 91.3604 42.2516 88.8622 39.701 87.4196 36.5651 87.0119 31.8925 86.3743 28.6312 85.4022 26.7809 84.1164 24.9307 82.8307 23.7286 80.3324 23.1642 76.632 22.5997 72.9316 22.2338 65.7712 22.077 55.1508 21.9202 44.7813 21.293 36.2724 20.2059 29.6242 19.1188 22.9865 16.9864 17.3418 13.8191 12.6692 10.6413 8.0071 6.03146 3.78404 0 0" fill="#EE2C2F" transform="matrix(1.16301 0 0 -1 9335.08 5851.4)"/><path d="M0 0C-4.33805 2.73872-7.88167 5.59243-10.6204 8.57158-13.3591 11.5507-15.6065 15.1675-17.3836 19.4324-19.1502 23.6973-20.3941 28.7461-21.1153 34.579-21.8366 40.4118-22.2025 47.2691-22.2025 55.1508-22.2025 62.8025-22.3593 68.6562-22.6833 72.712-23.0074 76.7783-23.645 79.7365-24.6171 81.5868-25.5788 83.437-26.9273 84.7018-28.6625 85.3812-30.3873 86.0712-33.0215 86.6147-36.5651 87.0119-39.5442 87.4196-42.053 88.8622-44.1018 91.3604-46.1611 93.8587-47.1855 97.2769-47.1855 101.615-47.1855 111.19-41.3526 115.978-29.6869 115.978-22.2025 115.978-15.6274 114.472-9.95139 111.451-4.28579 108.441 0.177703 104.134 3.43908 98.5418 6.70046 92.9493 8.36251 86.5729 8.44614 79.4125 8.92698 52.7047 9.49145 38.0181 10.1291 35.363 11.4253 30.0528 13.3068 26.0074 15.8051 23.2373 18.3034 20.4568 21.314 18.0003 24.8576 15.8679 28.4012 13.7354 31.0354 11.6239 32.7601 9.53326 34.4954 7.44264 35.3525 4.26488 35.3525 0 35.3525-6.03146 33.0633-10.4531 28.4744-13.2755 22.8506-16.7355 18.7634-19.7669 16.2233-22.3906 13.6936-25.0039 11.927-28.2548 10.9131-32.1643 9.90958-36.0633 9.31375-41.9171 9.10468-49.7256 8.90608-57.5236 8.68656-67.2973 8.44614-79.0466 8.20572-90.1479 4.64119-99.0644-2.23697-105.775-9.10468-112.497-18.2616-115.852-29.6869-115.852-35.3107-115.852-39.6383-114.608-42.6593-112.11-45.6802-109.622-47.1855-105.995-47.1855-101.249-47.1855-98.594-46.7046-96.1584-45.7325-93.9528-44.7708-91.7368-43.506-90.0329-41.938-88.8203-40.37-87.6182-38.5721-86.8865-36.5651-86.6461-32.9378-86.1652-30.2409-85.559-28.4744-84.8377-26.7078-84.1164-25.3593-82.7471-24.429-80.7401-23.5091-78.7226-22.9028-75.7644-22.631-71.8653-22.3384-67.9663-22.2025-62.2694-22.2025-54.7849-22.0457-43.6837-21.3976-34.9971-20.2791-28.7252-19.1502-22.4429-17.0177-17.0595-13.8818-12.5542-10.7458-8.04892-6.11509-3.85721 0 0" fill="#EE2C2F" transform="matrix(1.16301 0 0 -1 9601.02 5851.4)"/><path d="M0 0C-11.8748-7.35901-21.1572-15.6065-27.8472-24.7217-34.5372-33.8368-39.2306-45.4712-41.9066-59.6143-44.5826-73.7469-45.9206-91.8622-45.9206-113.95-45.9206-130.518-46.297-142.738-47.0391-150.598-47.8022-158.47-49.3075-164.449-51.5653-168.546-53.8232-172.644-56.541-175.32-59.7188-176.574-62.8965-177.839-68.3426-179.052-76.0361-180.212-82.3917-181.059-87.66-184.153-91.8517-189.505-96.033-194.867-98.1236-201.892-98.1236-210.589-98.1236-230.837-85.8307-240.966-61.224-240.966-46.0043-240.966-32.4152-237.778-20.4463-231.422-8.48795-225.067 0.752626-216.066 7.27539-204.443 13.7981-192.808 17.1432-179.47 17.3104-164.407 17.8122-138.975 18.3139-118.56 18.8157-103.162 19.3174-87.7646 20.07-77.8027 21.0735-73.2974 23.5927-62.0812 27.3141-53.6351 32.2479-47.9486 37.1818-42.2516 43.621-36.9414 51.5758-31.9971 59.5202-27.0632 65.1649-22.631 68.5099-18.7007 71.8653-14.7598 73.5378-8.52976 73.5378 0 73.5378 12.387 68.6771 21.6694 58.9766 27.8681 46.9346 35.3943 38.3526 41.7917 33.2514 47.06 28.1399 52.3389 24.544 59.1125 22.4533 67.4018 20.3627 75.6807 19.1502 84.7122 18.8157 94.5068 18.4812 104.291 17.9794 127.842 17.3104 165.16 16.8086 188.261 9.49145 206.711-4.64119 220.509-18.7738 234.318-37.6418 241.217-61.224 241.217-85.8307 241.217-98.1236 231.265-98.1236 211.352-98.1236 202.31-96.0748 195.202-91.9772 190.017-87.8795 184.822-82.5694 181.811-76.0361 180.975-66.3356 179.637-59.5515 177.63-55.7048 174.954-51.858 172.278-49.3493 167.093-48.1785 159.389-47.0078 151.696-46.2551 136.8-45.9206 114.713-45.5861 93.127-44.29 75.4299-42.0321 61.6213-39.7742 47.8127-35.3421 36.0633-28.7357 26.3524-22.1188 16.6519-12.5438 7.87121 0 0" fill="#0090D1" transform="matrix(1.16301 0 0 -1 10649.6 5841.42)"/><path d="M0 0C-9.40783 0-17.5299 2.88507-24.3663 8.66565-31.2026 14.4462-34.6208 22.537-34.6208 32.9483-34.6208 41.938-31.2758 49.4956-24.5858 55.6316-17.8853 61.7572-9.9723 64.8304-0.857158 64.8304 5.9792 64.8304 12.1779 62.9697 17.7285 59.2589 23.2896 55.5584 27.6381 50.1019 30.774 42.8997 33.91 35.6975 35.478 26.8123 35.478 16.2546 35.478 2.14289 32.4779-11.0908 26.4987-23.4255 20.5195-35.7602 13.2128-45.5339 4.58893-52.7361-4.02446-59.9383-11.833-63.5446-18.8157-63.5446-23.2269-63.5446-26.8228-62.0812-29.6033-59.1543-32.3838-56.2274-33.7741-52.8511-33.7741-48.9939-33.7741-43.1401-30.8472-38.4362-25.0039-34.8717-8.33115-25.5997 0-13.9758 0 0" fill="#0090D1" transform="matrix(1.16301 0 0 -1 9741.06 5981.37)"/><path d="M0 0C16.9759-10.5263 30.2514-22.307 39.8056-35.3421 49.3702-48.3771 56.0706-64.9976 59.8965-85.214 63.7223-105.42 65.6457-131.312 65.6457-162.891 65.6457-186.578 66.1788-204.035 67.245-215.282 68.3322-226.53 70.4855-235.081 73.7155-240.934 76.9456-246.799 80.8237-250.624 85.3708-252.412 89.9179-254.21 97.695-255.945 108.702-257.618 117.786-258.82 125.312-263.241 131.291-270.904 137.281-278.555 140.271-288.601 140.271-301.04 140.271-329.985 122.689-344.452 87.5241-344.452 65.7607-344.452 46.3283-339.905 29.2374-330.811 12.1361-321.727-1.07667-308.869-10.4009-292.238-19.7251-275.618-24.5022-256.541-24.7426-235.018-25.4639-198.662-26.1851-169.477-26.9064-147.473-27.6172-125.459-28.6939-111.221-30.1259-104.772-33.7218-88.7472-39.0425-76.6633-46.0983-68.5308-53.1438-60.3982-62.353-52.7988-73.726-45.7429-85.0781-38.6871-93.1584-32.3525-97.9355-26.7287-102.723-21.1049-105.117-12.1988-105.117 0-105.117 17.7076-98.1759 30.9831-84.315 39.8265-67.0883 50.5932-54.8267 59.7397-47.5304 67.266-40.2341 74.8131-35.0912 84.5032-32.1016 96.3466-29.112 108.18-27.3768 121.1-26.9064 135.096-26.4151 149.083-25.7043 182.752-24.7426 236.095-24.0213 269.116-13.5682 295.489 6.63774 315.214 26.8437 334.95 53.8023 344.818 87.5241 344.818 122.689 344.818 140.271 330.581 140.271 302.117 140.271 289.207 137.344 279.036 131.48 271.625 125.626 264.203 118.026 259.896 108.702 258.705 94.8204 256.792 85.1304 253.917 79.6216 250.091 74.1337 246.266 70.5482 238.854 68.8653 227.847 67.1928 216.84 66.1161 195.557 65.6457 163.978 65.1649 133.131 63.3147 107.824 60.0847 88.0886 56.8546 68.3531 50.52 51.5444 41.0704 37.6731 31.6208 23.8018 17.9376 11.2476 0 0" fill="#F7921D" transform="matrix(1.16301 0 0 -1 7280.8 5856.07)"/><path d="M0 0C-16.9759-10.5263-30.2514-22.307-39.8056-35.3421-49.3702-48.3771-56.0706-64.9976-59.8965-85.214-63.7223-105.42-65.6457-131.312-65.6457-162.891-65.6457-186.578-66.1788-204.035-67.245-215.282-68.3322-226.53-70.4855-235.081-73.7155-240.934-76.9456-246.799-80.8237-250.624-85.3708-252.412-89.9179-254.21-97.695-255.945-108.702-257.618-117.786-258.82-125.312-263.241-131.291-270.904-137.281-278.555-140.271-288.601-140.271-301.04-140.271-329.985-122.689-344.452-87.5241-344.452-65.7607-344.452-46.3283-339.905-29.2374-330.811-12.1361-321.727 1.07667-308.869 10.4009-292.238 19.7251-275.618 24.5022-256.541 24.7426-235.018 25.4639-198.662 26.1851-169.477 26.9064-147.473 27.6172-125.459 28.6939-111.221 30.1259-104.772 33.7218-88.7367 39.0425-76.6633 46.0983-68.5308 53.1438-60.3982 62.353-52.7988 73.726-45.7429 85.0781-38.6871 93.1584-32.3525 97.9355-26.7287 102.723-21.1049 105.117-12.1884 105.117 0 105.117 17.7076 98.1759 30.9831 84.315 39.8265 67.0883 50.5932 54.8267 59.7397 47.5304 67.266 40.2341 74.8131 35.0912 84.5032 32.1016 96.3466 29.112 108.18 27.3768 121.1 26.9064 135.096 26.4151 149.083 25.7043 182.752 24.7426 236.095 24.0213 269.116 13.5682 295.489-6.63774 315.214-26.8437 334.95-53.8023 344.818-87.5241 344.818-122.689 344.818-140.271 330.581-140.271 302.117-140.271 289.207-137.344 279.036-131.48 271.625-125.626 264.203-118.026 259.896-108.702 258.705-94.8204 256.792-85.1304 253.917-79.6216 250.091-74.1337 246.266-70.5482 238.854-68.8653 227.847-67.1928 216.84-66.1161 195.557-65.6457 163.978-65.1649 133.131-63.3147 107.824-60.0847 88.0886-56.8546 68.3531-50.52 51.5444-41.0704 37.6731-31.6208 23.8018-17.9376 11.2476 0 0" fill="#F7921D" transform="matrix(1.16301 0 0 -1 10852.5 5832.41)"/><path d="M0 0C10.7145-6.63774 19.0874-14.0699 25.1189-22.2965 31.1504-30.5232 35.3734-41.0077 37.7881-53.7605 40.2028-66.5133 41.4153-82.8516 41.4153-102.775 41.4153-117.713 41.7498-128.73 42.4293-135.828 43.1087-142.926 44.4677-148.32 46.506-152.01 48.5444-155.71 51.0009-158.125 53.8546-159.254 56.7292-160.393 61.6317-161.48 68.5831-162.536 74.3114-163.299 79.0676-166.09 82.8411-170.919 86.6147-175.749 88.4963-182.083 88.4963-189.934 88.4963-208.195 77.4055-217.321 55.2239-217.321 41.4885-217.321 29.2374-214.457 18.4393-208.718 7.66215-202.979-0.679454-194.878-6.56457-184.383-12.4497-173.898-15.4602-161.856-15.6065-148.278-16.0665-125.344-16.516-106.925-16.9759-93.0434-17.4254-79.1512-18.1048-70.1719-19.0038-66.1057-21.2721-55.987-24.6276-48.3667-29.0806-43.2446-33.5337-38.1017-39.3456-33.3142-46.5165-28.8611-53.6769-24.4081-58.778-20.4045-61.7885-16.8609-64.8095-13.3173-66.3147-7.69351-66.3147 0-66.3147 11.1744-61.9453 19.5474-53.196 25.1293-42.3248 31.9239-34.5894 37.694-29.9901 42.4398-25.3802 47.1959-22.1398 53.311-20.2582 60.785-18.3662 68.259-17.2686 76.402-16.9759 85.2349-16.6728 94.0574-16.2128 115.309-15.6065 148.957-15.1571 169.79-8.56112 186.432 4.19171 198.881 16.9341 211.331 33.9518 217.551 55.2239 217.551 77.4055 217.551 88.4963 208.572 88.4963 190.613 88.4963 182.47 86.6565 176.052 82.9561 171.369 79.2557 166.696 74.4682 163.978 68.5831 163.226 59.8233 162.013 53.7082 160.205 50.2378 157.79 46.7673 155.375 44.5095 150.692 43.4537 143.752 42.3875 136.811 41.7185 123.378 41.4153 103.465 41.1122 83.991 39.9414 68.029 37.9031 55.5793 35.8752 43.1297 31.8716 32.5197 25.9133 23.7704 19.955 15.0212 11.3103 7.09768 0 0" fill="#FFFFFF" transform="matrix(1.16301 0 0 -1 8157.32 5864.43)"/><path d="M0 0C-8.143 5.13249-14.7912 10.495-19.9237 16.0769-25.0457 21.6589-29.2792 28.443-32.6033 36.4501-35.917 44.4468-38.2585 53.9173-39.6069 64.8513-40.9659 75.7957-41.6453 88.6635-41.6453 103.465-41.6453 117.796-41.9485 128.783-42.5547 136.403-43.1506 144.023-44.3631 149.564-46.1715 153.034-47.9799 156.504-50.5096 158.877-53.7605 160.163-57.001 161.449-61.9453 162.473-68.5831 163.226-74.165 163.978-78.8898 166.696-82.7366 171.369-86.5834 176.052-88.5067 182.47-88.5067 190.613-88.5067 208.572-77.5623 217.551-55.6734 217.551-41.6453 217.551-29.3106 214.728-18.6798 209.063-8.03846 203.408 0.3345 195.327 6.44959 184.843 12.5647 174.348 15.6902 162.39 15.847 148.957 16.7459 98.8553 17.8017 71.3113 19.0038 66.3356 21.4185 56.3738 24.9726 48.7848 29.6451 43.5791 34.3281 38.3735 39.9937 33.7741 46.6315 29.7705 53.2692 25.7774 58.2135 21.8157 61.454 17.8853 64.6945 13.9654 66.3147 8.0071 66.3147 0 66.3147-11.3103 62.0185-19.6101 53.4155-24.8994 42.8579-31.3908 35.1957-37.0877 30.4395-41.9903 25.6834-46.8928 22.3697-53.0079 20.4777-60.3251 18.5961-67.6423 17.4672-78.6285 17.0804-93.2629 16.7041-107.908 16.2964-126.243 15.847-148.278 15.387-169.1 8.70747-185.815-4.19171-198.411-17.0909-211.018-34.2549-217.321-55.6734-217.321-66.2415-217.321-74.3532-214.979-80.0188-210.307-85.6739-205.624-88.5067-198.829-88.5067-189.934-88.5067-184.947-87.6078-180.379-85.7889-176.229-83.9805-172.09-81.6077-168.881-78.6599-166.613-75.7225-164.344-72.3566-162.985-68.5831-162.536-61.7885-161.637-56.7396-160.498-53.4155-159.139-50.0914-157.78-47.5722-155.219-45.837-151.445-44.1018-147.672-42.9729-142.131-42.4398-134.804-41.9066-127.486-41.6453-116.814-41.6453-102.775-41.3422-81.9526-40.1401-65.6457-38.0285-53.8859-35.917-42.1052-31.9134-31.9971-26.0388-23.5405-20.1432-15.0943-11.4671-7.24403 0 0" fill="#FFFFFF" transform="matrix(1.16301 0 0 -1 8790.96 5864.43)"/><path d="M0 0C6.72137-4.1708 11.9793-8.8329 15.7633-13.9968 19.5578-19.1606 22.2129-25.7461 23.7286-33.7532 25.2443-41.7603 25.997-52.0148 25.997-64.5168 25.997-73.9037 26.2165-80.8132 26.6346-85.2663 27.0632-89.7298 27.9203-93.1166 29.1956-95.4267 30.4814-97.7578 32.018-99.2735 33.8159-99.9738 35.6138-100.695 38.6975-101.375 43.0565-102.044 46.6524-102.514 49.6315-104.27 52.0044-107.301 54.3772-110.333 55.5584-114.316 55.5584-119.239 55.5584-130.706 48.5966-136.434 34.6626-136.434 26.0492-136.434 18.3557-134.636 11.5821-131.03 4.80844-127.434-0.428579-122.344-4.11854-115.758-7.8085-109.173-9.71097-101.615-9.80505-93.0852-10.0873-78.6912-10.3695-67.1301-10.6518-58.4121-10.934-49.6942-11.3626-44.0495-11.9375-41.499-13.3591-35.1539-15.4602-30.3664-18.2616-27.1468-21.0526-23.9272-24.7008-20.9167-29.2061-18.1153-33.7009-15.3243-36.8996-12.8155-38.7916-10.589-40.6836-8.36251-41.6349-4.82935-41.6349 0-41.6349 7.01406-38.8857 12.272-33.3978 15.7738-26.5719 20.0387-21.7216 23.6659-18.8261 26.6451-15.9306 29.6347-13.9027 33.471-12.711 38.1644-11.5298 42.8474-10.8399 47.9695-10.6518 53.5096-10.4636 59.0498-10.1814 72.388-9.80505 93.5138-9.51236 106.591-5.37291 117.044 2.62374 124.852 10.6308 132.671 21.314 136.581 34.6626 136.581 48.5966 136.581 55.5584 130.946 55.5584 119.668 55.5584 114.556 54.3981 110.521 52.0775 107.584 49.757 104.646 46.7464 102.943 43.0565 102.472 37.5581 101.709 33.7218 100.58 31.5371 99.0644 29.3629 97.5487 27.9412 94.6114 27.2827 90.242 26.6137 85.8935 26.1851 77.4578 25.997 64.9558 25.8088 52.7256 25.0771 42.7115 23.8018 34.8926 22.5161 27.0736 20.0073 20.415 16.2651 14.9166 12.5229 9.42873 7.10814 4.45304 0 0" fill="#EE2C2F" transform="matrix(1.16301 0 0 -1 8310.7 5872.07)"/><path d="M0 0C-5.11159 3.21957-9.28239 6.58548-12.502 10.0873-15.7215 13.5995-18.3766 17.8644-20.4672 22.8819-22.5474 27.8994-24.0109 33.8473-24.868 40.715-25.7147 47.5827-26.1433 55.663-26.1433 64.9558-26.1433 73.956-26.3315 80.8446-26.7182 85.6321-27.0945 90.4197-27.8472 93.9006-28.9866 96.0748-30.1259 98.2491-31.7148 99.7439-33.7532 100.549-35.7916 101.354-38.8857 102.002-43.0565 102.472-46.5583 102.943-49.527 104.646-51.9417 107.584-54.3563 110.521-55.5689 114.556-55.5689 119.668-55.5689 130.946-48.6907 136.581-34.9553 136.581-26.1433 136.581-18.3975 134.804-11.7284 131.25-5.04887 127.696 0.209063 122.626 4.04537 116.04 7.88167 109.455 9.85731 101.949 9.94094 93.5138 10.5159 62.0603 11.1744 44.7708 11.9375 41.6453 13.4532 35.3943 15.6797 30.6277 18.617 27.3559 21.5544 24.0945 25.1084 21.199 29.2792 18.6902 33.4396 16.1815 36.5442 13.6936 38.5825 11.2267 40.6209 8.77018 41.6349 5.02796 41.6349 0 41.6349-7.10814 38.9379-12.3138 33.5337-15.6274 26.9064-19.7042 22.0979-23.2791 19.1083-26.3628 16.1292-29.436 14.0386-33.2828 12.8574-37.8717 11.6762-42.4711 10.9653-49.3597 10.7249-58.548 10.4845-67.7468 10.2232-79.2557 9.94094-93.0852 9.6587-106.162 5.46699-116.657-2.62374-124.56-10.7249-132.473-21.5021-136.434-34.9553-136.434-41.593-136.434-46.6837-134.96-50.2378-132.023-53.7919-129.086-55.5689-124.831-55.5689-119.239-55.5689-116.113-54.994-113.239-53.8546-110.636-52.7256-108.033-51.2308-106.026-49.3806-104.605-47.5304-103.172-45.4293-102.326-43.0565-102.044-38.7916-101.469-35.6138-100.758-33.5337-99.9111-31.4535-99.054-29.8646-97.4442-28.7775-95.0713-27.6904-92.7089-26.9796-89.228-26.6451-84.6286-26.3106-80.0397-26.1433-73.3288-26.1433-64.5168-25.9551-51.4504-25.2025-41.2167-23.875-33.8264-22.5474-26.436-20.0387-20.0909-16.3487-14.7807-12.6483-9.47054-7.20221-4.54712 0 0" fill="#EE2C2F" transform="matrix(1.16301 0 0 -1 8623.87 5872.07)"/><path d="M0 0C6.72137-4.1708 11.9793-8.8329 15.7633-13.9968 19.5578-19.1606 22.2129-25.7461 23.7286-33.7532 25.2443-41.7603 25.997-52.0148 25.997-64.5168 25.997-73.9037 26.2165-80.8132 26.6346-85.2663 27.0632-89.7298 27.9203-93.1166 29.1956-95.4267 30.4814-97.7578 32.018-99.2735 33.8159-99.9738 35.6138-100.695 38.6975-101.375 43.0565-102.044 46.6524-102.514 49.6315-104.27 52.0044-107.301 54.3772-110.333 55.5584-114.316 55.5584-119.239 55.5584-130.706 48.5966-136.434 34.6731-136.434 26.0492-136.434 18.3557-134.636 11.5821-131.03 4.80844-127.434-0.428579-122.344-4.11854-115.758-7.8085-109.173-9.71097-101.615-9.80505-93.0852-10.0873-78.6912-10.3695-67.1301-10.6518-58.4121-10.934-49.6942-11.3626-44.0495-11.9375-41.499-13.3591-35.1539-15.4602-30.3664-18.2616-27.1468-21.0526-23.9272-24.7008-20.9167-29.2061-18.1153-33.7009-15.3243-36.8996-12.8155-38.7916-10.589-40.6836-8.36251-41.6349-4.82935-41.6349 0-41.6349 7.01406-38.8857 12.272-33.3978 15.7738-26.5719 20.0387-21.7216 23.6659-18.8261 26.6451-15.9306 29.6347-13.9027 33.471-12.711 38.1644-11.5298 42.8474-10.8399 47.9695-10.6518 53.5096-10.4636 59.0498-10.1814 72.388-9.80505 93.5138-9.51236 106.591-5.37291 117.044 2.62374 124.852 10.6308 132.671 21.314 136.581 34.6731 136.581 48.5966 136.581 55.5584 130.946 55.5584 119.668 55.5584 114.556 54.3981 110.521 52.0775 107.584 49.757 104.646 46.7464 102.943 43.0565 102.472 37.5581 101.709 33.7218 100.58 31.5371 99.0644 29.3629 97.5487 27.9412 94.6114 27.2827 90.242 26.6137 85.8935 26.1851 77.4578 25.997 64.9558 25.8088 52.7256 25.0771 42.7115 23.8018 34.8926 22.5161 27.0736 20.0073 20.415 16.2651 14.9166 12.5229 9.42873 7.10814 4.45304 0 0" fill="#EE2C2F" transform="matrix(1.16301 0 0 -1 7482.71 5874.11)"/><path d="M0 0C-5.11159 3.21957-9.28239 6.58548-12.502 10.0873-15.7215 13.5995-18.3766 17.8644-20.4672 22.8819-22.5474 27.8994-24.0109 33.8473-24.868 40.715-25.7147 47.5827-26.1433 55.663-26.1433 64.9558-26.1433 73.956-26.3315 80.8446-26.7182 85.6321-27.0945 90.4197-27.8472 93.9006-28.9866 96.0748-30.1259 98.2491-31.7148 99.7439-33.7532 100.549-35.7916 101.354-38.8857 102.002-43.0565 102.472-46.5583 102.943-49.527 104.646-51.9417 107.584-54.3563 110.521-55.5689 114.556-55.5689 119.668-55.5689 130.946-48.6907 136.581-34.9553 136.581-26.1433 136.581-18.3975 134.804-11.7284 131.25-5.04887 127.696 0.209063 122.626 4.04537 116.04 7.88167 109.455 9.84686 101.949 9.94094 93.5138 10.5159 62.0603 11.1744 44.7708 11.9375 41.6453 13.4532 35.3943 15.6797 30.6277 18.617 27.3559 21.5544 24.0945 25.1084 21.199 29.2792 18.6902 33.4396 16.1815 36.5442 13.6936 38.5825 11.2267 40.6209 8.77018 41.6349 5.02796 41.6349 0 41.6349-7.10814 38.9379-12.3138 33.5337-15.6274 26.9064-19.7042 22.0979-23.2791 19.1083-26.3628 16.1292-29.436 14.0386-33.2828 12.8574-37.8717 11.6762-42.4711 10.9653-49.3597 10.7249-58.548 10.4845-67.7468 10.2232-79.2557 9.94094-93.0852 9.6587-106.162 5.46699-116.657-2.62374-124.56-10.7249-132.473-21.5021-136.434-34.9553-136.434-41.593-136.434-46.6837-134.96-50.2378-132.023-53.7919-129.086-55.5689-124.831-55.5689-119.239-55.5689-116.113-54.994-113.239-53.8546-110.636-52.7256-108.033-51.2308-106.026-49.3806-104.605-47.5304-103.172-45.4293-102.326-43.0565-102.044-38.7916-101.469-35.6138-100.758-33.5337-99.9111-31.4535-99.054-29.8646-97.4442-28.7775-95.0713-27.6904-92.7089-26.9796-89.228-26.6451-84.6286-26.3106-80.0397-26.1433-73.3288-26.1433-64.5168-25.9551-51.4504-25.2025-41.2167-23.875-33.8264-22.5474-26.436-20.0387-20.0909-16.3487-14.7807-12.6483-9.47054-7.20221-4.54712 0 0" fill="#EE2C2F" transform="matrix(1.16301 0 0 -1 7795.89 5874.11)"/><path d="M0 0C-14.1117 0-26.3001 4.33805-36.5651 13.0037-46.8196 21.6694-51.9521 33.8159-51.9521 49.4329-51.9521 62.9174-46.9241 74.2591-36.8787 83.4579-26.8332 92.6566-14.9689 97.256-1.28574 97.256 8.96879 97.256 18.2721 94.4755 26.6032 88.9144 34.9448 83.3533 41.4572 75.1685 46.1611 64.3495 50.865 53.5514 53.2169 40.2341 53.2169 24.3872 53.2169 3.20911 48.7325-16.6414 39.7533-35.1435 30.7845-53.656 19.8296-68.3113 6.88862-79.1094-6.04191-89.9284-17.7494-95.3326-28.2235-95.3326-34.8403-95.3326-40.2446-93.1375-44.4049-88.7472-48.5757-84.3673-50.6664-79.2871-50.6664-73.5065-50.6664-64.7258-46.2865-57.67-37.5163-52.318-12.502-38.4153 0-20.969 0 0" fill="#F7921D" transform="matrix(1.16301 0 0 -1 7973.77 6048.05)"/><path d="M0 0C-14.1117 0-26.3001 4.33805-36.5651 13.0037-46.8196 21.6694-51.9521 33.8159-51.9521 49.4329-51.9521 62.9174-46.9241 74.2591-36.8787 83.4579-26.8332 92.6566-14.9689 97.256-1.28574 97.256 8.96879 97.256 18.2721 94.4755 26.6032 88.9144 34.9448 83.3533 41.4572 75.1685 46.1611 64.3495 50.865 53.5514 53.2169 40.2341 53.2169 24.3872 53.2169 3.20911 48.7325-16.6414 39.7533-35.1435 30.7845-53.656 19.8296-68.3113 6.88862-79.1094-6.04191-89.9284-17.7494-95.3326-28.2235-95.3326-34.8403-95.3326-40.2446-93.1375-44.4049-88.7472-48.5757-84.3673-50.6664-79.2871-50.6664-73.5065-50.6664-64.7258-46.2865-57.67-37.5163-52.318-12.502-38.4153 0-20.969 0 0" fill="#F7921D" transform="matrix(1.16301 0 0 -1 8936.99 6035.57)"/><path d="M0 0C11.8748-7.35901 21.1572-15.6065 27.8472-24.7217 34.5372-33.8368 39.2306-45.4712 41.9066-59.6143 44.5826-73.7469 45.9206-91.8622 45.9206-113.95 45.9206-130.518 46.297-142.738 47.0391-150.598 47.8022-158.47 49.3075-164.449 51.5653-168.546 53.8232-172.644 56.541-175.32 59.7188-176.574 62.8965-177.839 68.3426-179.052 76.0361-180.212 82.3917-181.059 87.66-184.153 91.8517-189.505 96.033-194.867 98.1236-201.892 98.1236-210.589 98.1236-230.837 85.8307-240.966 61.224-240.966 46.0043-240.966 32.4152-237.778 20.4463-231.422 8.48795-225.067-0.752626-216.066-7.27539-204.443-13.7981-192.808-17.1432-179.47-17.3104-164.407-17.8122-138.975-18.3139-118.56-18.8157-103.162-19.3174-87.7646-20.07-77.8027-21.0735-73.2974-23.5927-62.0812-27.3141-53.6351-32.2479-47.9486-37.1818-42.2516-43.621-36.9414-51.5758-31.9971-59.5202-27.0632-65.1649-22.631-68.5099-18.7007-71.8653-14.7598-73.5378-8.52976-73.5378 0-73.5378 12.387-68.6771 21.6694-58.9766 27.8681-46.9346 35.3943-38.3526 41.7917-33.2514 47.06-28.1399 52.3389-24.544 59.1125-22.4533 67.4018-20.3627 75.6807-19.1502 84.7122-18.8157 94.5068-18.4812 104.291-17.9794 127.842-17.3104 165.16-16.8086 188.261-9.49145 206.711 4.64119 220.509 18.7738 234.318 37.6418 241.217 61.224 241.217 85.8307 241.217 98.1236 231.265 98.1236 211.352 98.1236 202.31 96.0748 195.202 91.9772 190.017 87.8795 184.822 82.5694 181.811 76.0361 180.975 66.3356 179.637 59.5515 177.63 55.7048 174.954 51.858 172.278 49.3493 167.093 48.1785 159.389 47.0078 151.696 46.2551 136.8 45.9206 114.713 45.5861 93.127 44.29 75.4299 42.0321 61.6213 39.7742 47.8127 35.3421 36.0633 28.7357 26.3524 22.1188 16.6519 12.5438 7.87121 0 0" fill="#0090D1" transform="matrix(1.16301 0 0 -1 9165.81 5848.92)"/><path d="M-196.446 7906.94 5492.59 7906.94 5492.59 7244.8-196.446 7244.8Z" fill="#FFFFFF" transform="matrix(1.16301 0 0 -1 6367 7199.2)"/><path d="M-198.202 669.984 5490.84 669.984 5490.84 2.61329-198.202 2.61329Z" fill="#FFFFFF" transform="matrix(1.16301 0 0 -1 6367 7199.2)"/></g></g></g></g></g><g clip-path="url(#clip6)"><g clip-path="url(#clip7)"><g clip-path="url(#clip8)"><g clip-path="url(#clip9)"><path d="M31.3699 669.001 5613.34 669.001 5613.34 7893.25 31.3699 7893.25Z" fill="#FFFFFF" transform="matrix(1.16297 0 0 -1 -197.616 7199.2)"/><path d="M0 0 0-3430.75 0-6861.55 5321.07-6861.55 5321.07 0Z" fill="#2F2F2F" transform="matrix(1.16297 0 0 -1 178.755 -168.141)"/><path d="M0 0 2157.03 2111.83 2441.26 2030.16 719.019 11.6762" fill="#666767" transform="matrix(1.16297 0 0 -1 2754.32 6608.28)"/><path d="M0 0 1404.56 1948.49 1789.12 1855.14 618.648 46.6628" fill="#666767" transform="matrix(1.16297 0 0 -1 4212.8 6643.26)"/><path d="M0 0-601.955-221.68-284.242-746.751-2792.38-2741.91-2073.4-2753.59 83.6251-793.425-334.417-315.026-66.8896-245.043" fill="#666767" transform="matrix(1.16297 0 0 -1 4621.14 3878.04)"/><path d="M0 0 434.746 11.6448 832.373 763.989 832.373 1437.23Z" fill="#666767" transform="matrix(1.16297 0 0 -1 5398.97 6596.6)"/><path d="M0 0-781.404-304.688-547.316-864.757-3189.22-2906.59-3456.76-2579.89-1032.25-888.067-1048.94-211.352-41.9694 124.946" fill="#666767" transform="matrix(1.16297 0 0 -1 4538.17 3748.36)"/><path d="M0 0-2006.51-606.69-1789.16 2216.88 50.1437 1563.48-16.7459-583.379" fill="#818282" transform="matrix(1.16297 0 0 -1 4951.74 3446.36)"/><path d="M0 0 1270.79-105.023 1237.35-326.702-66.8896-420.049" fill="#666767" transform="matrix(1.16297 0 0 -1 3013.89 2592.31)"/><path d="M0 0 1220.61-303.382 1237.35-536.706-33.4396-408.362" fill="#666767" transform="matrix(1.16297 0 0 -1 3033.35 1962.26)"/><path d="M0 0 1270.79 245.032 1270.79 560.058-33.4396 431.683" fill="#666767" transform="matrix(1.16297 0 0 -1 3026.57 3656.36)"/><path d="M0 0-21.3558-1601.38 1029.38-1345.39 1013.06-266.147Z" fill="#00A650" transform="matrix(1.16297 0 0 -1 3415.68 2042.66)"/><path d="M0 0-14.3313-1173.53 986.149-917.545 953.483-210.652Z" fill="#F9A11B" transform="matrix(1.16297 0 0 -1 3636.97 2276.67)"/><path d="M0 0-583.463 110.009-588.24-731.762-16.3383-594.93" fill="#236EB7" transform="matrix(1.16297 0 0 -1 4517.81 2576.47)"/><path d="M0 0-414.446 55.8929-414.038-168.85 22.3384-186.568" fill="#030405" transform="matrix(1.16297 0 0 -1 4421.26 2609.66)"/><path d="M0 0-402.331 9.80505-414.289-335.891 10.5263-238.499" fill="#FFFFFF" transform="matrix(1.16297 0 0 -1 4448.53 2892.51)"/><path d="M0 0-325.511-3.67951-325.511-199.467 13.0246-125.762" fill="#030405" transform="matrix(1.16297 0 0 -1 4459.3 2947.75)"/><path d="M0 0 10.2963-2180.05 1692.68-2777.7 1692.68 676.82Z" fill="#9A9B9B" transform="matrix(1.16297 0 0 -1 4398.47 2134.57)"/><path d="M0 0 1670.66-445.962 1670.66 236.994-16.3383 448.91Z" fill="#B5B5B5" transform="matrix(1.16297 0 0 -1 4424.07 4129.69)"/><path d="M0 0 7.02451-423.728 1698.31-324.664 1698.31 372.111Z" fill="#B5B5B5" transform="matrix(1.16297 0 0 -1 4391.91 2357.03)"/><path d="M0 0-0.36586-399.603 1686.64-557.518 1686.64 47.3527Z" fill="#B5B5B5" transform="matrix(1.16297 0 0 -1 4405.49 3052.65)"/><path d="M0 0-16.7355-1995.16 1484.47-2477.69 1484.47 343.083Z" fill="#F7921D" transform="matrix(1.16297 0 0 -1 4640.6 2256.26)"/><path d="M0 0 0-1132.65 3315.49-2258.08 5017.83-1853.78 5017.83 0Z" fill="#030405" transform="matrix(1.16297 0 0 -1 531.406 -129.136)"/><path d="M0 0 0 139.497-445.973 156.504Z" fill="#4C4C4D" transform="matrix(1.16297 0 0 -1 6367 80.0775)"/><path d="M0 0-4413.15 1348.58-4298.78 903.914-898.688-228.004" fill="#4C4C4D" transform="matrix(1.16297 0 0 -1 5621.65 1726.62)"/><path d="M0 0 3329.28-1099.43 3329.28-441.363 2016.23 12.502Z" fill="#4C4C4D" transform="matrix(1.16297 0 0 -1 2495.14 -155.675)"/><path d="M0 0 2488.54-846.213 2436.23-3679.14-40.5059-5254.71Z" fill="#B5B5B5" transform="matrix(1.16297 0 0 -1 319.712 942.424)"/><path d="M0 0 2251.87-587.372 2244.24-1176.5 56.5515-918.235" fill="#9A9B9B" transform="matrix(1.16297 0 0 -1 582.6 1538.95)"/><path d="M0 0 2218.88-61.9871 2215.28-564.187 27.889-848.753" fill="#9A9B9B" transform="matrix(1.16297 0 0 -1 597.322 2979.44)"/><path d="M0 0 2285.57 682.851 2277.15 195.923 95.3849-811.875" fill="#9A9B9B" transform="matrix(1.16297 0 0 -1 508.274 4598.7)"/><path d="M0 0 4860.79-1569.17 5184.76-1492.43 5184.76-1083.77 1192.8 182.439Z" fill="#4C4C4D" transform="matrix(1.16297 0 0 -1 337.279 47.4114)"/><path d="M0 0 1242.29-375.456 1242.29 743.103 36.0529 854.293Z" fill="#FFFFFF" transform="matrix(1.16297 0 0 -1 4922.25 4084.08)"/><path d="M0 0 1069.61-296.232 1048.17 507.845 22.7878 596.237Z" fill="#030405" transform="matrix(1.16297 0 0 -1 5111.92 3965.47)"/><path d="M0 0-8.97925-432.499 779.867-645.523 786.233-100.037Z" fill="#EE2C2F" transform="matrix(1.16297 0 0 -1 5294.12 3463.55)"/><path d="M0 0-27.429-723.964 1118.65-792.724 1118.65 146.334Z" fill="#030405" transform="matrix(1.16297 0 0 -1 5066.04 2352.91)"/><path d="M0 0 5.84331-507.803 939.194-573.616 936.371 79.7784Z" fill="#EE2C2F" transform="matrix(1.16297 0 0 -1 5253.57 2431.51)"/><path d="M0 0-2.90597-122.95 233.962-141.076 228.171-28.213Z" fill="#EE2C2F" transform="matrix(1.16297 0 0 -1 4026.03 2611.95)"/><path d="M0 0-5.75968-100.779 170.428-74.5622 170.428-2.007Z" fill="#EE2C2F" transform="matrix(1.16297 0 0 -1 4148.12 2990.3)"/><g clip-path="url(#clip10)"><path d="M0 0 72.3566-105.88 72.3566 0.982595C72.3566 7.92348 73.8932 13.1291 76.9769 16.61 80.0501 20.0805 84.2001 21.8157 89.4266 21.8157 94.8204 21.8157 99.0853 20.0805 102.2 16.61 105.326 13.1396 106.883 7.93393 106.883 0.993048L106.883-140.198C106.883-155.961 100.131-163.832 86.6356-163.832 83.2593-163.832 80.2174-163.362 77.5205-162.431 74.8236-161.491 72.2939-160.006 69.9315-157.968 67.5691-155.919 65.3739-153.536 63.346-150.797 61.3286-148.069 59.3007-145.278 57.2728-142.414L-13.3068-37.8926-13.3068-143.03C-13.3068-149.888-14.9584-155.062-18.2512-158.574-21.5544-162.086-25.7879-163.832-30.9517-163.832-36.2828-163.832-40.5582-162.055-43.7778-158.511-46.9973-154.957-48.6071-149.794-48.6071-143.02L-48.6071-4.51576C-48.6071 1.35891-47.9276 5.9792-46.5687 9.3242-44.9694 12.9933-42.3039 15.9933-38.5825 18.3244-34.8612 20.6554-30.8368 21.8157-26.5196 21.8157-23.1433 21.8157-20.2373 21.2826-17.8331 20.2164-15.4184 19.1606-13.3068 17.7285-11.488 15.9306-9.66916 14.1326-7.8085 11.812-5.90602 8.94789-3.9931 6.08373-2.02791 3.10458 0 0" fill="#FFFFFF" transform="matrix(1.16297 0 0 -1 1108.35 324.105)"/><path d="M0 0-67.6841 0C-67.6005-7.59943-66.0116-14.2999-62.9279-20.1014-59.8442-25.9029-55.7466-30.2827-50.635-33.2201-45.5234-36.1574-39.8892-37.6313-33.7218-37.6313-29.5719-37.6313-25.7879-37.1609-22.3697-36.2201-18.9515-35.2794-15.6379-33.8159-12.4183-31.8089-9.20922-29.8019-6.25098-27.659-3.55407-25.3698-0.846704-23.0805 2.66555-19.976 6.97224-16.056 8.74928-14.5926 11.2789-13.8504 14.5821-13.8504 18.1257-13.8504 21.0004-14.7912 23.1955-16.6728 25.3907-18.5439 26.4883-21.1885 26.4883-24.6171 26.4883-27.6276 25.2652-31.1608 22.8192-35.1957 20.3627-39.2306 16.6623-43.0983 11.718-46.8092 6.77363-50.52 0.56447-53.5933-6.90953-56.0393-14.3835-58.4853-22.9865-59.7083-32.7079-59.7083-54.9208-59.7083-72.1894-53.5828-84.5136-41.3317-96.8274-29.0806-102.984-12.4601-102.984 8.52976-102.984 18.408-101.469 27.5754-98.4372 36.032-95.3954 44.4781-90.9632 51.7326-85.1513 57.7745-79.3289 63.8164-72.1476 68.4472-63.6178 71.6772-55.0881 74.9072-45.628 76.517-35.2375 76.517-21.7216 76.517-10.1186 73.7574-0.449485 68.2381 9.23012 62.7188 16.4741 55.5898 21.293 46.8405 26.1119 38.1017 28.5162 29.1852 28.5162 20.1118 28.5162 11.6866 26.0283 6.23007 21.0422 3.74222 16.056 1.24392 9.04197 0 0 0M-67.6841 19.0665-4.94434 19.0665C-5.79104 30.4814-8.97925 39.0216-14.509 44.6872-20.0491 50.3528-27.335 53.1856-36.3769 53.1856-44.9903 53.1856-52.0671 50.311-57.6073 44.5617-63.137 38.8125-66.5029 30.3141-67.6841 19.0665" fill="#FFFFFF" transform="matrix(1.16297 0 0 -1 1389.85 428.234)"/><path d="M0 0-25.0771 35.6034-50.7918 0C-54.5131-4.97569-57.6595-8.51931-60.231-10.6413-62.8129-12.7633-66.0848-13.8191-70.0465-13.8191-74.4368-13.8191-78.179-12.4915-81.2627-9.84686-84.3464-7.19176-85.883-4.1499-85.883-0.721267-85.883 2.78054-83.5206 7.8085-78.7853 14.3313L-47.4991 57.67-75.2417 93.8378C-80.0606 99.7961-82.4648 104.991-82.4648 109.403-82.4648 112.831-81.0327 115.821-78.1581 118.35-75.2835 120.891-71.5308 122.155-66.8792 122.155-62.8234 122.155-59.4679 121.047-56.8128 118.842-54.1577 116.636-51.0531 113.166-47.4991 108.42L-25.0771 78.754-3.29274 108.42C0.3345 113.322 3.4809 116.845 6.13599 118.967 8.80154 121.089 12.1152 122.155 16.0874 122.155 20.645 122.155 24.429 120.911 27.4186 118.413 30.4186 115.925 31.9239 112.915 31.9239 109.403 31.9239 106.873 31.3072 104.437 30.0841 102.106 28.8611 99.7752 26.9796 97.0156 24.4499 93.8378L-3.29274 57.67 27.9935 14.3313C32.8856 7.55762 35.3421 2.45649 35.3421-0.972142 35.3421-4.47394 33.8159-7.4949 30.774-10.0246 27.7322-12.5542 23.9795-13.8191 19.5056-13.8191 15.5334-13.8191 12.1779-12.7215 9.43919-10.5263 6.69001-8.3207 3.54361-4.80844 0 0" fill="#FFFFFF" transform="matrix(1.16297 0 0 -1 1539.93 474.113)"/><path d="M0 0 3.80494 0 3.80494 20.1014C3.80494 25.4952 3.95129 29.7287 4.24397 32.7915 4.53666 35.8543 5.36246 38.4885 6.71092 40.6941 8.05937 42.9833 9.9932 44.844 12.5229 46.2761 15.0525 47.7081 17.8749 48.4189 21.0004 48.4189 25.3802 48.4189 29.342 46.8301 32.8856 43.6419 35.248 41.5094 36.7428 38.917 37.37 35.8543 38.0076 32.7915 38.3212 28.443 38.3212 22.7983L38.3212 0 51.0009 0C55.9034 0 59.6352-1.11849 62.2171-3.36591 64.7886-5.60288 66.0848-8.4775 66.0848-11.9793 66.0848-16.4637 64.245-19.5996 60.5655-21.3976 56.8964-23.1851 51.6281-24.084 44.7917-24.084L38.3212-24.084 38.3212-85.5694C38.3212-90.796 38.5094-94.8204 38.8961-97.6323 39.2724-100.444 40.2864-102.733 41.938-104.49 43.5791-106.246 46.2656-107.124 49.9869-107.124 52.0148-107.124 54.7535-106.779 58.224-106.089 61.684-105.389 64.3913-105.044 66.3356-105.044 69.1266-105.044 71.6354-106.131 73.8723-108.284 76.1198-110.458 77.2383-113.124 77.2383-116.312 77.2383-121.695 74.1964-125.824 68.1127-128.678 62.0289-131.542 53.2797-132.964 41.8753-132.964 31.0772-132.964 22.8924-131.208 17.3313-127.706 11.7702-124.194 8.12209-119.333 6.38687-113.124 4.6621-106.925 3.80494-98.6358 3.80494-88.2663L3.80494-24.084-0.763079-24.084C-5.74923-24.084-9.55417-22.9446-12.1675-20.6659-14.7912-18.3766-16.0978-15.4811-16.0978-11.9793-16.0978-8.4775-14.7285-5.60288-11.9793-3.36591-9.23012-1.11849-5.23702 0 0 0" fill="#FFFFFF" transform="matrix(1.16297 0 0 -1 1611.92 354.978)"/><path d="M0 0C-5.23702 0-9.76323 1.63069-13.5682 4.90252-17.3731 8.1639-19.2651 12.7424-19.2651 18.6275-19.2651 23.6032-17.4567 27.889-13.8191 31.4849-10.1814 35.0807-5.70741 36.8787-0.376313 36.8787 4.94434 36.8787 9.481 35.1016 13.2441 31.5476 17.0073 27.9935 18.8888 23.6868 18.8888 18.6275 18.8888 12.826 17.0073 8.26843 13.2441 4.96524 9.481 1.6516 5.06977 0 0 0" fill="#FFFFFF" transform="matrix(1.16297 0 0 -1 1894.14 487.942)"/><path d="M0 0C-5.23702 0-9.76323 1.63069-13.5682 4.90252-17.3731 8.1639-19.2651 12.7424-19.2651 18.6275-19.2651 23.6032-17.4567 27.889-13.8191 31.4849-10.1814 35.0807-5.70741 36.8787-0.376313 36.8787 4.94434 36.8787 9.481 35.1016 13.2441 31.5476 17.0073 27.9935 18.8888 23.6868 18.8888 18.6275 18.8888 12.826 17.0073 8.26843 13.2441 4.96524 9.481 1.6516 5.06977 0 0 0" fill="#FFFFFF" transform="matrix(1.16297 0 0 -1 1988.02 487.942)"/><path d="M0 0C-5.23702 0-9.76323 1.63069-13.5682 4.90252-17.3731 8.1639-19.2651 12.7424-19.2651 18.6275-19.2651 23.6032-17.4567 27.889-13.8191 31.4849-10.1814 35.0807-5.70741 36.8787-0.376313 36.8787 4.94434 36.8787 9.481 35.1016 13.2441 31.5476 17.0073 27.9935 18.8888 23.6868 18.8888 18.6275 18.8888 12.826 17.0073 8.26843 13.2441 4.96524 9.481 1.6516 5.06977 0 0 0" fill="#FFFFFF" transform="matrix(1.16297 0 0 -1 2082.21 487.942)"/><path d="M0 0 21.962-60.4714-69.2207-68.5621-71.9072-12.1256" fill="#FFFFFF" transform="matrix(1.16297 0 0 -1 5284.25 6094.15)"/><path d="M0 0 21.9307-60.4296-69.2521-68.5203-71.8967-12.0838" fill="#FFFFFF" transform="matrix(1.16297 0 0 -1 5043.2 6112.53)"/><path d="M0 0 131.156-596.603 1.64114-600.606-65.2485-153.159-78.064-608.686-200.157-608.686-152.386-4.04537" fill="#38A8DA" transform="matrix(1.16297 0 0 -1 5171.89 5516.33)"/><path d="M0 0 39.3143-221.753-63.3774-213.432-71.3845 11.1117-118.455 8.33115-120.995-216.202-210.171-216.202-189.432 11.1117" fill="#BA2928" transform="matrix(1.16297 0 0 -1 4765.6 5817.84)"/><path d="M0 0 204.986-174.641 179.669-194.042-36.3351-8.28934" fill="#38A8DA" transform="matrix(1.16297 0 0 -1 4077.88 5724.33)"/><path d="M0 0-212.366-169.09-241.886-155.24-39.8892 11.1117" fill="#38A8DA" transform="matrix(1.16297 0 0 -1 4319.97 5743.73)"/><path d="M0 0 94.0783 119.229 124.131 94.2873 169.78 127.518 203.219 85.9562 165.285 55.4539 186.15 2.78054 22.5788-88.6844" fill="#FFFFFF" transform="matrix(1.16297 0 0 -1 4153.53 5657.81)"/><path d="M0 0C1.6725-35.2375 27.1154-63.7746 56.8024-63.7746 86.5206-63.7746 109.235-35.2375 107.605 0 105.922 35.1957 80.4892 63.7432 50.8023 63.7432 21.0735 63.7432-1.63069 35.1957 0 0" fill="#030405" fill-rule="evenodd" transform="matrix(1.16297 0 0 -1 4281.21 5538.59)"/><path d="M0 0-180.358 97.026-221.272-36.0529-170.637-52.6734-156.222 30.4605-24.0109-47.1123Z" fill="#93321E" transform="matrix(1.16297 0 0 -1 4161.65 5638.38)"/><path d="M0 0-124.748 85.9144-135.358-22.1711-13.1082-55.4435Z" fill="#F38BB9" transform="matrix(1.16297 0 0 -1 4176.9 5638.38)"/><path d="M0 0C100.695-46.8719 208.247-64.1091 337.772 13.8818L318.455-133.037C194.083-178.801 88.8935-163.822-5.10113-113.636Z" fill="#F5EB02" transform="matrix(1.16297 0 0 -1 4005.42 5627.31)"/><path d="M0 0-78.5972-113.678-36.0947-124.748-10.0037-66.5656 5.88512-69.2939-1.88157-127.528 22.1293-135.859 34.8717-72.0744 48.1054-74.8549 67.1301-144.149 90.6078-141.368 84.8481-19.401" fill="#BA2928" transform="matrix(1.16297 0 0 -1 4362.62 5590.52)"/><path d="M0 0-75.4194 41.5721-166.717-357.612-42.1366-385.334" fill="#A74D9D" transform="matrix(1.16297 0 0 -1 4529.82 5246.8)"/><path d="M0 0 190.069-803.867-220.457-776.146-158.961-22.1711Z" fill="#A74D9D" transform="matrix(1.16297 0 0 -1 4681.5 5063.87)"/><path d="M0 0-165.17-58.224-386.85-14.8644-402.164-94.2351-161.376-138.588 6.40777-80.3951" fill="#BA2928" transform="matrix(1.16297 0 0 -1 4869.26 5260.68)"/><path d="M0 0 285.946-104.897 419.066-58.0149 425.474-98.4477 341.974-111.221 345.194-138.87 425.474-148.466 421.188-182.48 347.316-163.33 340.908-189.944 395.505-229.311 386.933-256.959C341.483-227.429 277.74-225.474 266.513-166.801L2.36241-91.2141" fill="#BA2928" transform="matrix(1.16297 0 0 -1 5396.03 5292.98)"/><path d="M0 0 13.5159-124.946 249.485-204.286 238.907-308.441 91.7472-275.743 104.082-507.918-166.393-515.957-137.522-243.192-332.054-310.166-341.285-185.658-108.368-128.992-105.106-36.2515" fill="#F5EB02" transform="matrix(1.16297 0 0 -1 5131.2 5088.69)"/><path d="M0 0 111.556-342.633-166.958-342.633-197.052-28.2235Z" fill="#030405" transform="matrix(1.16297 0 0 -1 5127.35 4781.3)"/><path d="M0 0 51.858-209.627-292.082-197.543-299.096-48.3876Z" fill="#EE2C2F" transform="matrix(1.16297 0 0 -1 5187.38 4718.06)"/><path d="M0 0C38.2271-7.63079 73.381-24.5753 123.159 2.78054L145.079-72.0639C99.1062-86.1966 57.6177-119.469-4.85026-63.7746Z" fill="#EE2C2F" transform="matrix(1.16297 0 0 -1 4674.93 6000.77)"/><path d="M0 0C41.6453-11.6762 83.4997-28.2966 123.148 2.77008L145.037-72.0744C99.054-86.1966 57.6073-119.479-4.86071-63.7432Z" fill="#EE2C2F" transform="matrix(1.16297 0 0 -1 4492.07 6003.54)"/><path d="M0 0 37.3595-137.239 130.748-268.876 132.295-413.014 171.379-462.917 33.6487-435.185-178.968-543.312-185.752-343.72-141.285-207.913-193.216-74.8445Z" fill="#030405" transform="matrix(1.16297 0 0 -1 4628.59 4767.26)"/><path d="M0 0C-80.6773 7.64125-154.79-10.9863-218-73.4542L-182.721-249.485C-119.27-194.972-50.4678-147.807 57.8268-155.24Z" fill="#F38BB9" transform="matrix(1.16297 0 0 -1 4643.54 4765.87)"/><path d="M0 0C1.63069-35.1957 31.1922-63.7851 65.9489-63.7851 100.737-63.7851 127.56-35.1957 125.887 0 124.256 35.1957 94.695 63.7432 59.9488 63.7432 25.1607 63.7432-1.6725 35.1957 0 0" fill="#F26628" fill-rule="evenodd" transform="matrix(1.16297 0 0 -1 3955.09 5932.21)"/><path d="M0 0C1.6725-35.1957 31.1922-63.7851 65.9802-63.7851 100.726-63.7851 127.591-35.1957 125.919 0 124.256 35.1957 94.7264 63.7432 59.9801 63.7432 25.1816 63.7432-1.64114 35.1957 0 0" fill="#F26628" fill-rule="evenodd" transform="matrix(1.16297 0 0 -1 4226.57 5932.21)"/><path d="M0 0-90.6496 30.5023-99.1794-11.0594-146.668-5.55062-136.173-60.9627-5.79104-44.3422Z" fill="#38A8DA" transform="matrix(1.16297 0 0 -1 3980.58 5674.44)"/><path d="M548.79 296.733 287.461 296.733 287.461 7656.93 548.79 7656.93Z" fill="#FFFFFF" transform="matrix(1.16297 0 0 -1 -197.616 7199.2)"/><path d="M5668.07 7442.64 320.566 7442.64 320.566 7693.51 5668.07 7693.51Z" fill="#FFFFFF" transform="matrix(1.16297 0 0 -1 -197.616 7199.2)"/></g></g></g></g></g></g></svg>