<svg xmlns="http://www.w3.org/2000/svg" version="1.1" xmlns:xlink="http://www.w3.org/1999/xlink" xmlns:svgjs="http://svgjs.com/svgjs" width="512" height="512"><svg xmlns="http://www.w3.org/2000/svg" version="1.1" xmlns:xlink="http://www.w3.org/1999/xlink" width="512" height="512" x="0" y="0" viewBox="0 0 512 512" style="enable-background:new 0 0 512 512" xml:space="preserve" class=""><g><path fill="#dc4b4b" d="M512 256c0-68.38-26.629-132.668-74.98-181.02-16.62-16.619-35.121-30.672-55.025-41.959l-19.327 30.978 19.327 55.319a187.095 187.095 0 0 1 15.397 15.965C426.157 168.92 442 211.792 442 256c0 32.476-8.534 64.467-24.682 92.516l-3.255 5.654-32.069-32.069-8.66 19.232 8.66 51.478-8.66 44.522 8.66 41.645c19.904-11.287 38.406-25.34 55.025-41.96C485.371 388.667 512 324.38 512 256z" opacity="1" data-original="#dc4b4b"></path><path fill="#0ed678" d="m97.937 354.171-3.255-5.655C78.534 320.468 70 288.476 70 256c0-44.207 15.843-87.079 44.609-120.718a187.095 187.095 0 0 1 15.397-15.965l8.661-44.651-8.661-41.646C110.103 44.308 91.6 58.361 74.98 74.98 26.629 123.332 0 187.62 0 256s26.629 132.667 74.98 181.019c16.62 16.62 35.122 30.673 55.026 41.96l8.661-41.646-8.661-44.521 8.661-51.478-8.661-19.233z" opacity="1" data-original="#0ed678" class=""></path><path fill="#fdae02" d="M377.951 396.33c-25.918 22.552-57.429 37.456-91.125 43.101l-5.826.976V291.818l100.994 100.994v-70.711L281 221.108V71.592l5.826.976c35.578 5.96 68.675 22.332 95.168 46.75V33.021C343.991 11.469 300.877 0 256 0l-10.667 266L256 512c44.877 0 87.99-11.469 125.994-33.021v-86.167z" opacity="1" data-original="#fdae02"></path><path fill="#fdcb02" d="M256 512V0c-44.876 0-87.99 11.469-125.994 33.021v86.297c26.492-24.417 59.59-40.789 95.167-46.749l5.827-.976v149.515L130.006 322.101v156.878C168.01 500.531 211.124 512 256 512zm-25-71.592-5.826-.976c-33.696-5.646-65.206-20.55-91.124-43.102l-4.043-3.518L231 291.818z" opacity="1" data-original="#fdcb02" class=""></path></g></svg><style>@media (prefers-color-scheme: light) { :root { filter: none; } }
</style></svg>