<?xml version="1.0" standalone="no"?>
<!DOCTYPE svg PUBLIC "-//W3C//DTD SVG 20010904//EN"
 "http://www.w3.org/TR/2001/REC-SVG-20010904/DTD/svg10.dtd">
<svg version="1.0" xmlns="http://www.w3.org/2000/svg"
 width="512.000000pt" height="512.000000pt" viewBox="0 0 512.000000 512.000000"
 preserveAspectRatio="xMidYMid meet">
<metadata>
Created by potrace 1.14, written by Peter Selinger 2001-2017
</metadata>
<g transform="translate(0.000000,512.000000) scale(0.100000,-0.100000)"
fill="#000000" stroke="none">
<path d="M2379 5116 c-2 -2 -35 -6 -74 -10 -214 -18 -469 -79 -677 -161 -488
-192 -904 -528 -1198 -964 -174 -260 -319 -600 -374 -881 -44 -224 -51 -299
-50 -550 0 -113 3 -232 8 -265 4 -33 10 -76 12 -95 3 -19 6 -44 8 -55 2 -11 7
-38 11 -60 38 -215 130 -477 243 -695 262 -505 717 -935 1222 -1154 47 -21 94
-41 105 -46 108 -49 383 -124 530 -146 22 -3 51 -8 65 -10 110 -19 474 -26
600 -12 96 11 153 19 175 23 284 54 471 114 702 226 318 155 593 372 847 669
129 151 275 385 360 580 61 138 62 141 92 230 35 106 28 83 64 230 34 144 39
172 57 335 12 104 8 490 -5 570 -6 39 -14 88 -18 110 -3 22 -7 45 -8 50 -2 6
-6 28 -10 50 -5 22 -19 81 -31 130 -216 829 -851 1503 -1676 1778 -129 44
-312 85 -445 102 -27 4 -60 9 -74 11 -28 6 -456 15 -461 10z m-69 -1462 l0
-746 -666 -666 -665 -665 -36 64 c-104 186 -172 376 -212 589 -22 117 -25 159
-26 335 0 194 9 273 51 440 168 675 699 1202 1374 1363 120 29 122 30 153 31
l27 1 0 -746z m616 730 c70 -11 254 -69 352 -110 301 -126 568 -335 768 -600
46 -62 84 -115 84 -119 0 -4 10 -21 22 -38 76 -107 201 -417 222 -553 4 -20 8
-39 10 -43 2 -3 7 -31 11 -61 4 -30 11 -77 15 -105 9 -54 6 -392 -4 -437 -3
-16 -8 -39 -10 -53 -40 -229 -110 -428 -219 -624 l-35 -64 -666 666 -666 666
0 747 0 746 43 -6 c24 -4 57 -9 73 -12z m-621 -3662 c-10 -10 -229 40 -335 75
-189 64 -442 202 -574 313 -16 14 -44 38 -63 54 l-33 28 502 503 503 502 3
-735 c1 -404 0 -738 -3 -740z m1472 435 c-134 -123 -314 -233 -532 -327 -87
-38 -357 -110 -412 -110 l-23 0 0 742 0 741 505 -504 504 -504 -42 -38z"/>
</g>
</svg>
