<?xml version="1.0" standalone="no"?>
<!DOCTYPE svg PUBLIC "-//W3C//DTD SVG 20010904//EN"
 "http://www.w3.org/TR/2001/REC-SVG-20010904/DTD/svg10.dtd">
<svg version="1.0" xmlns="http://www.w3.org/2000/svg"
 width="700.000000pt" height="700.000000pt" viewBox="0 0 700.000000 700.000000"
 preserveAspectRatio="xMidYMid meet">
<metadata>
Created by potrace 1.14, written by Peter Selinger 2001-2017
</metadata>
<g transform="translate(0.000000,700.000000) scale(0.100000,-0.100000)"
fill="#000000" stroke="none">
<path d="M3278 6995 c-2 -1 -42 -5 -89 -9 -47 -4 -95 -8 -106 -10 -11 -3 -44
-7 -74 -11 -435 -52 -964 -244 -1364 -495 -343 -216 -658 -501 -913 -829 -74
-95 -169 -228 -182 -256 -3 -5 -17 -28 -31 -50 -14 -22 -34 -56 -45 -75 -10
-19 -22 -37 -25 -40 -14 -11 -170 -342 -213 -453 -102 -261 -189 -613 -212
-852 -2 -22 -7 -76 -11 -120 -15 -157 -8 -594 12 -706 2 -13 7 -44 9 -69 12
-107 20 -153 51 -290 239 -1075 1004 -2000 2010 -2435 61 -26 125 -54 143 -62
84 -37 369 -122 497 -149 80 -17 211 -41 274 -50 25 -3 57 -7 70 -10 125 -19
581 -26 731 -11 95 10 158 17 190 23 14 2 48 7 75 10 28 4 53 8 56 10 4 2 24
6 45 10 81 12 294 68 424 111 703 232 1303 675 1746 1288 89 122 93 129 193
300 178 307 320 678 387 1013 2 12 6 34 9 50 7 31 10 50 19 112 4 25 9 52 11
60 2 8 7 47 11 85 3 39 8 84 11 100 8 58 10 511 2 597 -13 138 -21 207 -39
308 -6 36 -13 79 -16 95 -39 226 -155 572 -273 820 -387 811 -1097 1463 -1931
1773 -187 70 -365 119 -605 168 -11 2 -38 6 -60 9 -22 3 -51 7 -65 10 -13 2
-52 7 -86 11 -33 3 -74 8 -90 10 -32 5 -541 14 -546 9z m-120 -1997 l0 -1022
-908 -908 -909 -909 -27 43 c-39 60 -136 258 -172 348 -82 207 -131 394 -166
642 -3 21 -9 84 -12 140 -31 482 68 938 299 1373 20 39 43 79 50 89 158 249
228 338 397 506 324 323 734 556 1170 665 108 27 137 33 200 41 25 4 47 8 49
10 28 26 29 -7 29 -1018z m862 990 c415 -87 785 -268 1120 -546 90 -75 254
-242 325 -332 33 -41 62 -77 66 -80 12 -11 129 -190 170 -260 100 -173 226
-476 254 -606 2 -10 11 -50 20 -89 18 -76 19 -78 31 -145 4 -25 8 -47 9 -50 1
-5 16 -147 21 -195 9 -103 3 -395 -11 -485 -2 -14 -6 -45 -10 -70 -12 -81 -15
-99 -31 -173 -28 -138 -92 -335 -150 -465 -33 -76 -152 -306 -170 -331 -2 -2
-412 406 -912 906 l-910 910 0 1022 0 1022 42 -6 c22 -4 84 -15 136 -27z
m-862 -3993 l0 -1016 -44 7 c-39 5 -222 44 -277 59 -189 48 -463 166 -652 280
-116 71 -301 207 -389 287 -19 17 2 39 670 707 379 380 690 691 691 691 0 0 1
-457 1 -1015z m2042 -386 c-14 -11 -34 -28 -45 -37 -218 -185 -473 -340 -702
-428 -38 -14 -77 -30 -88 -35 -87 -39 -409 -119 -500 -123 -20 -1 -20 6 -21
1012 l-2 1013 692 -691 691 -691 -25 -20z"/>
</g>
</svg>
